<?xml version="1.0" encoding="UTF-8" standalone="no"?>
<svg
   xmlns:dc="http://purl.org/dc/elements/1.1/"
   xmlns:cc="http://creativecommons.org/ns#"
   xmlns:rdf="http://www.w3.org/1999/02/22-rdf-syntax-ns#"
   xmlns:svg="http://www.w3.org/2000/svg"
   xmlns="http://www.w3.org/2000/svg"
   xmlns:sodipodi="http://sodipodi.sourceforge.net/DTD/sodipodi-0.dtd"
   xmlns:inkscape="http://www.inkscape.org/namespaces/inkscape"
   width="216.627mm"
   height="216.68388mm"
   viewBox="0 0 216.627 216.68388"
   version="1.1"
   id="svg8"
   inkscape:version="1.0.2-2 (e86c870879, 2021-01-15)"
   sodipodi:docname="barbs.svg">
  <defs
     id="defs2">
    <pattern
       id="EMFhbasepattern"
       patternUnits="userSpaceOnUse"
       width="6"
       height="6"
       x="0"
       y="0" />
  </defs>
  <sodipodi:namedview
     id="base"
     pagecolor="#ffffff"
     bordercolor="#666666"
     borderopacity="1.0"
     inkscape:pageopacity="0.0"
     inkscape:pageshadow="2"
     inkscape:zoom="0.35"
     inkscape:cx="386.96273"
     inkscape:cy="524.76442"
     inkscape:document-units="mm"
     inkscape:current-layer="layer1"
     inkscape:document-rotation="0"
     showgrid="false"
     fit-margin-top="0"
     fit-margin-left="0"
     fit-margin-right="0"
     fit-margin-bottom="0"
     inkscape:window-width="1267"
     inkscape:window-height="685"
     inkscape:window-x="0"
     inkscape:window-y="0"
     inkscape:window-maximized="0" />
  <metadata
     id="metadata5">
    <rdf:RDF>
      <cc:Work
         rdf:about="">
        <dc:format>image/svg+xml</dc:format>
        <dc:type
           rdf:resource="http://purl.org/dc/dcmitype/StillImage" />
        <dc:title></dc:title>
      </cc:Work>
    </rdf:RDF>
  </metadata>
  <g
     inkscape:label="Layer 1"
     inkscape:groupmode="layer"
     id="layer1"
     transform="translate(-3.4494443,-9.3227482)">
    <g
       id="g41"
       transform="translate(-0.26381837,5.8911401)">
      <path
         style="fill:#d4d0cc;stroke-width:0.352905"
         d="m 28.484702,207.22187 c -1.052829,-0.30132 -1.225462,-4.15453 -0.236052,-5.26874 0.285344,-0.32133 0.679339,-1.17521 0.875544,-1.89751 0.196205,-0.7223 0.668045,-1.75454 1.048532,-2.29389 0.380488,-0.53933 1.128153,-1.85406 1.66148,-2.92159 0.533327,-1.06754 1.488251,-2.81442 2.122054,-3.88196 2.413729,-4.06554 6.527224,-11.73243 6.527224,-12.16569 0,-0.24887 0.238212,-0.65018 0.529358,-0.89181 0.291147,-0.24163 0.541896,-0.7772 0.557219,-1.19015 0.01532,-0.41296 0.108128,-0.55182 0.206232,-0.30859 0.186466,0.46231 -2.419651,6.22652 -3.230505,7.14523 -0.256967,0.29114 -1.164522,1.8891 -2.016788,3.55101 -0.852265,1.66192 -1.897929,3.51088 -2.323696,4.10882 -0.425766,0.59793 -1.219048,2.01731 -1.762846,3.15418 -0.5438,1.13687 -1.418547,2.73881 -1.943883,3.55987 -0.525336,0.82105 -0.95575,1.7739 -0.956476,2.11743 -7.41e-4,0.34353 -0.328196,1.16076 -0.727714,1.81608 -0.399516,0.65532 -0.815443,1.94337 -0.924281,2.86234 -0.440836,3.72216 1.464655,2.92138 16.710477,-7.0226 2.55555,-1.66684 6.287524,-4.09173 8.293276,-5.38864 2.005751,-1.29691 4.440858,-2.90531 5.411348,-3.57422 0.97049,-0.66891 4.384849,-2.92903 7.587465,-5.02249 11.392547,-7.44696 13.993326,-9.19981 18.351079,-12.3681 2.426224,-1.76398 7.192627,-5.05159 10.592009,-7.30579 7.897412,-5.23696 10.694942,-7.66161 8.839852,-7.66161 -0.30289,0 -8.899669,5.87883 -10.962133,7.49635 -2.69788,2.11586 -13.448538,8.7373 -14.186001,8.7373 -0.275616,0 -0.809388,0.23316 -1.186157,0.51814 -0.938118,0.70955 -2.240847,0.67033 -2.557675,-0.077 -0.619352,-1.46094 -1.932989,-3.24859 -2.525345,-3.43659 -0.749634,-0.23793 -1.151163,-1.7968 -0.581549,-2.25778 1.188945,-0.9622 5.524254,-3.74686 9.39085,-6.03196 2.426225,-1.43385 5.522969,-3.3151 6.881655,-4.18056 1.358686,-0.86545 3.026163,-1.92675 3.705506,-2.35845 2.801246,-1.78009 5.691961,-3.37368 9.528449,-5.25284 5.35328,-2.62211 6.07263,-3.16825 5.11712,-3.88501 -0.6927,-0.51962 -0.69106,-0.52574 0.0882,-0.32939 0.92008,0.23181 1.00033,0.72488 0.28435,1.74709 -0.28033,0.40022 -0.6078,1.58691 -0.72771,2.63709 -0.11991,1.05017 -0.4391,2.86225 -0.70931,4.02683 -0.27022,1.16459 -0.57772,2.54108 -0.68334,3.05886 -0.3677,1.80245 -3.67202,4.8257 -9.582321,8.76723 -3.152016,2.10205 -7.768078,5.30865 -10.257914,7.12578 -2.489839,1.81713 -5.162208,3.68168 -5.938599,4.14345 -1.431339,0.85131 -2.856864,1.83541 -5.94419,4.10355 -1.677712,1.23254 -2.506937,1.73274 -6.39384,3.8568 -1.065563,0.5823 -3.951672,2.48799 -6.413586,4.23487 -2.46191,1.74688 -5.71725,3.97018 -7.23409,4.94067 -1.516841,0.97049 -5.104393,3.33802 -7.97234,5.26117 -11.365594,7.6214 -13.687712,8.75933 -16.330968,8.00283 z m 13.420749,-31.57461 c -0.0057,-0.17184 0.386673,-0.68038 0.871918,-1.13009 0.485245,-0.44971 0.882264,-1.20084 0.882264,-1.66917 0,-0.79337 0.820024,-2.10708 2.152484,-3.44836 0.310425,-0.31249 1.408853,-2.29926 2.440949,-4.41506 1.032097,-2.1158 2.167676,-4.22564 2.523514,-4.68853 0.355834,-0.4629 0.64697,-1.21678 0.64697,-1.67529 0,-0.45851 0.541925,-1.4335 1.204279,-2.16665 0.662354,-0.73314 1.826014,-2.59959 2.585907,-4.14765 2.255761,-4.59545 3.272591,-6.4814 3.605437,-6.68711 0.172698,-0.10673 0.415691,-0.65708 0.539984,-1.22299 0.124297,-0.56591 0.588424,-1.39783 1.031397,-1.8487 0.677251,-0.68934 3.599759,-5.65871 5.407178,-9.19426 0.270897,-0.52992 0.641289,-1.05541 0.823095,-1.16777 0.18181,-0.11237 0.330559,-0.65913 0.330559,-1.21504 0,-0.65935 0.379635,-1.39038 1.091967,-2.10271 0.600585,-0.60058 1.535029,-2.00237 2.076545,-3.11507 1.446297,-2.97185 2.416886,-3.86753 4.464333,-4.1198 0.945533,-0.1165 2.195569,-0.38074 2.777863,-0.5872 0.582294,-0.20647 1.780676,-0.57728 2.66307,-0.82403 0.882394,-0.24675 1.954344,-0.63595 2.382111,-0.86488 1.287953,-0.68929 0.87577,-0.11338 -0.633864,0.88565 -1.192975,0.78947 -1.411621,1.12249 -1.411621,2.15001 0,1.22874 -0.48143,2.33896 -5.170819,11.92431 -6.144326,12.55932 -7.390307,14.4408 -8.53467,12.88762 -0.781054,-1.06007 -0.792731,-1.15401 -0.221879,-1.78479 0.770774,-0.8517 0.478169,-1.60851 -0.709696,-1.83559 -0.671999,-0.12846 -0.882274,-0.0492 -0.754314,0.28424 0.10728,0.27956 -0.128782,0.50592 -0.597102,0.57256 -0.587146,0.0836 -0.801278,0.38769 -0.885111,1.25716 -0.09159,0.94992 -0.258295,1.14694 -0.97049,1.14694 -0.99142,0 -1.062146,0.26002 -0.348039,1.27955 0.676209,0.96543 -0.137343,2.2495 -1.425215,2.2495 -0.480329,0 -0.963622,0.23531 -1.073983,0.5229 -0.151901,0.39585 -0.363566,0.4357 -0.871185,0.16403 -0.917209,-0.49087 -0.840946,-0.99251 0.211729,-1.39274 0.716726,-0.2725 0.882263,-0.57503 0.882263,-1.61238 0,-0.98014 0.164048,-1.31984 0.705811,-1.46151 0.431109,-0.11274 0.70581,-0.48137 0.70581,-0.94716 0,-0.41941 0.237975,-1.10233 0.528833,-1.51759 0.346355,-0.49449 0.432443,-1.01558 0.249486,-1.51015 -0.394675,-1.06691 -1.998799,0.18192 -2.324316,1.8095 -0.124801,0.62401 -0.463361,1.39584 -0.752355,1.71518 -0.288998,0.31933 -1.56756,2.63246 -2.841255,5.14028 -1.273692,2.50782 -2.782239,5.00445 -3.352322,5.54805 -0.679696,0.64813 -1.036515,1.33952 -1.036515,2.00838 0,0.561 -0.16384,1.12126 -0.364093,1.24502 -0.200249,0.12376 -1.303304,2.09864 -2.451232,4.38861 -1.147928,2.28998 -2.730969,4.90747 -3.517868,5.81666 -0.824025,0.95209 -1.430725,2.01574 -1.430725,2.50831 0,0.77288 -2.082593,3.58759 -2.107087,2.84781 z m 21.163976,-35.37265 c 0,-0.29115 -0.158807,-0.43121 -0.352905,-0.31125 -0.194098,0.11996 -0.352905,0.45631 -0.352905,0.74746 0,0.29115 0.158807,0.43121 0.352905,0.31125 0.194098,-0.11996 0.352905,-0.45632 0.352905,-0.74746 z m 1.406219,-2.53774 c -0.0047,-0.51428 -0.05269,-0.5236 -0.347503,-0.0674 -0.446637,0.69112 -0.446637,1.1583 0,0.88226 0.194098,-0.11996 0.350474,-0.48665 0.347503,-0.81486 z m 2.828646,-5.04973 c 0,-0.1941 -0.158808,-0.25476 -0.352906,-0.1348 -0.194098,0.11996 -0.352905,0.37692 -0.352905,0.57101 0,0.1941 0.158807,0.25476 0.352905,0.1348 0.194098,-0.11996 0.352906,-0.37691 0.352906,-0.57101 z m 1.602603,-2.45169 c 0.869216,-1.37694 1.360771,-2.21409 3.260919,-5.55363 0.475117,-0.83502 0.770216,-1.61185 0.655776,-1.72629 -0.337829,-0.33783 -1.594843,1.37602 -2.030769,2.76881 -0.221861,0.70885 -1.097543,2.01324 -1.945955,2.89864 -1.472096,1.53626 -1.824627,2.29451 -1.307303,2.81183 0.363284,0.36328 0.4027,0.32871 1.367332,-1.19936 z m 10.043273,-5.27057 c 0,-0.1941 -0.16818,-0.35291 -0.373733,-0.35291 -0.205554,0 -0.275584,0.15881 -0.155625,0.35291 0.11996,0.1941 0.28814,0.3529 0.373734,0.3529 0.08559,0 0.155624,-0.1588 0.155624,-0.3529 z m -16.939457,48.56224 c 0,-0.0763 0.238211,-0.2301 0.529358,-0.34183 0.291147,-0.11172 0.529358,-0.0493 0.529358,0.13869 0,0.18801 -0.238211,0.34184 -0.529358,0.34184 -0.291147,0 -0.529358,-0.0624 -0.529358,-0.1387 z m 2.558564,-0.5472 c -0.934949,-0.77996 -1.001256,-1.07863 -0.239471,-1.07863 0.633815,0 1.562866,0.82416 1.562866,1.38641 0,0.54537 -0.416958,0.4484 -1.323395,-0.30778 z m 0.760476,-22.09366 c 0.11498,-2.09098 0.818296,-3.23131 1.544839,-2.50476 0.607192,0.60719 0.412166,1.22056 -0.964719,3.03411 -0.656799,0.8651 -0.656799,0.8651 -0.58012,-0.52935 z m 38.035749,-5.81612 c -2.00188,-1.22051 -1.50026,-2.00697 2.58193,-4.04807 3.15271,-1.57635 3.61208,-1.92909 4.30758,-3.30768 1.0479,-2.07709 1.28635,-2.24934 0.66127,-0.47769 -0.90527,2.56582 -2.52463,4.4853 -4.81601,5.70856 -1.92762,1.02908 -2.4041,1.74136 -1.57192,2.34986 1.02494,0.74945 0.16138,0.58238 -1.16285,-0.22498 z m 8.76395,-10.94183 c 0.72277,-1.41675 0.68608,-2.09178 -0.11523,-2.12026 -0.71136,-0.0253 -2.1255,-2.54374 -1.75666,-3.12847 0.17848,-0.28296 1.90204,-1.03667 3.83013,-1.67492 5.04106,-1.66872 8.7696,-5.65338 6.81138,-7.27927 -0.83543,-0.69365 -0.83543,-0.69365 0.0468,-0.16614 2.17012,1.2975 -2.64367,7.94452 -6.70521,9.25874 -2.98843,0.96698 -3.72523,1.97372 -1.94098,2.65209 0.48525,0.18449 0.88227,0.5045 0.88227,0.71114 0,0.47188 -1.36395,3.17082 -1.60242,3.17082 -0.0971,0 0.1504,-0.64068 0.54988,-1.42373 z m -27.519047,-9.93579 c -0.803773,-0.86274 -0.886745,-1.65167 -0.364396,-3.46483 0.294539,-1.02241 0.252906,-1.30814 -0.243903,-1.67398 -0.523779,-0.38569 -0.528808,-0.44113 -0.04002,-0.44113 0.779653,0 1.008815,0.81251 0.615732,2.18311 -0.690093,2.40621 0.226127,3.2723 1.890503,1.78708 0.650877,-0.58082 0.646851,-0.5283 -0.06761,0.88226 -0.883911,1.7451 -0.853702,1.73283 -1.79031,0.72749 z m 2.456589,-2.63043 c 0,-0.18935 0.24697,-0.65254 0.548827,-1.0293 0.51749,-0.64593 0.524838,-0.63467 0.128649,0.19722 -0.514469,1.08026 -0.677476,1.28046 -0.677476,0.83208 z m 32.642238,-3.6622 c -0.32515,-1.48038 -0.46315,-1.37622 8.47124,-6.39376 11.81503,-6.63531 11.52658,-6.54714 14.4952,-4.43059 5.56525,3.96786 7.01017,4.50295 8.07073,2.98879 0.30215,-0.43138 0.54694,-0.62989 0.54396,-0.44113 -0.0122,0.77291 -0.67636,1.2873 -2.28874,1.77256 -1.89288,0.56967 -2.18906,0.45178 -6.35145,-2.5281 -2.55297,-1.8277 -5.31641,-1.27572 -10.75114,2.14747 -0.68653,0.43242 -2.35988,1.38544 -3.71856,2.11782 -6.09295,3.28431 -6.84519,3.76698 -7.51186,4.81992 -0.70366,1.11134 -0.70366,1.11134 -0.95938,-0.053 z m -30.855757,-0.52248 c 7.05e-4,-0.56408 0.776349,-1.41402 1.919025,-2.10308 1.057848,-0.6379 1.057781,-0.63764 -0.08249,0.31229 -0.627664,0.52289 -1.297767,1.21914 -1.489116,1.54721 -0.191349,0.32807 -0.347686,0.43768 -0.347414,0.24358 z m 7.977235,-1.82334 c -0.1294,-0.1294 -0.235272,-1.00284 -0.235272,-1.94098 0,-1.94223 -0.383124,-2.13303 -1.745216,-0.86913 -0.495867,0.46012 -1.377996,1.10745 -1.96029,1.43852 -1.049272,0.59657 -1.05092,0.59618 -0.184795,-0.0425 0.480657,-0.35446 1.375064,-1.0812 1.98757,-1.61496 1.7596,-1.53341 2.255637,-1.31999 2.255637,0.97048 0,2.48095 1.397081,2.9066 2.316629,0.70582 0.644021,-1.54136 0.916129,-1.60434 0.488428,-0.11304 -0.42734,1.49004 -2.073089,2.31544 -2.922691,1.46584 z m 3.343392,-3.29378 c 0,-0.29115 0.13648,-0.84698 0.3033,-1.23517 0.19117,-0.44489 0.30329,-0.51012 0.30329,-0.17646 0,0.29115 -0.13648,0.84698 -0.30329,1.23517 -0.19118,0.44489 -0.3033,0.51012 -0.3033,0.17646 z m 0.68406,-3.02911 c 0.0169,-0.41111 0.10056,-0.49473 0.21321,-0.21321 0.10195,0.25475 0.0894,0.55913 -0.0278,0.6764 -0.11727,0.11727 -0.20068,-0.0912 -0.18535,-0.46319 z m 50.11256,-0.70581 c 0.0169,-0.41111 0.10056,-0.49474 0.21321,-0.21321 0.10195,0.25475 0.0894,0.55913 -0.0278,0.6764 -0.11727,0.11727 -0.20068,-0.0912 -0.18535,-0.46319 z m -49.7737,-0.61872 c -0.0153,-0.7204 4.08469,-5.17481 4.76313,-5.17481 0.23662,0 0.64817,0.26372 0.91456,0.58606 0.44293,0.53594 0.41698,0.5441 -0.30353,0.0954 -0.90262,-0.5621 -3.93454,1.97241 -4.88402,4.08275 -0.32293,0.71777 -0.48078,0.84999 -0.49014,0.41059 z m 48.02731,-3.01021 c -0.80169,-1.54095 -1.45762,-3.16322 -1.45762,-3.60505 0,-0.44183 -0.18926,-1.326728 -0.42059,-1.96645 -0.56653,-1.566717 -0.33473,-1.697909 2.83738,-1.60585 2.76482,0.08024 4.28841,-0.546838 4.28841,-1.765014 0,-0.218886 0.0831,-0.314834 0.18476,-0.213215 0.66178,0.661779 -3.011,3.814833 -4.44364,3.814833 -2.44926,0 -2.65095,1.561266 -0.68115,5.272816 0.76653,1.44432 1.33887,2.68084 1.27188,2.74784 -0.067,0.067 -0.77774,-1.13897 -1.57943,-2.67991 z m -41.67641,0.68184 c -0.20093,-0.37543 -0.35278,-0.89155 -0.33746,-1.14694 0.0153,-0.25538 0.18736,-0.0276 0.38231,0.50616 0.40472,1.10811 1.22218,1.25587 1.9525,0.35291 0.45078,-0.55735 0.46197,-0.54014 0.11472,0.17645 -0.47208,0.97415 -1.618,1.03461 -2.11207,0.11142 z m 3.76205,-3.72427 c 0.32279,-0.67691 0.64955,-1.16808 0.72612,-1.09151 0.16144,0.16144 -0.90986,2.32225 -1.15134,2.32225 -0.0889,0 0.10242,-0.55383 0.42522,-1.23074 z m 1.16621,-2.902098 c 0,-0.202681 0.27791,-0.586466 0.61758,-0.852856 0.57127,-0.448017 0.57876,-0.431409 0.0999,0.221469 -0.28475,0.388196 -0.56266,0.771981 -0.61758,0.852856 -0.0549,0.08087 -0.0999,-0.01879 -0.0999,-0.221469 z m 24.63401,-2.038625 c -1.23644,-0.840187 -2.00054,-2.110522 -1.54405,-2.567019 0.45347,-0.453463 2.15546,0.505762 2.92589,1.648992 1.37106,2.034524 0.80989,2.407344 -1.38184,0.918027 z m 15.68542,-3.216284 c -0.82491,-0.796056 -1.49984,-1.564144 -1.49984,-1.706859 0,-0.142718 0.75038,0.459617 1.66751,1.338525 0.91713,0.878907 1.59206,1.646995 1.49985,1.706862 -0.0922,0.05987 -0.8426,-0.542472 -1.66752,-1.338528 z m -37.49619,-0.367336 c 0,-0.189351 0.24697,-0.652539 0.54883,-1.029308 0.51749,-0.645926 0.52484,-0.634665 0.12865,0.197228 -0.51447,1.080254 -0.67748,1.280461 -0.67748,0.83208 z m 35.44987,-2.71562 c -0.27051,-1.077784 1.89142,-5.251927 5.69851,-11.002421 4.98692,-7.532563 17.10652,-19.157555 24.80354,-23.791279 3.82633,-2.303512 6.39368,-4.439878 6.39368,-5.320377 0,-0.359024 0.46528,-1.021601 1.03395,-1.472388 1.70906,-1.354768 5.46855,-8.07606 7.61522,-13.614634 0.54588,-1.40842 1.05278,-2.500489 1.12645,-2.426819 0.40422,0.404218 -5.46859,13.194559 -6.42155,13.985448 -0.29195,0.242301 -0.53083,0.6371 -0.53083,0.877333 0,0.24023 -0.51612,0.996114 -1.14694,1.679745 -0.63082,0.683627 -1.78217,2.065403 -2.55857,3.070612 -1.60558,2.078789 -3.58886,3.80511 -5.64648,4.914919 -5.97704,3.223812 -16.57949,12.890288 -22.14384,20.189009 -0.82545,1.082735 -2.16543,2.791121 -2.97774,3.796411 -0.8123,1.005293 -1.58507,2.183912 -1.71726,2.619161 -0.13219,0.435245 -0.59601,1.267777 -1.03072,1.850071 -1.35448,1.814311 -2.2755,3.914137 -2.06682,4.712112 0.10901,0.416856 0.1033,0.757921 -0.0127,0.757921 -0.11599,0 -0.30404,-0.371172 -0.41791,-0.824824 z m -34.02744,-0.05744 c 0,-0.194098 0.15394,-0.591117 0.3421,-0.882264 0.18815,-0.291147 0.34209,-0.37055 0.34209,-0.176452 0,0.194098 -0.15394,0.591116 -0.34209,0.882263 -0.18816,0.291147 -0.3421,0.370551 -0.3421,0.176453 z m 0.70622,-1.785303 c 0.006,-0.18267 0.24439,-0.640396 0.52936,-1.017165 0.28498,-0.376768 0.51309,-0.535576 0.50692,-0.352905 -0.006,0.182671 -0.24439,0.640396 -0.52936,1.017165 -0.28498,0.376769 -0.51309,0.535576 -0.50692,0.352905 z m 11.85165,-0.539744 c -1.44883,-1.139651 -2.69759,-4.203702 -1.71323,-4.203702 0.47276,0 2.23601,1.807454 2.52971,2.593131 0.9621,2.573699 0.80411,2.885333 -0.81648,1.610571 z m -10.20811,-4.094065 c 0.17188,-1.290158 -0.0175,-1.874418 -1.48734,-4.58777 -2.97167,-5.485874 -3.41609,-9.638081 -1.03159,-9.638081 0.17347,0 -0.0375,0.247217 -0.46892,0.549368 -1.36073,0.953088 -1.02733,2.412665 1.55463,6.805935 2.43964,4.151123 2.74598,5.665313 1.56933,7.756923 -0.23088,0.410429 -0.27264,0.138504 -0.13611,-0.886375 z m 6.36019,-9.540182 c 0.57505,-0.462221 0.86536,-1.230796 1.10338,-2.921142 0.27009,-1.918125 0.33013,-2.055423 0.36656,-0.83815 0.073,2.438417 -0.29165,3.542245 -1.31591,3.983758 -0.93442,0.402792 -0.93442,0.402792 -0.15403,-0.224466 z m -4.85416,-2.351087 c -0.88189,-0.647334 -2.07295,-1.431077 -2.6468,-1.741648 -0.57384,-0.310571 -0.86266,-0.571033 -0.64181,-0.578804 0.40893,-0.0144 3.76386,2.146544 4.70299,3.029227 0.8869,0.833601 0.25644,0.517663 -1.41438,-0.708775 z m 12.64075,-0.481829 c -0.63915,-0.728965 -1.78241,-2.911469 -1.5251,-2.911469 0.0981,0 0.50638,0.643008 0.90731,1.42891 0.40094,0.785899 1.0791,1.569871 1.50702,1.742156 0.51698,0.20814 0.58917,0.320756 0.21516,0.335617 -0.30959,0.01232 -0.80656,-0.255542 -1.10439,-0.595214 z m 1.49082,-0.221469 c 0,-0.07328 0.27792,-0.351194 0.61759,-0.617584 0.55973,-0.438969 0.57221,-0.426487 0.13324,0.133243 -0.46102,0.587852 -0.75083,0.774796 -0.75083,0.484341 z m 1.41163,-1.029686 c 0,-0.07097 0.75433,-0.645069 1.6763,-1.275764 1.26876,-0.867931 1.41891,-0.921132 0.61758,-0.218829 -1.06557,0.933893 -2.29388,1.734212 -2.29388,1.494593 z m -9.14768,-1.866174 c 0.0169,-0.411117 0.10056,-0.494738 0.21321,-0.213215 0.10194,0.254752 0.0894,0.559133 -0.0278,0.676403 -0.11727,0.117267 -0.20068,-0.09117 -0.18536,-0.463188 z m 3.39329,-1.04046 c -0.5446,-0.479112 -0.8502,-0.871112 -0.67911,-0.871112 0.17109,0 0.68405,0.397019 1.13992,0.882263 1.0547,1.122677 0.82157,1.117034 -0.46081,-0.01115 z m -3.06825,0.05436 c 0,-0.07328 0.27792,-0.351194 0.61759,-0.617584 0.55973,-0.438969 0.57221,-0.426486 0.13324,0.133243 -0.46103,0.587852 -0.75083,0.774796 -0.75083,0.484341 z m 13.23395,-0.112859 c 1.13655,-1.160459 3.42374,-2.967874 2.64679,-2.091585 -0.48524,0.547289 -1.35868,1.322862 -1.94098,1.723494 -0.58229,0.400629 -0.8999,0.566272 -0.70581,0.368091 z m 6.43148,-5.591898 c 5.67678,-5.492464 6.58146,-6.285092 3.27342,-2.868002 -1.84393,1.904719 -3.98783,3.961063 -4.76422,4.569655 -0.77639,0.608589 -0.10553,-0.157156 1.4908,-1.701653 z m 6.62602,-6.740453 c 1.79679,-1.594448 2.45878,-2.059429 1.76595,-1.240395 -0.38463,0.4547 -1.01873,0.990262 -1.40909,1.190141 -0.39037,0.199879 -0.55096,0.222493 -0.35686,0.05025 z m 2.63627,-2.929729 c 0.20197,-0.377386 0.54165,-0.793956 0.75483,-0.925713 0.21319,-0.131757 0.11467,0.177014 -0.21893,0.686158 -0.70638,1.078076 -1.07217,1.241588 -0.5359,0.239555 z m 2.80741,-3.989838 c 0.83753,-1.116063 1.59297,-2.029206 1.67876,-2.029206 0.24109,0 -2.08066,3.153795 -2.67469,3.633217 -0.28976,0.233856 0.15841,-0.487948 0.99593,-1.604011 z m 3.47666,-4.979671 c 0.91675,-1.428657 1.73109,-2.542212 1.80964,-2.474566 0.16198,0.139502 -3.05921,5.072126 -3.3123,5.072126 -0.0903,0 0.58591,-1.168902 1.50266,-2.59756 z m 23.20311,-2.678495 c -0.29613,-0.572655 -0.53024,-1.247586 -0.52023,-1.499848 0.01,-0.252261 0.26519,0.136871 0.5671,0.864738 0.76981,1.855966 1.66137,1.756223 2.43617,-0.272546 0.33522,-0.877768 0.67924,-1.526196 0.76448,-1.440952 0.0853,0.08525 -0.16696,0.882823 -0.56046,1.772395 -0.86256,1.949949 -1.86546,2.165012 -2.68706,0.576213 z m -21.00693,-1.076241 c 0.20776,-0.388196 0.45714,-0.705811 0.55419,-0.705811 0.097,0 0.006,0.317615 -0.20128,0.705811 -0.20776,0.388196 -0.45715,0.70581 -0.5542,0.70581 -0.0971,0 -0.006,-0.317614 0.20129,-0.70581 z m 1.05872,-1.764527 c 0.20775,-0.388196 0.45714,-0.705811 0.55419,-0.705811 0.097,0 0.006,0.317615 -0.20129,0.705811 -0.20775,0.388196 -0.45714,0.705811 -0.55419,0.705811 -0.097,0 -0.006,-0.317615 0.20129,-0.705811 z m 18.73768,-0.407935 c -0.22045,-0.632377 -0.75494,-1.534799 -1.18775,-2.005382 -0.78693,-0.855606 -0.78693,-0.855606 0.001,-0.375046 0.73586,0.448629 2.07133,3.046127 1.73767,3.379785 -0.0827,0.08273 -0.33079,-0.366981 -0.55123,-0.999357 z M 166.48151,36.56209 c 0,-0.194098 0.15394,-0.591116 0.34209,-0.882263 0.18816,-0.291147 0.3421,-0.370551 0.3421,-0.176453 0,0.194098 -0.15394,0.591117 -0.3421,0.882264 -0.18815,0.291147 -0.34209,0.37055 -0.34209,0.176452 z m 22.93884,0 c 0,-0.194098 0.15395,-0.591116 0.3421,-0.882263 0.18816,-0.291147 0.3421,-0.370551 0.3421,-0.176453 0,0.194098 -0.15394,0.591117 -0.3421,0.882264 -0.18815,0.291147 -0.3421,0.37055 -0.3421,0.176452 z m -22.24384,-1.83895 c 0,-0.202682 0.27791,-0.586466 0.61758,-0.852855 0.57127,-0.448019 0.57876,-0.431409 0.0999,0.221468 -0.28475,0.388196 -0.56266,0.77198 -0.61758,0.852855 -0.0549,0.08087 -0.0999,-0.01879 -0.0999,-0.221468 z m 13.62069,-0.901871 c -3.19097,-1.82556 -2.74688,-2.57798 3.17972,-5.387392 6.39923,-3.033452 8.64478,-2.986909 8.59464,0.17814 -0.0141,0.891966 -0.0141,0.891966 -0.53598,-0.06965 -1.1707,-2.157258 -2.46736,-2.168421 -7.241,-0.06234 -5.33375,2.353197 -6.4136,3.776945 -3.85476,5.082367 0.77639,0.396085 1.41162,0.796332 1.41162,0.889436 0,0.249646 -0.0539,0.22777 -1.55424,-0.630561 z m 9.70666,0.446937 c -0.0131,-0.09705 0.37597,-1.208701 0.86467,-2.470338 0.48871,-1.261636 0.7915,-1.817462 0.67286,-1.235168 -0.20286,0.995673 -1.48582,4.087646 -1.53753,3.705506 z m -21.905,-1.950683 c -0.0166,-0.560276 1.03999,-1.931276 1.48835,-1.931276 0.22019,0 0.15153,0.198509 -0.15259,0.441132 -0.30411,0.242622 -0.72665,0.758746 -0.93898,1.146942 -0.21233,0.388196 -0.39088,0.542637 -0.39678,0.343202 z m 29.15801,-0.519655 c 0.40225,-1.58981 1.22699,-3.531472 0.9909,-2.332857 -0.11047,0.560858 -0.42884,1.513703 -0.70749,2.117432 -0.38109,0.82568 -0.45132,0.879063 -0.28341,0.215425 z m -27.01801,-1.499847 c 0.083,-0.04852 0.78442,-0.644053 1.55867,-1.323396 1.40773,-1.235168 1.40773,-1.235168 0.19155,0.08823 -0.66889,0.727867 -1.37029,1.323395 -1.55866,1.323395 -0.18837,0 -0.27457,-0.0397 -0.19156,-0.08823 z m 28.24884,-2.205659 c -0.011,-0.194098 0.29254,-1.543961 0.67463,-2.999695 0.38209,-1.455735 0.61662,-2.011561 0.52117,-1.235169 -0.17377,1.413561 -1.15801,4.899206 -1.1958,4.234864 z M 173.88171,27.76429 c 0,-0.09705 0.31761,-0.346435 0.70581,-0.554191 0.3882,-0.207756 0.70581,-0.298335 0.70581,-0.201286 0,0.09705 -0.31761,0.346435 -0.70581,0.554191 -0.3882,0.207756 -0.70581,0.298335 -0.70581,0.201286 z m 2.47034,-1.5695 c 1.00396,-0.823475 6.87221,-4.126789 7.94037,-4.469739 0.38819,-0.124637 -0.80286,0.601021 -2.64679,1.612573 -1.84393,1.011553 -3.74962,2.11183 -4.23487,2.445061 -1.39933,0.960957 -2.0246,1.204344 -1.05871,0.412105 z m 23.99756,-5.007282 c 0,-1.424778 -0.50892,-2.317418 -1.68517,-2.955744 -0.52889,-0.287018 -0.75089,-0.528209 -0.49334,-0.53598 0.98331,-0.02967 2.53142,1.9954 2.53142,3.311325 0,0.694273 -0.0794,1.262315 -0.17646,1.262315 -0.097,0 -0.17645,-0.486863 -0.17645,-1.081916 z m -14.82202,0.0232 c 0.29114,-0.188154 0.68816,-0.342097 0.88226,-0.342097 0.1941,0 0.11469,0.153943 -0.17645,0.342097 -0.29115,0.188154 -0.68817,0.342097 -0.88227,0.342097 -0.19409,0 -0.11469,-0.153943 0.17646,-0.342097 z m -21.17433,-0.188185 c 0,-1.439225 3.2847,-5.819249 5.0617,-6.749601 1.40054,-0.733251 1.52831,-0.387286 0.54899,1.486425 -0.97667,1.868652 -5.61069,6.215644 -5.61069,5.263176 z m 4.18797,-4.794127 c 0.45945,-0.578633 0.74449,-1.142935 0.63342,-1.254004 -0.2528,-0.252795 -2.35105,1.8143 -2.35105,2.316135 0,0.583598 0.80723,0.08443 1.71763,-1.062131 z m 18.75088,4.336041 c 0.29115,-0.179888 0.92638,-0.433265 1.41162,-0.56306 0.61317,-0.164013 0.72081,-0.136234 0.35291,0.09108 -0.29115,0.179887 -0.92638,0.433264 -1.41162,0.563059 -0.61317,0.164013 -0.72081,0.136234 -0.35291,-0.09108 z m 4.87451,-1.712236 c 0.25475,-0.101944 0.55913,-0.08941 0.6764,0.02786 0.11727,0.117268 -0.0912,0.200677 -0.46319,0.185353 -0.41111,-0.01693 -0.49473,-0.100557 -0.21321,-0.213214 z m 2.44828,-0.698458 c 0.24262,-0.0979 0.63964,-0.0979 0.88226,0 0.24262,0.0979 0.0441,0.178 -0.44113,0.178 -0.48524,0 -0.68375,-0.0801 -0.44113,-0.178 z m 1.78658,-0.360258 c 0.25475,-0.101944 0.55914,-0.08941 0.67641,0.02786 0.11726,0.117268 -0.0912,0.200677 -0.46319,0.185353 -0.41112,-0.01693 -0.49474,-0.100557 -0.21322,-0.213214 z"
         id="path55" />
      <path
         style="fill:#cec5b9;stroke-width:0.352905"
         d="m 29.124343,206.59784 c 0.254754,-0.10194 0.559135,-0.0894 0.676402,0.0279 0.117268,0.11727 -0.09117,0.20068 -0.463188,0.18535 -0.411115,-0.0169 -0.494738,-0.10055 -0.213214,-0.21321 z m 2.536507,-0.93665 c 0,-0.0903 0.529836,-0.47679 1.177413,-0.85887 0.647577,-0.38208 1.640123,-0.97244 2.205659,-1.3119 1.028245,-0.61722 1.028245,-0.61722 0.145982,0.1129 -1.008423,0.83453 -3.529054,2.30436 -3.529054,2.05787 z m 4.58777,-2.85585 c 0,-0.097 0.317615,-0.34644 0.705811,-0.55419 0.388196,-0.20776 0.705811,-0.29834 0.705811,-0.20129 0,0.097 -0.317615,0.34644 -0.705811,0.55419 -0.388196,0.20776 -0.705811,0.29834 -0.705811,0.20129 z m 3.705506,-2.21944 c 0.396859,-0.40166 5.710109,-4.0701 6.528749,-4.50766 1.080027,-0.57726 -0.218104,0.44102 -2.999695,2.35303 -3.044554,2.09276 -4.111638,2.74426 -3.529054,2.15463 z m 7.23456,-4.83867 c 0,-0.097 0.317615,-0.34643 0.705811,-0.55419 0.388196,-0.20775 0.705811,-0.29833 0.705811,-0.20129 0,0.097 -0.317615,0.34644 -0.705811,0.5542 -0.388196,0.20775 -0.705811,0.29833 -0.705811,0.20128 z m 1.764527,-1.05871 c 0,-0.0971 0.317615,-0.34644 0.705811,-0.55419 0.388196,-0.20776 0.70581,-0.29834 0.70581,-0.20129 0,0.097 -0.317614,0.34644 -0.70581,0.55419 -0.388196,0.20776 -0.705811,0.29834 -0.705811,0.20129 z m 2.64679,-1.72605 c 1.152335,-0.96768 2.999696,-2.13452 2.999696,-1.89469 0,0.14894 -2.50265,1.91384 -3.522363,2.48402 -0.294827,0.16486 -0.05963,-0.10034 0.522667,-0.58933 z m 4.216062,-2.67968 c 0.265437,-0.42949 3.371403,-2.61691 3.371403,-2.37437 0,0.0882 -0.810599,0.74266 -1.801334,1.45443 -0.990733,0.71178 -1.697263,1.12575 -1.570069,0.91994 z m 4.253667,-3.03651 c 0.388196,-0.31608 1.023425,-0.73062 1.411621,-0.9212 0.705811,-0.34651 0.705811,-0.34651 0,0.22817 -0.388196,0.31608 -1.023425,0.73062 -1.411621,0.9212 -0.705811,0.34652 -0.705811,0.34652 0,-0.22817 z m 2.293885,-1.33838 c 0,-0.0822 0.674931,-0.59464 1.499847,-1.13868 0.824917,-0.54404 1.313549,-0.76366 1.085848,-0.48803 -0.437846,0.53001 -2.585695,1.88126 -2.585695,1.62671 z m 3.881958,-2.69999 c 0.485245,-0.40675 1.199879,-0.90449 1.588075,-1.10609 0.481627,-0.25012 0.425579,-0.13165 -0.176453,0.37298 -0.485245,0.40675 -1.199878,0.90449 -1.588074,1.10609 -0.481628,0.25012 -0.425579,0.13165 0.176452,-0.37298 z m -16.399081,-0.47 c -0.151065,-0.34804 -0.175641,-0.73183 -0.05462,-0.85285 0.358372,-0.35838 0.647261,0.14502 0.482316,0.84045 -0.146226,0.6165 -0.165251,0.61705 -0.4277,0.0124 z m 2.334141,-0.84699 c -0.967377,-0.40314 -1.145746,-0.63564 -0.975307,-1.27131 0.114722,-0.42788 0.210755,-1.31393 0.213405,-1.96901 0.0047,-1.14943 0.04402,-1.18321 1.126742,-0.96667 1.163339,0.23267 4.596233,-1.47111 9.465236,-4.6977 1.067539,-0.70743 2.893824,-1.82146 4.058412,-2.47562 1.164587,-0.65416 2.832065,-1.69096 3.705506,-2.304 2.470253,-1.7338 5.646486,-3.72539 5.646486,-3.54051 0,0.0919 -0.674932,0.59779 -1.499848,1.12424 -0.824916,0.52645 -1.754974,1.16792 -2.066797,1.4255 -0.721723,0.59618 -0.464858,2.12008 0.403829,2.3958 0.592356,0.188 1.905993,1.97565 2.525345,3.43659 0.316772,0.7472 1.292484,0.79085 2.638077,0.11801 0.549498,-0.27477 1.396108,-0.66208 1.881353,-0.86071 0.485245,-0.19862 1.596896,-0.79053 2.470337,-1.31535 0.873441,-0.52483 1.429267,-0.78518 1.235169,-0.57855 -0.47764,0.50846 -5.355476,3.47617 -6.844861,4.16446 -0.659107,0.30459 -1.424788,0.78021 -1.701508,1.05693 -0.882172,0.88217 -1.92331,0.0663 -2.989733,-2.34295 -1.024438,-2.31436 -3.441018,0.35353 -3.457061,3.81657 -0.0064,1.37374 -0.483029,1.47023 -1.276977,0.25851 -0.420095,-0.64114 -0.702663,-0.7884 -1.015179,-0.52903 -0.238175,0.19767 -0.813619,0.35102 -1.278763,0.34079 -0.465143,-0.0102 -1.606728,0.0904 -2.53686,0.2237 -1.45421,0.20835 -1.807458,0.13303 -2.521332,-0.53762 -0.943553,-0.88642 -1.497618,-0.47203 -0.728115,0.54457 0.662587,0.87534 0.662552,1.55184 -8.1e-5,1.55184 -0.291147,0 -0.529358,0.16273 -0.529358,0.36164 0,0.1989 -0.357316,0.51613 -0.794037,0.70496 -0.764636,0.33062 -1.162346,0.56163 -3.086408,1.79278 -0.775915,0.49649 -1.028267,0.50529 -2.067672,0.0721 z m 10.888792,-8.56694 c 0,-0.188 -0.238211,-0.25041 -0.529358,-0.13869 -0.291147,0.11173 -0.529358,0.26555 -0.529358,0.34183 0,0.0763 0.238211,0.1387 0.529358,0.1387 0.291147,0 0.529358,-0.15383 0.529358,-0.34184 z m 2.823243,-0.0363 c 0,-0.56225 -0.929051,-1.38641 -1.562866,-1.38641 -0.761785,0 -0.695478,0.29867 0.239471,1.07863 0.906437,0.75618 1.323395,0.85315 1.323395,0.30778 z m 2.823243,8.34332 c 0,-0.097 0.317615,-0.34644 0.705811,-0.55419 0.388196,-0.20776 0.70581,-0.29834 0.70581,-0.20129 0,0.097 -0.317614,0.34644 -0.70581,0.55419 -0.388196,0.20776 -0.705811,0.29834 -0.705811,0.20129 z m 3.705506,-2.43186 c 1.152335,-0.96768 2.999696,-2.13452 2.999696,-1.89469 0,0.14894 -2.50265,1.91384 -3.522363,2.48402 -0.294827,0.16486 -0.05963,-0.10034 0.522667,-0.58933 z m 3.505257,-2.31869 c 0.251784,-0.40739 1.611871,-1.22906 1.611871,-0.97377 0,0.0815 -0.416573,0.42123 -0.925713,0.75483 -0.509144,0.3336 -0.817915,0.43213 -0.686158,0.21894 z m 2.141229,-1.3296 c 0.194098,-0.18476 0.988135,-0.79416 1.764527,-1.35423 0.776392,-0.56008 1.927745,-1.4039 2.558564,-1.87517 0.630818,-0.47127 1.146942,-0.77364 1.146942,-0.67193 0,0.10172 -1.07195,0.9693 -2.382111,1.92795 -2.366192,1.73137 -3.788729,2.64046 -3.087922,1.97338 z m -25.05628,-0.82634 c -0.295396,-0.47796 0.1032,-1.05871 0.726639,-1.05871 0.572366,0 0.595764,0.0678 0.294319,0.85339 -0.243529,0.63463 -0.699017,0.72623 -1.020958,0.20532 z m 32.072614,-4.16727 c 0.476277,-0.77063 10.805386,-7.76906 10.805386,-7.32113 0,0.083 -1.389564,1.05374 -3.087921,2.15714 -1.698357,1.1034 -4.178883,2.79648 -5.512283,3.7624 -1.333397,0.96592 -2.325731,1.59664 -2.205182,1.40159 z m -38.323106,-1.97139 c 0.526301,-0.853 1.019853,-1.49145 1.096781,-1.4188 0.1557,0.14705 -1.64625,2.96969 -1.895825,2.96969 -0.08683,0 0.272743,-0.6979 0.799044,-1.55089 z m 36.776805,1.47011 c 0,-0.0802 1.84115,-1.32555 4.091447,-2.76751 2.250294,-1.44196 4.910318,-3.23241 5.911165,-3.9788 1.819717,-1.35705 1.819717,-1.35705 0.408096,-0.0846 -1.564419,1.41016 -10.410708,7.2146 -10.410708,6.83093 z m -6.705202,-6.42313 c 0,-0.097 0.317615,-0.34644 0.705811,-0.55419 0.388196,-0.20776 0.705811,-0.29834 0.705811,-0.20129 0,0.097 -0.317615,0.34644 -0.705811,0.55419 -0.388196,0.20776 -0.705811,0.29834 -0.705811,0.20129 z m -17.645268,-0.53337 c 0,-0.18264 0.158808,-0.43022 0.352906,-0.55018 0.194098,-0.11996 0.352905,0.0295 0.352905,0.33207 0,0.30261 -0.158807,0.55019 -0.352905,0.55019 -0.194098,0 -0.352906,-0.14943 -0.352906,-0.33208 z m 20.115606,-0.87825 c 0,-0.097 0.317615,-0.34644 0.70581,-0.5542 0.388196,-0.20775 0.705811,-0.29833 0.705811,-0.20128 0,0.097 -0.317615,0.34643 -0.705811,0.55419 -0.388195,0.20775 -0.70581,0.29833 -0.70581,0.20129 z m 17.998173,0.0282 c 0,-0.0816 0.416573,-0.42123 0.925713,-0.75483 0.509144,-0.33361 0.817915,-0.43213 0.686157,-0.21894 -0.251783,0.4074 -1.61187,1.22906 -1.61187,0.97377 z M 50.71774,160.82797 c 0,-0.0733 0.277913,-0.35119 0.617584,-0.61758 0.559729,-0.43897 0.572211,-0.42649 0.133243,0.13324 -0.461025,0.58786 -0.750827,0.77481 -0.750827,0.48435 z m 49.75966,-0.70581 c 0,-0.0733 0.27791,-0.35119 0.61758,-0.61758 0.55973,-0.43897 0.57221,-0.42649 0.13324,0.13324 -0.46102,0.58786 -0.75082,0.7748 -0.75082,0.48435 z m -1.764532,-0.3529 c 0,-0.0733 0.277913,-0.3512 0.617585,-0.61759 0.559729,-0.43897 0.572211,-0.42648 0.133243,0.13325 -0.461025,0.58786 -0.750828,0.7748 -0.750828,0.48434 z M 84.149639,159.1529 c 0.23939,-0.24118 0.52415,-0.34962 0.632806,-0.24096 0.108656,0.10866 -0.08721,0.30599 -0.435249,0.43851 -0.502961,0.19152 -0.543496,0.15098 -0.197557,-0.19755 z m 18.595911,-0.92302 c 1.07276,-1.18728 1.02654,-2.01807 -0.0603,-1.0845 -0.34086,0.29278 -0.85796,0.65332 -1.14911,0.80119 -0.29115,0.14788 -0.0529,-0.13987 0.52936,-0.63944 2.02064,-1.73356 2.77262,-0.75859 0.79404,1.0295 -1.14695,1.03651 -1.14695,1.03651 -0.11396,-0.10675 z m -48.823737,-0.34181 c 0.651965,-1.71479 2.041353,-2.71811 1.640308,-1.18451 -0.103267,0.39489 0.02823,0.7624 0.311746,0.87119 0.655416,0.25151 0.627123,0.91613 -0.039,0.91613 -0.291146,0 -0.529358,-0.17707 -0.529358,-0.39349 0,-0.24107 -0.338852,-0.17147 -0.87475,0.17966 -0.87392,0.57262 -0.874404,0.57225 -0.508946,-0.38898 z m 31.380652,0.83227 c 0,-0.0815 0.416573,-0.42123 0.925713,-0.75483 0.509144,-0.3336 0.817915,-0.43213 0.686157,-0.21894 -0.251784,0.40739 -1.61187,1.22906 -1.61187,0.97377 z m -23.88107,-1.13872 c -1.225803,-1.16904 -2.942589,-1.91398 -4.410979,-1.91398 -1.414042,0 -1.414042,0 -1.168003,-1.45628 0.161291,-0.95467 0.122535,-1.37995 -0.112521,-1.23468 -0.221289,0.13676 -0.280909,-0.0753 -0.15573,-0.55403 0.182403,-0.6975 0.225496,-0.71101 0.427841,-0.13417 0.255066,0.72714 0.59814,0.29337 1.932817,-2.44377 0.378583,-0.7764 0.870568,-1.64984 1.093301,-1.94098 0.711376,-0.92989 0.929648,-1.86479 0.386731,-1.65645 -0.393807,0.15111 -0.411367,0.0273 -0.09223,-0.65042 0.324955,-0.69003 0.429856,-0.73595 0.597176,-0.26139 0.211182,0.59898 1.713839,-2.04839 1.760377,-3.10142 0.01232,-0.2784 0.170873,-0.13566 0.352379,0.31719 0.238451,0.59493 0.183292,1.03283 -0.198823,1.57837 -0.290858,0.41526 -0.528833,1.09818 -0.528833,1.51759 0,0.46579 -0.274701,0.83442 -0.70581,0.94716 -0.541763,0.14167 -0.705811,0.48137 -0.705811,1.46151 0,1.03735 -0.165537,1.33988 -0.882263,1.61238 -1.052675,0.40023 -1.128938,0.90187 -0.211729,1.39274 0.507619,0.27167 0.719284,0.23182 0.871185,-0.16403 0.110361,-0.28759 0.593654,-0.5229 1.073983,-0.5229 1.287872,0 2.101424,-1.28407 1.425215,-2.2495 -0.714107,-1.01953 -0.643381,-1.27955 0.348039,-1.27955 0.712195,0 0.8789,-0.19702 0.97049,-1.14694 0.08383,-0.86947 0.297965,-1.17361 0.885111,-1.25716 0.46832,-0.0666 0.704382,-0.293 0.597102,-0.57256 -0.12796,-0.33346 0.08232,-0.4127 0.754314,-0.28424 1.187865,0.22708 1.48047,0.98389 0.709696,1.83559 -0.789124,0.87197 0.60242,3.14532 1.479651,2.41728 0.410556,-0.34073 0.42132,-0.25876 0.06787,0.51696 -0.420049,0.92191 -0.420049,0.92191 -1.029897,0.16878 -0.609853,-0.75313 -0.609853,-0.75313 -1.077734,0.10797 -0.676372,1.24481 -0.800407,3.96291 -0.135922,2.97854 1.45265,-2.15197 1.422632,-1.74816 -0.08624,1.16015 -2.452113,4.72638 -3.304352,5.69575 -4.230756,4.81224 z m 0.589316,-2.26688 c 0,-0.1941 -0.158807,-0.35291 -0.352905,-0.35291 -0.194098,0 -0.352905,0.15881 -0.352905,0.35291 0,0.1941 0.158807,0.3529 0.352905,0.3529 0.194098,0 0.352905,-0.1588 0.352905,-0.3529 z m -7.763918,-0.35291 c 0.396087,-0.77639 0.79956,-1.41162 0.896609,-1.41162 0.09705,0 -0.147616,0.63523 -0.543703,1.41162 -0.396087,0.77639 -0.79956,1.41162 -0.896609,1.41162 -0.09705,0 0.147617,-0.63523 0.543703,-1.41162 z m 36.702157,0.21966 c 0,-0.0733 0.277913,-0.35119 0.617585,-0.61758 0.559729,-0.43897 0.572211,-0.42649 0.133243,0.13324 -0.461025,0.58786 -0.750828,0.7748 -0.750828,0.48434 z m 8.499137,-4.93608 c 0.08088,-0.0708 0.544063,-0.31773 1.029313,-0.54882 0.83189,-0.39619 0.84315,-0.38884 0.19722,0.12865 -0.56217,0.45039 -1.710832,0.84389 -1.226533,0.42017 z m 2.842253,-1.44902 c 0.095,-0.095 0.95665,-0.57794 1.91487,-1.07329 1.33254,-0.68887 1.53476,-0.73452 0.85995,-0.19416 -0.75909,0.60786 -3.25551,1.74814 -2.77482,1.26745 z m 3.06156,-3.25117 c 0.25475,-0.10194 0.55914,-0.0894 0.6764,0.0278 0.11727,0.11727 -0.0912,0.20068 -0.46318,0.18536 -0.41112,-0.0169 -0.49474,-0.10056 -0.21322,-0.21321 z m -3.0394,-0.88822 c -0.78134,-0.78135 -0.4894,-1.99464 0.61771,-2.56715 1.49623,-0.77373 1.81151,-0.66133 0.45865,0.16352 -1.18193,0.72064 -1.46522,1.66186 -0.72345,2.40363 0.23292,0.23291 0.34408,0.42348 0.24703,0.42348 -0.0971,0 -0.36702,-0.19057 -0.59994,-0.42348 z m -31.479155,-1.92058 c 0,-0.18936 0.24697,-0.65254 0.548828,-1.02931 0.51749,-0.64593 0.524837,-0.63467 0.128648,0.19722 -0.514469,1.08026 -0.677476,1.28047 -0.677476,0.83209 z m 34.231815,-1.5379 c 0.29115,-0.18815 0.68817,-0.34209 0.88227,-0.34209 0.1941,0 0.11469,0.15394 -0.17645,0.34209 -0.29115,0.18816 -0.68817,0.3421 -0.88227,0.3421 -0.1941,0 -0.11469,-0.15394 0.17645,-0.3421 z m -42.701543,-0.4877 c 0,-0.29115 0.158807,-0.6275 0.352905,-0.74746 0.194098,-0.11996 0.352905,0.0201 0.352905,0.31125 0,0.29114 -0.158807,0.6275 -0.352905,0.74746 -0.194098,0.11996 -0.352905,-0.0201 -0.352905,-0.31125 z m 1.417024,-2.22648 c 0.01232,-0.65111 0.689284,-1.37916 0.695005,-0.74747 0.0028,0.32821 -0.153405,0.6949 -0.347503,0.81486 -0.194098,0.11996 -0.350473,0.0896 -0.347502,-0.0674 z m 2.81784,-5.36099 c 0,-0.19409 0.158807,-0.45105 0.352905,-0.57101 0.194098,-0.11996 0.352906,-0.0593 0.352906,0.1348 0,0.1941 -0.158808,0.45105 -0.352906,0.57101 -0.194098,0.11996 -0.352905,0.0593 -0.352905,-0.1348 z m 0.836174,-1.97548 c -0.119656,-0.31182 -0.118534,-0.66597 0.0025,-0.78699 0.121029,-0.12103 0.223583,0.0843 0.227899,0.45634 0.007,0.6012 0.08809,0.57831 0.729495,-0.20586 0.621706,-0.76007 0.669232,-0.77501 0.343161,-0.10788 -0.519582,1.06306 -1.04305,1.32193 -1.303046,0.64439 z m 9.244317,0.0659 c 0.132526,-0.34804 0.329857,-0.54391 0.438513,-0.43525 0.108656,0.10865 2.26e-4,0.39341 -0.240957,0.6328 -0.348536,0.34594 -0.389071,0.30541 -0.197556,-0.19755 z m -7.685785,-2.06442 c -0.08527,-0.25581 0.1942,-0.84174 0.62104,-1.30207 0.426839,-0.46033 0.9574,-1.41628 1.179025,-2.12434 0.435587,-1.39163 1.692668,-3.10504 2.030338,-2.76737 0.11444,0.11444 -0.180659,0.89127 -0.655776,1.72629 -0.475116,0.83503 -1.222915,2.15346 -1.661774,2.92985 -1.021661,1.80744 -1.321377,2.11206 -1.512853,1.53764 z m 41.012653,-0.64894 c 0,-0.38322 2.44294,-1.21018 2.72925,-0.92387 0.1164,0.11639 -0.0133,0.2126 -0.28832,0.2138 -0.27497,0.001 -0.93667,0.22998 -1.47044,0.50843 -0.53377,0.27843 -0.97049,0.36918 -0.97049,0.20164 z M 78.608072,127.2588 c 0,-0.19409 0.153941,-0.59111 0.342096,-0.88226 0.188155,-0.29115 0.342096,-0.37055 0.342096,-0.17645 0,0.1941 -0.153941,0.59111 -0.342096,0.88226 -0.188155,0.29115 -0.342096,0.37055 -0.342096,0.17645 z m 1.047907,-2.29388 c 0.207755,-0.3882 0.457143,-0.70581 0.554192,-0.70581 0.09705,0 0.0065,0.31761 -0.201287,0.70581 -0.207755,0.38819 -0.457143,0.70581 -0.554192,0.70581 -0.09705,0 -0.0065,-0.31762 0.201287,-0.70581 z m -1.235169,0 c -0.119959,-0.1941 -0.04993,-0.35291 0.155625,-0.35291 0.205553,0 0.373733,0.15881 0.373733,0.35291 0,0.1941 -0.07003,0.3529 -0.155624,0.3529 -0.08559,0 -0.253774,-0.1588 -0.373734,-0.3529 z m 1.94098,-2.54739 c 0,-0.93863 0.215816,-1.3948 0.859388,-1.81649 0.859388,-0.56309 0.859388,-0.56309 0.130688,1.10636 -0.944319,2.16343 -0.990076,2.19625 -0.990076,0.71013 z m 38.81959,-5.37215 c 0,-0.27969 0.144,-0.59753 0.31999,-0.7063 0.176,-0.10877 0.23688,0.12006 0.1353,0.50853 -0.21549,0.82403 -0.45529,0.92819 -0.45529,0.19777 z m 24.92996,-8.96452 c -1.47708,-1.63216 -4.40968,-2.68115 -5.73229,-2.05044 -1.6702,0.79646 -2.01562,0.71083 -0.49369,-0.12239 2.04022,-1.11697 4.60036,-0.2423 6.70167,2.28963 0.63165,0.76108 0.22941,0.66232 -0.47569,-0.1168 z m 2.62452,-10.201427 c -0.0231,-0.65647 0.15917,-0.794037 1.05168,-0.794037 0.62983,0 0.98869,0.147014 0.86144,0.352906 -0.11996,0.194098 -0.51312,0.352905 -0.87368,0.352905 -0.36057,0 -0.73568,0.198509 -0.83358,0.441132 -0.0979,0.242622 -0.19054,0.08382 -0.20586,-0.352906 z m -7.74666,-0.978592 c -0.7375,-2.039525 -3.97048,-3.839381 -3.47192,-1.932877 0.26475,1.012391 0.001,0.870258 -0.62255,-0.33538 -0.8905,-1.722029 -0.031,-1.982467 2.27169,-0.68831 1.30147,0.731464 3.13693,3.619528 2.53626,3.99076 -0.15262,0.09432 -0.47369,-0.371063 -0.71348,-1.034193 z m 10.98317,0.647098 c 0.33967,-0.08876 0.8955,-0.08876 1.23517,0 0.33967,0.08877 0.0618,0.161394 -0.61758,0.161394 -0.67935,0 -0.95726,-0.07263 -0.61759,-0.161394 z m -20.02488,-8.575325 c -0.12684,-0.205239 0.0267,-0.255905 0.3728,-0.123065 0.60846,0.233489 0.57616,-0.08777 -0.22409,-2.228519 -0.61939,-1.656905 -2.63332,-3.025243 -2.90763,-1.975547 -0.0888,0.339672 -0.17982,0.10146 -0.20234,-0.529358 -0.0786,-2.202891 2.3555,-0.387642 3.46824,2.58645 0.88683,2.370261 0.53329,3.953239 -0.50698,2.270039 z m -1.44765,-1.150983 c -0.67228,-0.794037 -0.67228,-0.794037 0.12176,-0.121756 0.43672,0.369753 0.79403,0.72707 0.79403,0.794037 0,0.282413 -0.28401,0.07392 -0.91579,-0.672281 z m -8.61265,-5.934364 c 0,-0.400957 -0.16757,-1.075889 -0.37238,-1.499848 -0.3597,-0.744623 -0.35371,-0.747542 0.17646,-0.0858 0.50685,0.632643 0.77745,2.31466 0.37237,2.31466 -0.0971,0 -0.17645,-0.328053 -0.17645,-0.72901 z m 40.05476,-7.034907 c 0.35131,-0.388196 0.71815,-0.705811 0.8152,-0.705811 0.097,0 -0.11098,0.317615 -0.4623,0.705811 -0.35131,0.388196 -0.71815,0.705811 -0.8152,0.705811 -0.097,0 0.11098,-0.317615 0.4623,-0.705811 z m -33.83151,-0.237812 c 0.22016,-0.16035 0.4877,-0.609161 0.59451,-0.997357 0.15314,-0.556531 0.18044,-0.525059 0.12905,0.14881 -0.0358,0.470042 -0.30337,0.918852 -0.59451,0.997356 -0.34977,0.09431 -0.39355,0.04383 -0.12905,-0.148809 z m 35.41958,-1.703167 c 0.45587,-0.485245 0.90825,-0.882264 1.0053,-0.882264 0.097,0 -0.19653,0.397019 -0.65239,0.882264 -0.45587,0.485244 -0.90825,0.882263 -1.0053,0.882263 -0.0971,0 0.19653,-0.397019 0.65239,-0.882263 z m 3.88196,-4.191655 c 0,-0.07328 0.27791,-0.351194 0.61759,-0.617584 0.55972,-0.438969 0.57221,-0.426486 0.13324,0.133243 -0.46103,0.587852 -0.75083,0.774796 -0.75083,0.484341 z m 2.47034,-2.513547 c 0.45586,-0.485245 0.90825,-0.882263 1.0053,-0.882263 0.097,0 -0.19653,0.397018 -0.6524,0.882263 -0.45586,0.485245 -0.90824,0.882263 -1.00529,0.882263 -0.097,0 0.19652,-0.397018 0.65239,-0.882263 z m -24.70338,-0.662601 c 0,-0.07328 0.27792,-0.351194 0.61759,-0.617584 0.55973,-0.438969 0.57221,-0.426486 0.13324,0.133243 -0.46102,0.587852 -0.75083,0.774796 -0.75083,0.484341 z m 26.115,-0.682995 c 0,-0.06074 0.51612,-0.576859 1.14694,-1.146943 1.14694,-1.036514 1.14694,-1.036514 0.11043,0.110428 -0.96618,1.069113 -1.25737,1.309155 -1.25737,1.036515 z m 2.82324,-2.493153 c 0,-0.07328 0.27792,-0.351194 0.61759,-0.617584 0.55973,-0.438969 0.57221,-0.426486 0.13324,0.133243 -0.46103,0.587852 -0.75083,0.774796 -0.75083,0.484341 z m 3.52906,-2.823243 c 0,-0.07328 0.27791,-0.351193 0.61758,-0.617584 0.55973,-0.438968 0.57221,-0.426486 0.13324,0.133243 -0.46102,0.587852 -0.75082,0.774796 -0.75082,0.484341 z m -2.82325,-30.702763 c 0,-0.07328 0.27792,-0.351196 0.61759,-0.617584 0.55973,-0.438969 0.57221,-0.426487 0.13324,0.133241 -0.46102,0.587851 -0.75083,0.774796 -0.75083,0.484343 z m 19.33799,-1.639291 c -0.49454,-0.86433 -0.83884,-1.055652 -1.94098,-1.078571 -1.3273,-0.0276 -1.33061,-0.03122 -0.35418,-0.387362 1.39211,-0.507761 2.66547,-0.100861 2.92541,0.934811 0.34865,1.389149 0.0194,1.6666 -0.63025,0.531122 z M 166.8236,17.376342 c 0,-0.535059 1.45635,-2.179037 1.76264,-1.989736 0.16198,0.100108 0.37494,-0.01749 0.47324,-0.261316 0.0983,-0.243832 0.19054,-0.284523 0.20497,-0.09043 0.0254,0.341771 -1.96218,2.646791 -2.28228,2.646791 -0.0872,0 -0.15857,-0.137391 -0.15857,-0.305313 z m 1.45664,-1.370988 c 0.43897,-0.559727 0.42649,-0.57221 -0.13324,-0.133241 -0.33967,0.266388 -0.61759,0.544301 -0.61759,0.617584 0,0.290453 0.28981,0.103509 0.75083,-0.484343 z"
         id="path53" />
      <path
         style="fill:#c4baaf;stroke-width:0.352905"
         d="m 27.914422,205.97727 c -0.107373,-0.27981 -0.120811,-0.79593 -0.02986,-1.14694 0.110681,-0.42717 0.178899,-0.32468 0.206299,0.30993 0.0343,0.7943 0.227021,0.97122 1.18788,1.09046 1.146943,0.14234 1.146943,0.14234 -0.01108,0.19881 -0.724401,0.0353 -1.23112,-0.13402 -1.353242,-0.45226 z m 2.687712,0.004 c 0,-0.097 0.317615,-0.34644 0.705811,-0.55419 0.388196,-0.20776 0.705811,-0.29834 0.705811,-0.20129 0,0.097 -0.317615,0.34644 -0.705811,0.55419 -0.388196,0.20776 -0.705811,0.29834 -0.705811,0.20129 z m 1.764527,-1.01292 c 0,-0.15203 4.721572,-3.2101 8.381502,-5.42854 0.436721,-0.26472 0.794037,-0.63146 0.794037,-0.815 0,-0.43901 -1.053075,-0.0543 -1.940979,0.70906 -1.148558,0.98746 -9.345418,5.0587 -9.624032,4.78009 -0.140815,-0.14082 0.220105,-0.59515 0.802044,-1.00962 0.581938,-0.41447 1.557502,-1.28778 2.167919,-1.94068 0.610417,-0.65291 1.404454,-1.156 1.764527,-1.11799 1.222642,0.12906 1.536941,-0.011 1.536941,-0.68495 0,-0.49329 0.183599,-0.62475 0.688217,-0.4928 1.08963,0.28495 2.992494,-1.22616 2.417097,-1.91947 -0.388934,-0.46864 -0.350957,-0.51343 0.268568,-0.3168 0.427336,0.13563 1.318634,-0.0595 2.185844,-0.47846 1.76623,-0.85335 2.715291,-0.92292 2.429478,-0.17811 -0.111724,0.29115 -0.06457,0.52936 0.104793,0.52936 0.591467,0 9.056,-5.0538 11.315798,-6.75616 1.554089,-1.17074 10.806234,-7.26841 14.645572,-9.65223 1.164588,-0.72309 2.435047,-1.58912 2.823243,-1.92451 0.902446,-0.7797 3.352601,-2.25019 3.352601,-2.01211 0,0.0996 -1.786584,1.36248 -3.970185,2.80642 -2.183602,1.44394 -6.814913,4.51186 -10.291801,6.8176 -9.487634,6.29182 -10.023521,6.64064 -13.264632,8.63431 -1.649833,1.01484 -4.22846,2.69572 -5.730284,3.73529 -1.501824,1.03957 -4.167481,2.76142 -5.923684,3.82633 -1.756203,1.06492 -3.584481,2.19265 -4.06284,2.50609 -0.478359,0.31343 -0.869744,0.48573 -0.869744,0.38288 z m -4.207003,-1.70372 c -0.01532,-0.31591 0.250052,-0.79233 0.589723,-1.05872 0.536663,-0.42088 0.565992,-0.41498 0.223839,0.045 -0.216561,0.29115 -0.481936,0.76757 -0.589724,1.05871 -0.163935,0.44281 -0.200532,0.43545 -0.223838,-0.045 z m 1.38376,-3.81612 c 0,-0.18264 0.156989,-0.4291 0.348864,-0.54768 0.200047,-0.12364 0.259211,0.018 0.138695,0.33207 -0.234608,0.61138 -0.487559,0.72324 -0.487559,0.21561 z m 1.625465,-2.54482 c 0.367631,-0.51476 0.739001,-0.86767 0.825267,-0.78424 0.08627,0.0834 -0.214523,0.5046 -0.66842,0.93593 -0.825266,0.78423 -0.825266,0.78423 -0.156847,-0.15169 z m 20.809406,-7.04121 c 0.168908,-0.27093 0.349564,-0.765 0.401459,-1.09793 0.05189,-0.33293 0.114994,-0.72995 0.140227,-0.88226 0.279112,-1.6849 -2.440634,-3.7664 -3.577246,-2.73778 -0.357968,0.32396 -0.831422,0.47741 -1.052119,0.34101 -0.220697,-0.1364 -0.78653,0.11394 -1.257407,0.55631 -0.695424,0.65331 -0.856138,0.69667 -0.856138,0.23096 0,-0.31534 0.198509,-0.70034 0.441131,-0.85556 0.610018,-0.39026 1.969854,-2.37404 2.396416,-3.49598 0.368312,-0.96873 -0.633483,-2.54425 -3.278356,-5.15584 -1.059718,-1.04638 -1.24453,-2.08042 -0.48456,-2.71113 0.382056,-0.31708 0.526222,-0.25072 0.672773,0.30969 0.112242,0.42921 0.480745,0.71325 0.925368,0.71325 0.957931,0 0.956387,-0.91747 -0.0024,-1.4306 -0.600779,-0.32152 -0.699375,-0.60812 -0.520254,-1.51226 0.121553,-0.61355 0.264612,-1.36314 0.31791,-1.66573 0.0533,-0.3026 0.44622,-1.11538 0.873159,-1.80618 0.426931,-0.69081 0.776245,-1.34713 0.776245,-1.45851 0,-0.51512 2.91359,-6.2315 3.36863,-6.60915 0.282331,-0.23431 0.513329,-0.94828 0.513329,-1.58661 0,-0.87644 0.2808,-1.3965 1.146942,-2.1242 1.185713,-0.99618 2.829535,-3.66808 3.224246,-5.24073 0.12399,-0.49401 0.620464,-1.48031 1.103274,-2.19177 0.48281,-0.71146 0.877834,-1.51899 0.877834,-1.7945 0,-0.27552 0.147836,-0.40957 0.32852,-0.2979 0.180687,0.11167 0.428272,0.0416 0.550186,-0.15563 0.121915,-0.19726 0.0138,-0.36349 -0.240293,-0.36939 -0.273237,-0.006 -0.198844,-0.16374 0.182092,-0.38525 0.846867,-0.49247 1.005841,-0.28201 0.485302,0.64246 -0.23295,0.41371 -0.815004,1.52004 -1.293455,2.45852 -0.478451,0.93847 -1.139743,2.1087 -1.46954,2.60049 -1.390391,2.07338 -1.254681,3.51714 0.330598,3.51714 1.475811,0 3.191454,0.74305 4.419233,1.91398 0.705062,0.67242 0.721631,0.66743 1.760168,-0.52936 1.048404,-1.20816 1.048404,-1.20816 0.329568,0.027 -2.36328,4.0608 -10.323054,19.34114 -10.323054,19.81712 0,0.16417 0.357317,0.30092 0.794037,0.30389 0.641865,0.004 0.692588,0.0709 0.264679,0.34707 -0.291147,0.18792 -1.045482,0.24722 -1.6763,0.13178 -1.107495,-0.20267 -1.147108,-0.1691 -1.15176,0.97632 -0.0028,0.65242 -0.09868,1.53629 -0.213405,1.96417 -0.3174,1.18378 1.777094,2.00918 3.042979,1.19917 1.924062,-1.23115 2.321772,-1.46216 3.086408,-1.79278 0.436721,-0.18883 0.794037,-0.50606 0.794037,-0.70496 0,-0.19891 0.238211,-0.36164 0.529358,-0.36164 0.662633,0 0.662668,-0.6765 8.1e-5,-1.55184 -0.769503,-1.0166 -0.215438,-1.43099 0.728115,-0.54457 0.713874,0.67065 1.067122,0.74597 2.521332,0.53762 0.930132,-0.13327 2.071717,-0.23393 2.53686,-0.2237 0.465144,0.0102 1.040588,-0.14312 1.278763,-0.34079 0.312516,-0.25937 0.595084,-0.11211 1.015179,0.52903 0.793948,1.21172 1.270611,1.11523 1.276977,-0.25851 0.01606,-3.46304 2.432623,-6.13093 3.457061,-3.81657 1.066423,2.40921 2.107561,3.22512 2.989733,2.34295 0.27672,-0.27672 1.042401,-0.75068 1.701508,-1.05323 2.418658,-1.11026 15.370747,-9.30376 17.608474,-11.13913 2.475847,-2.03069 9.576997,-6.78338 9.800827,-6.55955 0.33408,0.33408 -1.29959,1.85274 -4.004695,3.72278 -2.292875,1.58507 -4.178731,2.5251 -2.464306,1.22837 0.376769,-0.28497 0.505247,-0.51813 0.285507,-0.51813 -0.423642,0 -0.956109,0.66522 -0.965139,1.20576 -0.0028,0.17792 -0.226019,0.39703 -0.49566,0.48691 -0.326801,0.10894 -0.396866,0.0123 -0.210151,-0.28979 0.185035,-0.2994 0.139863,-0.36655 -0.133084,-0.19785 -0.227254,0.14045 -0.331163,0.38809 -0.230906,0.5503 0.100257,0.16222 -0.572085,0.73289 -1.494092,1.26815 -0.922004,0.53526 -3.185045,2.05588 -5.028976,3.37916 -9.437892,6.773 -9.526221,6.83167 -7.587465,5.03982 1.764527,-1.63081 1.764527,-1.63081 -0.21547,-0.5395 -1.088999,0.60022 -3.525432,2.12457 -5.414298,3.38745 -1.888866,1.26288 -3.575405,2.29614 -3.747862,2.29614 -0.525826,0 -4.318722,2.52044 -5.444395,3.61789 -0.582294,0.56769 -1.614542,1.34024 -2.293885,1.71678 -0.679342,0.37654 -1.647083,0.95805 -2.150534,1.29225 -0.503455,0.3342 -1.535703,1.01942 -2.293885,1.52271 -5.314317,3.5277 -8.515313,5.11144 -7.705435,3.81239 z m 3.336198,-4.35094 c -0.433974,-1.14145 -1.954322,-1.92494 -2.559996,-1.31926 -0.317315,0.31731 -0.09115,0.74551 0.965097,1.8272 1.501139,1.53731 2.278389,1.28978 1.594899,-0.50794 z m 1.579097,-1.61169 c -0.11996,-0.1941 -0.526352,-0.3529 -0.903092,-0.3529 -0.376741,0 -0.684983,0.1588 -0.684983,0.3529 0,0.1941 0.406392,0.35291 0.903092,0.35291 0.512193,0 0.808683,-0.15276 0.684983,-0.35291 z m -6.674005,-2.02742 c -0.385514,-0.38551 -0.649868,0.22758 -0.373085,0.86526 0.262449,0.60465 0.281474,0.6041 0.4277,-0.0124 0.08417,-0.35486 0.05959,-0.73865 -0.05461,-0.85286 z m 10.30893,0.89812 c 0.490104,-0.4901 0.570895,-1.69394 0.113678,-1.69394 -0.634662,0 -2.86634,1.07985 -2.86634,1.38695 0,0.72615 2.099367,0.96029 2.752662,0.30699 z m -6.495926,-8.25156 c 0.301445,-0.78555 0.278047,-0.85339 -0.294319,-0.85339 -0.623439,0 -1.022035,0.58075 -0.726639,1.05871 0.321941,0.52091 0.777429,0.42931 1.020958,-0.20532 z m -5.624611,-2.00034 c -0.508518,-1.68313 -1.498783,-1.77923 -1.078492,-0.10466 0.124057,0.49428 0.471446,0.8987 0.771975,0.8987 0.402464,0 0.483215,-0.20919 0.306517,-0.79404 z m 11.485307,-9.6375 c 0,-0.3026 -0.158807,-0.45203 -0.352905,-0.33207 -0.194098,0.11996 -0.352906,0.36754 -0.352906,0.55018 0,0.18265 0.158808,0.33208 0.352906,0.33208 0.194098,0 0.352905,-0.24758 0.352905,-0.55019 z m -8.469729,-1.43244 c 0,-0.29115 -0.158807,-0.43121 -0.352905,-0.31125 -0.194098,0.11996 -0.352905,0.45631 -0.352905,0.74746 0,0.29115 0.158807,0.43121 0.352905,0.31125 0.194098,-0.11996 0.352905,-0.45632 0.352905,-0.74746 z m 48.58064,-1.55785 c 2.55809,-1.93137 2.3924,-2.15423 -0.232606,-0.31289 -1.164587,0.81692 -2.117432,1.54169 -2.117432,1.61062 0,0.34754 0.636246,-0.004 2.350038,-1.29773 z m -46.872761,-1.59325 c 0.613078,-1.34555 0.495613,-1.75874 -0.296257,-1.04211 -0.70105,0.63444 -0.976733,1.94098 -0.409554,1.94098 0.162944,0 0.480558,-0.40449 0.705811,-0.89887 z m 2.17408,-0.20044 c 0,0.21643 0.238212,0.3935 0.529358,0.3935 0.666123,0 0.694416,-0.66463 0.039,-0.91614 -0.283503,-0.10879 -0.415013,-0.47629 -0.311746,-0.87118 0.401045,-1.5336 -0.988343,-0.53029 -1.640308,1.18451 -0.365458,0.96122 -0.364974,0.96159 0.508946,0.38898 0.535898,-0.35113 0.87475,-0.42073 0.87475,-0.17967 z m -10.159388,30.73209 c -0.503909,-0.80688 -0.553073,-1.40036 -0.116008,-1.40036 0.265843,0 0.81672,1.8056 0.614203,2.01316 -0.03873,0.0397 -0.26292,-0.23606 -0.498195,-0.6128 z m -5.367128,-7.24407 c -7.41e-4,-0.20552 0.231841,-0.68195 0.516815,-1.05872 0.284974,-0.37676 0.541607,-1.00265 0.570296,-1.39084 0.0401,-0.54265 0.08774,-0.57202 0.206081,-0.12702 0.08466,0.31833 -0.171383,1.11237 -0.568976,1.76452 -0.397593,0.65216 -0.723491,1.01759 -0.724216,0.81206 z m 5.645166,-3.33182 c 0,-0.1941 0.158808,-0.35291 0.352906,-0.35291 0.194098,0 0.352905,0.15881 0.352905,0.35291 0,0.19409 -0.158807,0.3529 -0.352905,0.3529 -0.194098,0 -0.352906,-0.15881 -0.352906,-0.3529 z m -1.870571,-0.47314 c -0.352925,-0.9197 0.361043,-1.54021 1.017303,-0.88412 0.6193,0.61913 0.420815,1.35726 -0.364971,1.35726 -0.258925,0 -0.552475,-0.21292 -0.652332,-0.47314 z m -1.60276,-0.93849 c 0,-0.48524 0.0801,-0.68375 0.178,-0.44113 0.0979,0.24262 0.0979,0.63964 0,0.88227 -0.0979,0.24262 -0.178,0.0441 -0.178,-0.44114 z m 13.89962,-0.37811 c 0.228933,-0.37042 2.984115,-1.84786 2.984115,-1.60021 0,0.0844 -0.718395,0.55497 -1.596434,1.04572 -0.878043,0.49075 -1.502495,0.74026 -1.387681,0.55449 z m 20.982288,-0.47932 c 0,-0.097 0.317615,-0.34643 0.705811,-0.55419 0.388196,-0.20775 0.705811,-0.29833 0.705811,-0.20128 0,0.097 -0.317615,0.34643 -0.705811,0.55419 -0.388196,0.20775 -0.705811,0.29833 -0.705811,0.20128 z m -33.820693,-1.08355 c 0.517267,-0.58229 1.011764,-1.45573 1.098883,-1.94097 0.158399,-0.88227 0.158399,-0.88227 0.206458,0.0222 0.03246,0.61096 -0.324128,1.24082 -1.098883,1.94098 -1.146942,1.03652 -1.146942,1.03652 -0.206458,-0.0222 z m 16.175425,-0.32807 c 0,-0.097 0.317615,-0.34643 0.705811,-0.55419 0.388196,-0.20775 0.705811,-0.29833 0.705811,-0.20129 0,0.097 -0.317615,0.34644 -0.705811,0.5542 -0.388196,0.20775 -0.705811,0.29833 -0.705811,0.20128 z m 3.529054,-2.09905 c 0,-0.0733 0.277913,-0.3512 0.617584,-0.61759 0.559729,-0.43897 0.572212,-0.42648 0.133243,0.13325 -0.461025,0.58785 -0.750827,0.77479 -0.750827,0.48434 z m -17.998173,-1.41162 c 0,-0.0733 0.277913,-0.3512 0.617584,-0.61759 0.559728,-0.43897 0.57221,-0.42649 0.133241,0.13324 -0.461024,0.58786 -0.750825,0.7748 -0.750825,0.48435 z m 22.056585,-1.18159 c 0.194097,-0.18521 0.988135,-0.69343 1.764526,-1.12939 0.776392,-0.43595 1.094007,-0.52867 0.705811,-0.20603 -0.788472,0.65531 -3.024159,1.86388 -2.470337,1.33542 z m 17.82172,-11.17555 c 0,-0.0763 0.246459,-0.23327 0.547688,-0.34887 0.314058,-0.12051 0.455714,-0.0614 0.332077,0.1387 -0.207247,0.33533 -0.879765,0.49599 -0.879765,0.21017 z m -23.291753,-3.39036 c 0,-0.1941 0.158807,-0.35291 0.352905,-0.35291 0.194098,0 0.352905,0.15881 0.352905,0.35291 0,0.1941 -0.158807,0.3529 -0.352905,0.3529 -0.194098,0 -0.352905,-0.1588 -0.352905,-0.3529 z m -1.411622,-10.58716 c 0,-0.60125 0.171551,-1.0206 0.397019,-0.97049 0.21836,0.0485 0.477174,-0.13239 0.57514,-0.40203 0.119194,-0.32806 0.01705,-0.40697 -0.308792,-0.23851 -0.267802,0.13846 -0.180892,0.004 0.193134,-0.30013 1.015567,-0.82417 1.077258,-0.4258 0.211133,1.36338 -0.9146,1.88931 -1.067634,1.96783 -1.067634,0.54778 z m 41.642831,-1.3908 c 0,-0.37674 0.13587,-0.76895 0.30193,-0.87158 0.16606,-0.10263 0.22695,0.20561 0.13531,0.68498 -0.19905,1.04124 -0.43724,1.14289 -0.43724,0.1866 z m -33.799287,-12.7252 c 0.04865,-0.94876 0.52128,-1.76452 1.0223,-1.76452 0.516007,0 0.333979,0.83045 -0.386774,1.76452 -0.680772,0.88227 -0.680772,0.88227 -0.635526,0 z m 0.802637,-0.70581 c 0.11996,-0.19409 0.04993,-0.3529 -0.155624,-0.3529 -0.205553,0 -0.373734,0.15881 -0.373734,0.3529 0,0.1941 0.07003,0.35291 0.155624,0.35291 0.08559,0 0.253775,-0.15881 0.373734,-0.35291 z m 41.53696,0.28233 c -0.23292,-0.23292 -0.40506,-0.74904 -0.38255,-1.14694 0.0401,-0.70879 0.0445,-0.70915 0.21443,-0.0177 0.0954,0.3882 0.33465,0.90432 0.53163,1.14694 0.45685,0.56272 0.1943,0.57546 -0.36351,0.0177 z m -30.773346,-4.14346 c 0,-0.18264 0.15699,-0.4291 0.348864,-0.54768 0.200048,-0.12364 0.259209,0.018 0.138696,0.33207 -0.234608,0.61138 -0.48756,0.72324 -0.48756,0.21561 z m 5.09542,-1.50761 c -0.684103,-0.8071 -0.684103,-0.8071 0.0495,-0.18952 0.829448,0.69828 1.417092,0.78773 1.680864,0.25586 0.09866,-0.19895 0.138441,-0.15925 0.08839,0.0882 -0.155751,0.77011 -1.103238,0.68958 -1.818747,-0.15457 z m -0.804836,-1.68936 c 0,-0.48525 0.0801,-0.68376 0.178002,-0.44114 0.0979,0.24263 0.0979,0.63965 0,0.88227 -0.0979,0.24262 -0.178002,0.0441 -0.178002,-0.44113 z m 36.293532,0.21966 c 0,-0.0733 0.27791,-0.35119 0.61758,-0.61759 0.55973,-0.43896 0.57222,-0.42648 0.13325,0.13325 -0.46103,0.58785 -0.75083,0.77479 -0.75083,0.48434 z m 1.31676,-2.30881 c -0.1535,-0.587 -0.10757,-0.72479 0.15431,-0.46291 0.20507,0.20508 0.30342,0.58118 0.21856,0.83578 -0.0881,0.2643 -0.24808,0.10433 -0.37287,-0.37287 z m -0.61095,-5.1022 c 0,-0.0733 0.27791,-0.3512 0.61758,-0.61759 0.55973,-0.43897 0.57222,-0.42648 0.13325,0.13325 -0.46103,0.58785 -0.75083,0.77479 -0.75083,0.48434 z m 28.1442,-5.04116 c 0.24263,-0.0979 0.63964,-0.0979 0.88227,0 0.24262,0.0979 0.0441,0.178 -0.44114,0.178 -0.48524,0 -0.68375,-0.0801 -0.44113,-0.178 z m -5.7172,-3.67571 c -1.18301,-0.97858 -2.49281,-1.75803 -2.9997,-1.78511 -0.83912,-0.0448 -0.84582,-0.0584 -0.0994,-0.20183 0.80797,-0.15523 3.41347,1.49012 4.81886,3.04306 1.00436,1.1098 0.5938,0.85767 -1.7198,-1.05612 z m 4.42167,-5.82487 c 0.0169,-0.41112 0.10056,-0.49474 0.21321,-0.21321 0.10194,0.25475 0.0894,0.55913 -0.0278,0.6764 -0.11727,0.11727 -0.20068,-0.0912 -0.18536,-0.46319 z m -7.70355,-3.242148 c 0.51804,-1.596297 -3.04397,-4.928154 -4.89108,-4.575054 -0.54707,0.104576 -0.82134,0.01959 -0.73659,-0.228253 0.36973,-1.081291 4.08707,0.644173 5.10511,2.369622 0.95294,1.615114 1.27981,2.705546 0.81102,2.705546 -0.20718,0 -0.33699,-0.122339 -0.28846,-0.271861 z m 6.76246,-0.43395 c 0.0225,-0.321839 0.41798,-0.546209 1.00884,-0.572346 0.85005,-0.0376 0.86346,-0.02386 0.10697,0.109567 -0.47567,0.0839 -0.92965,0.341461 -1.00883,0.572345 -0.0792,0.230885 -0.12733,0.181581 -0.10698,-0.109566 z m 5.43483,0.111832 c 0.25475,-0.101944 0.55913,-0.08941 0.6764,0.02784 0.11727,0.117267 -0.0912,0.200676 -0.46319,0.185353 -0.41111,-0.01694 -0.49474,-0.100557 -0.21321,-0.213211 z m -2.8453,-0.345554 c 0.24262,-0.0979 0.63964,-0.0979 0.88226,0 0.24262,0.0979 0.0441,0.178002 -0.44113,0.178002 -0.48525,0 -0.68375,-0.0801 -0.44113,-0.178002 z m -13.17926,-0.913221 c -0.67228,-0.794037 -0.67228,-0.794037 0.12176,-0.121755 0.43672,0.369753 0.79404,0.727069 0.79404,0.794037 0,0.282412 -0.28402,0.07392 -0.9158,-0.672282 z m -7.30893,-12.451065 c -1.22412,-1.076926 -1.56502,-1.091853 -1.76047,-0.07707 -0.0947,0.491537 -0.17125,0.289869 -0.201,-0.529358 -0.0606,-1.669465 0.18789,-1.657882 1.89292,0.08823 1.54172,1.578863 1.57696,1.845243 0.0686,0.518206 z m 29.92841,-7.576313 c 0.35131,-0.388196 0.71815,-0.70581 0.8152,-0.70581 0.097,0 -0.11098,0.317614 -0.4623,0.70581 -0.35131,0.388196 -0.71815,0.705811 -0.8152,0.705811 -0.097,0 0.11098,-0.317615 0.4623,-0.705811 z m -31.47928,-4.940674 c 0,-1.067539 0.0662,-1.50426 0.14702,-0.97049 0.0809,0.533769 0.0809,1.40721 0,1.940979 -0.0809,0.53377 -0.14702,0.09705 -0.14702,-0.970489 z m 36.06705,-0.352906 c 1.15243,-1.164587 2.17474,-2.117432 2.27179,-2.117432 0.097,0 -0.76645,0.952845 -1.91889,2.117432 -1.15244,1.164588 -2.17474,2.117432 -2.27179,2.117432 -0.097,0 0.76645,-0.952844 1.91889,-2.117432 z m 3.3526,-3.705506 c 0.45586,-0.485245 0.90824,-0.882263 1.00529,-0.882263 0.097,0 -0.19652,0.397018 -0.65239,0.882263 -0.45586,0.485245 -0.90825,0.882263 -1.00529,0.882263 -0.097,0 0.19652,-0.397018 0.65239,-0.882263 z m -18.17463,-6.175843 c 0.35131,-0.388196 0.71816,-0.705811 0.81521,-0.705811 0.097,0 -0.11099,0.317615 -0.4623,0.705811 -0.35132,0.388195 -0.71816,0.70581 -0.81521,0.70581 -0.097,0 0.11099,-0.317615 0.4623,-0.70581 z m 24.87983,0.219662 c 0,-0.07328 0.27791,-0.351194 0.61758,-0.617584 0.55973,-0.438969 0.57221,-0.426486 0.13325,0.133243 -0.46103,0.587852 -0.75083,0.774796 -0.75083,0.484341 z m 5.3493,-29.863711 c 0,-0.485245 0.0801,-0.683754 0.178,-0.441132 0.0979,0.242623 0.0979,0.639641 0,0.882264 -0.0979,0.242622 -0.178,0.04411 -0.178,-0.441132 z M 171.76428,29.9001 c 0,-0.07328 0.27791,-0.351196 0.61758,-0.617584 0.55973,-0.438969 0.57221,-0.426486 0.13324,0.133241 -0.46102,0.587852 -0.75082,0.774796 -0.75082,0.484343 z m 21.0531,-3.124914 c -0.17197,-0.685211 -0.56669,-1.05303 -1.38311,-1.288857 -1.11173,-0.32113 -1.11658,-0.330862 -0.18011,-0.361834 1.02331,-0.03384 2.23758,1.308462 1.95379,2.159812 -0.0825,0.247351 -0.2582,0.01825 -0.39057,-0.509121 z M 168.05877,15.917128 c 0.35131,-0.388196 0.71816,-0.705811 0.81521,-0.705811 0.097,0 -0.11099,0.317615 -0.4623,0.705811 -0.35132,0.388196 -0.71816,0.70581 -0.81521,0.70581 -0.0971,0 0.11099,-0.317614 0.4623,-0.70581 z"
         id="path51" />
      <path
         style="fill:#afa9a3;stroke-width:0.352905"
         d="m 28.131797,205.02482 c 0,-0.60956 0.306754,-1.76091 0.681676,-2.55857 0.374922,-0.79765 0.767369,-1.85672 0.872105,-2.3535 0.104736,-0.49677 0.578763,-1.44961 1.053393,-2.11743 0.47463,-0.66781 1.349034,-2.21687 1.943119,-3.44235 0.594086,-1.22548 1.38323,-2.65475 1.753654,-3.17615 0.370423,-0.5214 1.419325,-2.37727 2.330892,-4.12415 0.911567,-1.74688 1.857041,-3.41436 2.101053,-3.7055 0.804057,-0.95938 2.321606,-3.95905 2.321606,-4.58901 0,-0.33998 0.238211,-0.81585 0.529358,-1.05748 0.291147,-0.24163 0.529358,-0.78719 0.529358,-1.21235 0,-0.42517 0.476422,-1.22947 1.058716,-1.78735 0.675101,-0.64678 1.058716,-1.36687 1.058716,-1.98732 0,-0.53516 0.383509,-1.41859 0.852241,-1.96318 0.929183,-1.07956 1.553174,-0.95251 0.940879,0.19157 -0.585565,1.09414 -0.455481,2.10643 0.324312,2.52377 0.929829,0.49762 0.908437,1.41162 -0.03304,1.41162 -0.444623,0 -0.813126,-0.28404 -0.925368,-0.71325 -0.146551,-0.56041 -0.290717,-0.62677 -0.672773,-0.30969 -0.75997,0.63071 -0.575158,1.66475 0.48456,2.71113 2.644873,2.61159 3.646668,4.18711 3.278356,5.15584 -0.426562,1.12194 -1.786398,3.10572 -2.396416,3.49598 -0.242622,0.15522 -0.441131,0.54022 -0.441131,0.85556 0,0.46571 0.160714,0.42235 0.856138,-0.23096 0.470877,-0.44237 1.03671,-0.69271 1.257407,-0.55631 0.220697,0.1364 0.694151,-0.017 1.052119,-0.34101 1.136612,-1.02862 3.856358,1.05288 3.577246,2.73778 -0.02523,0.15231 -0.08834,0.54933 -0.140227,0.88226 -0.0519,0.33293 -0.232551,0.827 -0.401459,1.09793 -0.809878,1.29905 2.391118,-0.28469 7.705435,-3.81239 0.758182,-0.50329 1.79043,-1.18851 2.293885,-1.52271 0.503451,-0.3342 1.471192,-0.91571 2.150534,-1.29225 0.679343,-0.37654 1.711591,-1.14909 2.293885,-1.71678 1.125673,-1.09745 4.918569,-3.61789 5.444395,-3.61789 0.172457,0 1.858996,-1.03326 3.747862,-2.29614 1.888866,-1.26288 4.325299,-2.78434 5.414298,-3.38103 1.979997,-1.0849 1.979997,-1.0849 0.261076,0.44338 -0.945405,0.84056 -3.104177,2.40172 -4.797265,3.46926 -1.693091,1.06754 -4.254535,2.71513 -5.692095,3.6613 -1.43756,0.94618 -4.122414,2.70486 -5.966345,3.90819 -4.943057,3.22577 -8.179524,5.39253 -9.175539,6.14286 -2.259798,1.70236 -10.724331,6.75616 -11.315798,6.75616 -0.16936,0 -0.216517,-0.23821 -0.104793,-0.52936 0.285813,-0.74481 -0.663248,-0.67524 -2.429478,0.17811 -0.86721,0.41899 -1.758508,0.61409 -2.185844,0.47846 -0.619525,-0.19663 -0.657502,-0.15184 -0.268568,0.3168 0.575397,0.69331 -1.327467,2.20442 -2.417097,1.91947 -0.504618,-0.13195 -0.688217,-4.9e-4 -0.688217,0.4928 0,0.67394 -0.314299,0.81401 -1.536941,0.68495 -0.360073,-0.038 -1.15411,0.46508 -1.764527,1.11799 -0.610417,0.6529 -1.585981,1.52621 -2.167919,1.94068 -0.581939,0.41447 -0.942859,0.8688 -0.802044,1.00962 0.278614,0.27861 8.475474,-3.79263 9.624032,-4.78009 0.887904,-0.76337 1.940979,-1.14807 1.940979,-0.70906 0,0.18354 -0.357316,0.54959 -0.794037,0.81345 -0.43672,0.26387 -2.971262,1.8556 -5.632314,3.53719 -5.507742,3.48049 -6.984052,3.89251 -6.984052,1.94915 z m 17.396511,-16.62521 c -0.175157,-0.9118 -0.809959,-1.39208 -0.809959,-0.61279 0,0.36314 0.796858,1.78779 0.925967,1.65546 0.03873,-0.0397 -0.01347,-0.5089 -0.116008,-1.04267 z m 0.601662,-10.14602 c 0,-0.1941 -0.158807,-0.35291 -0.352905,-0.35291 -0.194098,0 -0.352906,0.15881 -0.352906,0.35291 0,0.19409 0.158808,0.3529 0.352906,0.3529 0.194098,0 0.352905,-0.15881 0.352905,-0.3529 z m -1.214239,-0.38677 c 0.131471,-0.21273 -0.02371,-0.64945 -0.34484,-0.97049 -0.65626,-0.65609 -1.370228,-0.0356 -1.017303,0.88412 0.219097,0.57096 1.030839,0.62242 1.362143,0.0864 z m 8.803857,8.15288 c -1.056242,-1.08169 -1.282412,-1.50989 -0.965097,-1.8272 1.009182,-1.00919 3.354647,1.43518 2.62617,2.7369 -0.219416,0.39207 -0.585936,0.19135 -1.661073,-0.9097 z m 1.585921,-2.11963 c 0,-0.1941 0.308242,-0.3529 0.684983,-0.3529 0.37674,0 0.783132,0.1588 0.903092,0.3529 0.1237,0.20015 -0.17279,0.35291 -0.684983,0.35291 -0.4967,0 -0.903092,-0.15881 -0.903092,-0.35291 z m 2.91147,-0.93953 c -0.777673,-0.3138 -0.475329,-0.80123 0.837133,-1.34962 1.64161,-0.6859 1.897883,-0.67225 1.897883,0.10114 0,1.21156 -1.326208,1.81694 -2.735016,1.24848 z m -5.028902,-6.06356 c 0,-0.46614 6.014524,-12.06482 9.361535,-18.05319 0.813634,-1.45573 2.872791,-5.26711 4.575898,-8.46973 1.703107,-3.20261 3.578651,-6.69638 4.167876,-7.76391 2.045224,-3.7055 9.11822,-18.10485 9.837653,-20.0277 0.785348,-2.09903 1.723893,-3.26406 2.629526,-3.26406 0.583765,0 0.575511,0.37778 -0.06957,3.18401 -0.239295,1.041 1.029054,2.91512 1.857965,2.74535 0.285762,-0.0585 1.146604,-1.61509 1.912987,-3.45902 0.766384,-1.84393 1.617965,-3.8567 1.892402,-4.47282 0.345918,-0.77659 1.266514,-1.5762 3.001121,-2.60672 1.37618,-0.81757 2.660529,-1.78244 2.854112,-2.14415 0.733856,-1.37122 1.385852,-0.76747 1.385852,1.28332 0,3.49791 2.541099,2.83949 3.729006,-0.96621 0.84653,-2.71204 1.06056,-2.3481 0.25805,0.4388 -1.069315,3.71345 -4.047992,4.37243 -4.27107,0.9449 -0.11323,-1.73973 -0.392424,-2.00914 -1.143834,-1.10375 -0.250556,0.3019 -1.528218,1.18617 -2.83925,1.96504 -2.3837,1.41613 -2.3837,1.41613 -4.137477,5.89161 -1.654332,4.22171 -1.808795,4.47549 -2.724133,4.47549 -1.694613,0 -2.499876,-1.52093 -1.985378,-3.74986 0.74619,-3.23268 -0.365688,-2.63672 -1.891308,1.01372 -1.433728,3.43055 -7.259084,15.04964 -12.589267,25.11018 -4.743941,8.95403 -5.153851,9.72647 -11.176453,21.06103 -3.325392,6.2584 -3.905544,7.55975 -3.37019,7.55975 0.458244,0 5.334719,-2.87606 13.203065,-7.78695 17.634878,-11.00649 27.012406,-16.6344 32.733245,-19.64481 4.53504,-2.38642 4.7243,-2.61406 2.72269,-3.27466 -3.665204,-1.20962 -2.71113,-3.45814 2.32244,-5.47339 5.06601,-2.02824 7.63269,-6.34376 5.23407,-8.80038 -2.86949,-2.93889 -2.19132,-3.74885 4.7632,-5.6888 3.00364,-0.83786 6.53338,-4.66745 5.0613,-5.49127 -0.59584,-0.33345 -2.01857,-2.88956 -2.01857,-3.62661 0,-0.57712 3.06472,-2.57815 8.29327,-5.41488 2.13508,-1.15838 5.77803,-3.17021 8.09544,-4.47073 5.8708,-3.29467 5.35753,-3.3109 9.89574,0.31285 5.61135,4.48066 7.14762,4.03803 4.41382,-1.2717 -1.90184,-3.69386 -2.89927,-6.47851 -2.95257,-8.243016 -0.0485,-1.605564 0.76532,-1.779218 4.53722,-0.968185 3.14788,0.676862 4.0512,-0.806692 1.66084,-2.72764 -2.66644,-2.142817 -2.92748,-3.971929 -1.03383,-7.24424 7.67821,-13.268313 17.78585,-24.153728 28.84851,-31.068371 5.61009,-3.506556 6.7052,-4.372205 6.7052,-5.300236 0,-0.769083 1.19534,-2.274528 1.806,-2.274528 1.00674,0 6.54798,-11.034827 8.59492,-17.115909 4.4403,-13.191377 3.34155,-14.371716 -9.18978,-9.872199 -5.07083,1.82074 -12.81784,6.118314 -15.34224,8.510946 -0.68752,0.65164 -1.44908,1.1848 -1.69234,1.1848 -0.24326,0 -0.83209,0.3898 -1.30851,0.866222 -0.47642,0.476422 -0.86623,0.72616 -0.86623,0.554972 0,-0.414299 1.74753,-1.774099 2.27996,-1.774099 0.23114,0 0.80525,-0.412933 1.27581,-0.917628 4.23646,-4.543842 22.85558,-12.537886 25.93469,-11.134954 2.43419,1.109093 2.3375,3.237883 -0.54746,12.052582 -2.54212,7.76721 -6.53269,15.801054 -9.01832,18.155766 -0.62562,0.592665 -1.23194,1.487619 -1.34738,1.988784 -0.2047,0.888619 -1.93581,2.192378 -8.16659,6.150547 -4.96098,3.151515 -15.06425,12.422028 -19.03405,17.465165 -3.16661,4.022793 -4.55294,5.94144 -5.35488,7.411012 -0.47663,0.873441 -1.33803,2.302708 -1.91422,3.176149 -3.17391,4.811334 -3.20889,6.407568 -0.19848,9.057199 2.80103,2.46534 1.24982,4.078315 -3.20265,3.330166 -3.28969,-0.552766 -3.63554,-0.330263 -2.81721,1.812494 0.32096,0.840412 0.58356,1.799201 0.58356,2.130641 0,0.33143 0.79403,2.12961 1.76452,3.99594 1.84055,3.53952 2.04596,4.30725 1.34104,5.01216 -1.16617,1.16618 -2.40001,0.57001 -7.86978,-3.80247 -2.25809,-1.80508 -2.5178,-1.7873 -6.5288,0.44697 -19.21879,10.70559 -18.22725,9.89174 -15.70434,12.89005 1.16361,1.38287 1.13594,1.55118 -0.61749,3.75699 -1.72225,2.16658 -2.00328,2.32827 -6.12262,3.52251 -4.61548,1.33807 -4.92064,1.86153 -2.57876,4.42351 1.44465,1.58043 1.44465,1.58043 -0.0533,4.63642 -1.64651,3.35915 -1.15632,2.98293 -7.47899,5.73999 -1.97603,0.86167 -2.2776,1.27759 -1.80995,2.49626 0.27133,0.70708 2.34332,1.60379 3.7058,1.60379 1.81001,0 1.10232,0.56408 -3.96149,3.15758 -2.737414,1.402 -6.429686,3.4278 -8.205054,4.50178 -1.775368,1.07397 -4.736611,2.8635 -6.580542,3.97672 -6.128946,3.70019 -11.085099,6.76515 -13.911487,8.60304 -3.40247,2.2125 -8.926638,5.61867 -12.732867,7.85101 -1.552784,0.9107 -3.387606,2.02991 -4.077381,2.48713 -1.234215,0.81811 -2.804274,1.11677 -2.804274,0.53343 z m -5.858597,-4.48277 c -0.420291,-1.67457 0.569974,-1.57847 1.078492,0.10466 0.176698,0.58485 0.09595,0.79404 -0.306517,0.79404 -0.300529,0 -0.647918,-0.40442 -0.771975,-0.8987 z m 3.38826,-10.52907 c 0,-0.29115 0.158807,-0.6275 0.352905,-0.74746 0.194098,-0.11996 0.352905,0.0201 0.352905,0.31125 0,0.29114 -0.158807,0.6275 -0.352905,0.74746 -0.194098,0.11996 -0.352905,-0.0201 -0.352905,-0.31125 z m 45.877696,0.0452 c 0.291147,-0.28228 1.64101,-1.26521 2.999696,-2.18429 1.744158,-1.17983 2.107248,-1.3452 1.235168,-0.56258 -1.25372,1.12511 -5.206783,3.6892 -4.234864,2.74687 z m -44.466075,-3.38472 c 0,-0.35811 0.317615,-0.93855 0.705811,-1.28986 0.79187,-0.71663 0.909335,-0.30344 0.296257,1.04211 -0.478751,1.05075 -1.002068,1.18013 -1.002068,0.24775 z m 6.352297,-11.34766 c 0,-0.1941 0.16818,-0.35291 0.373733,-0.35291 0.205554,0 0.275584,0.15881 0.155625,0.35291 -0.11996,0.19409 -0.28814,0.3529 -0.373734,0.3529 -0.08559,0 -0.155624,-0.15881 -0.155624,-0.3529 z m 1.764526,-3.4874 c 0,-0.1941 0.158808,-0.45106 0.352906,-0.57102 0.194098,-0.11996 0.352905,-0.0593 0.352905,0.1348 0,0.1941 -0.158807,0.45105 -0.352905,0.57101 -0.194098,0.11996 -0.352906,0.0593 -0.352906,-0.13479 z m 7.636297,-13.62851 c 0.111726,-0.29115 0.364396,-0.52936 0.561494,-0.52936 0.206559,0 0.17226,0.22424 -0.08097,0.52936 -0.241631,0.29114 -0.494304,0.52935 -0.561494,0.52935 -0.06719,0 -0.03077,-0.23821 0.08097,-0.52935 z M 101.21476,110.2109 c -0.0174,-0.25372 0.14439,-1.16003 0.35942,-2.01402 0.65297,-2.59318 5.25551,-6.38113 5.25551,-4.32535 0,0.2146 -0.20214,0.1906 -0.5039,-0.0598 -1.03806,-0.86152 -3.81882,2.29691 -4.64023,5.27044 -0.24158,0.87455 -0.45344,1.38249 -0.4708,1.12877 z m 6.16277,-4.28249 c -0.34115,-0.37696 -0.53711,-0.89309 -0.43546,-1.14694 0.12344,-0.3083 0.19406,-0.26314 0.21267,0.13602 0.0153,0.32866 0.38081,0.84479 0.81219,1.14694 0.43138,0.30215 0.61481,0.54937 0.4076,0.54937 -0.2072,0 -0.65585,-0.30842 -0.997,-0.68539 z m 1.95804,0.11937 c 0.8494,-1.00613 2.09561,-3.49997 8.12724,-16.263668 0.75111,-1.589457 1.36566,-3.106068 1.36566,-3.370246 0,-0.264174 0.1354,-0.631185 0.30088,-0.815578 0.42435,-0.472837 1.28955,-3.757317 1.15739,-4.393672 -0.0605,-0.291147 -1.11708,-2.117432 -2.34801,-4.058411 -4.47506,-7.056399 -3.24324,-8.792828 3.12353,-4.403066 5.21805,3.597743 6.0411,3.364744 6.20419,-1.756347 0.0841,-2.641207 0.44791,-3.89839 1.12809,-3.89839 0.20114,0 0.0948,0.270936 -0.23638,0.602078 -0.51201,0.512009 -0.57297,1.08992 -0.40752,3.863153 0.22089,3.7024 0.0999,3.931365 -2.04051,3.86294 -1.12454,-0.03595 -2.11613,-0.528543 -4.87575,-2.422123 -3.60235,-2.471845 -4.05458,-2.657497 -4.75857,-1.953508 -0.74977,0.749772 -0.46934,1.489656 2.05472,5.421251 3.42374,5.332957 3.4255,5.268298 -0.36351,13.388604 -5.70397,12.224273 -7.89448,16.516103 -8.53324,16.719013 -0.31776,0.10094 -0.28582,-0.0629 0.10179,-0.52203 z m 28.57535,-7.801548 c -2.62526,-1.310719 -5.1989,-4.961415 -4.20109,-5.959224 1.02852,-1.028525 4.62705,0.719797 6.11762,2.972204 1.90736,2.8822 0.92866,4.407545 -1.91653,2.98702 z m 2.2545,-0.851543 c -0.77061,-2.427972 -2.79188,-4.259201 -5.07257,-4.595647 -1.25751,-0.185501 -1.24489,0.448324 0.0468,2.347887 1.69509,2.492926 5.66751,4.269558 5.02582,2.24776 z M 129.89764,89.70299 c -2.91159,-1.775188 -5.27944,-8.039212 -3.18952,-8.437717 1.59977,-0.30504 5.39097,5.63429 5.10725,8.001053 -0.13871,1.15707 -0.57369,1.256117 -1.91773,0.436664 z m 1.27477,-0.999135 c -0.0156,-1.948183 -3.08153,-6.793428 -4.29874,-6.793428 -1.19584,0 0.24711,4.503213 2.0068,6.262905 1.74744,1.747446 2.30269,1.875967 2.29194,0.530523 z m 1.14111,-17.617974 c -0.52629,-0.906956 -1.47483,-2.195096 -2.10785,-2.862535 -0.63302,-0.667443 -0.89794,-1.116444 -0.58872,-0.997783 0.30922,0.11866 0.62163,0.215745 0.69425,0.215745 0.0726,0 0.78126,1.111652 1.57477,2.470337 1.4572,2.49508 2.4304,3.10964 3.08161,1.945998 0.16139,-0.288387 1.00302,-0.993658 1.87029,-1.56727 3.57149,-2.362186 5.88145,-4.022987 7.06733,-5.081209 0.69058,-0.616251 0.40587,-0.287279 -0.6327,0.73105 -1.03857,1.01833 -2.36915,2.100158 -2.95684,2.404062 -1.20803,0.624695 -5.12502,3.544246 -5.44096,4.055451 -0.52287,0.846013 -1.64053,0.272668 -2.56118,-1.313846 z m 18.40923,-12.37898 c 3.14837,-3.200058 6.15216,-6.666841 7.79725,-8.999087 1.47179,-2.086553 2.76998,-3.793732 2.88489,-3.793732 0.11489,0 -0.18003,0.516124 -0.6554,1.146942 -0.47536,0.630819 -1.75725,2.417402 -2.84865,3.970185 -1.78622,2.541342 -11.46495,12.881045 -12.05762,12.881045 -0.13296,0 2.06283,-2.342409 4.87953,-5.205353 z m 11.78627,-14.645572 c 0.55709,-0.824916 1.60475,-2.571798 2.32811,-3.881959 0.72336,-1.310161 1.39461,-2.382111 1.49166,-2.382111 0.23257,0 -2.17823,4.355925 -3.46687,6.26407 -0.55709,0.824916 -1.0923,1.499848 -1.18935,1.499848 -0.097,0 0.27935,-0.674932 0.83645,-1.499848 z m 23.41394,-2.339644 c -0.36484,-0.364839 -0.93866,-1.516193 -1.27515,-2.558564 -0.89068,-2.759068 -1.33613,-3.306466 -3.82198,-4.696631 -2.25738,-1.262399 -3.23788,-2.505888 -2.82477,-3.582432 0.18908,-0.492734 7.96732,-4.454179 11.84953,-6.03494 2.48912,-1.013526 4.80941,0.844021 3.78166,3.027482 -0.23858,0.506865 -0.71674,1.795014 -1.06259,2.862552 -2.95254,9.113797 -5.04991,12.579327 -6.6467,10.982533 z m 1.65933,0.0038 c 0.51646,-0.327452 2.68928,-5.672008 4.57296,-11.248245 1.18228,-3.499896 1.20178,-3.643901 0.61458,-4.540087 -0.95053,-1.450688 -1.50038,-1.288377 -11.03598,3.257744 -4.24363,2.023164 -4.32638,3.030997 -0.41981,5.113177 2.30672,1.229467 2.51882,1.497159 3.54149,4.469588 0.93524,2.718331 1.73133,3.578962 2.72676,2.947823 z m -20.91245,-4.737452 c 0.13252,-0.348043 0.32986,-0.543905 0.43851,-0.43525 0.10866,0.108655 2.3e-4,0.393417 -0.24096,0.632805 -0.34853,0.345941 -0.38907,0.305405 -0.19755,-0.197555 z m 1.43763,-2.896249 c 0.81594,-1.393422 0.83356,-1.414152 0.83356,-0.980177 0,0.204944 -0.32704,0.747536 -0.72675,1.20576 -0.72676,0.833133 -0.72676,0.833133 -0.10681,-0.225583 z"
         id="path49" />
      <path
         style="fill:#535051;stroke-width:0.352905"
         d="m 54.246793,176.07564 c 0,-0.22737 1.609888,-3.44322 3.577529,-7.14633 6.022602,-11.33456 6.432512,-12.107 11.176453,-21.06103 5.330183,-10.06054 11.155539,-21.67963 12.589267,-25.11018 1.52562,-3.65044 2.637498,-4.2464 1.891308,-1.01372 -0.514498,2.22893 0.290765,3.74986 1.985378,3.74986 0.915338,0 1.069801,-0.25378 2.724133,-4.47549 1.753777,-4.47548 1.753777,-4.47548 4.137477,-5.89161 1.311032,-0.77887 2.588694,-1.66314 2.83925,-1.96504 0.75141,-0.90539 1.030604,-0.63598 1.143834,1.10375 0.09751,1.49823 0.205454,1.67868 1.155119,1.93107 1.789262,0.47553 2.369219,-0.24707 3.473979,-4.32845 1.37308,-5.07264 1.52674,-5.4001 3.30204,-7.03651 1.6223,-1.49539 2.58713,-1.49321 2.58713,0.006 0,0.86387 1.21673,1.85381 2.10929,1.71614 0.81564,-0.1258 1.85105,-1.94047 5.50323,-9.645027 7.62061,-16.07625 7.37352,-14.706494 3.68832,-20.446711 -2.52406,-3.931595 -2.80449,-4.671478 -2.05472,-5.42125 0.70399,-0.70399 1.15622,-0.518337 4.75857,1.953507 2.75962,1.893581 3.75121,2.386173 4.87575,2.422124 2.14045,0.06842 2.2614,-0.160541 2.04051,-3.862941 -0.34286,-5.746947 1.1629,-5.912629 4.49912,-0.495045 1.00112,1.62569 2.10822,2.177221 2.64075,1.315568 0.30379,-0.491552 3.94907,-3.209833 5.26015,-3.92249 7.1354,-3.878557 24.99888,-25.214606 27.22261,-32.514551 0.13179,-0.432644 0.44324,-1.024846 0.6921,-1.315993 0.24886,-0.291147 0.69824,-1.124531 0.99863,-1.851964 0.33799,-0.818461 0.92309,-1.482354 1.535,-1.741699 0.54385,-0.230502 1.54465,-0.922824 2.22399,-1.538495 2.66996,-2.419713 10.38578,-6.671212 15.32736,-8.445547 12.53133,-4.499517 13.63008,-3.319178 9.18978,9.872199 -2.04694,6.081082 -7.58818,17.115909 -8.59492,17.115909 -0.61066,0 -1.806,1.505445 -1.806,2.274528 0,0.928031 -1.09511,1.79368 -6.7052,5.300236 -11.06266,6.914643 -21.1703,17.800058 -28.84851,31.068371 -1.89365,3.272311 -1.63261,5.101423 1.03383,7.24424 2.39036,1.920948 1.48704,3.404502 -1.66084,2.72764 -3.7719,-0.811033 -4.58571,-0.637379 -4.53722,0.968185 0.0533,1.764506 1.05073,4.549156 2.95257,8.243016 2.7338,5.30973 1.19753,5.75236 -4.41382,1.2717 -4.53821,-3.62375 -4.02494,-3.60752 -9.89574,-0.31285 -2.31741,1.30052 -5.96036,3.31235 -8.09544,4.47073 -5.22855,2.83673 -8.29327,4.83776 -8.29327,5.41488 0,0.73705 1.42273,3.29316 2.01857,3.62661 1.47208,0.82382 -2.05766,4.65341 -5.0613,5.49127 -6.95452,1.93995 -7.63269,2.74991 -4.7632,5.6888 2.39862,2.45662 -0.16806,6.77214 -5.23407,8.80038 -5.03357,2.01525 -5.987642,4.26377 -2.32244,5.47339 2.00161,0.6606 1.81235,0.88824 -2.72269,3.27466 -5.720837,3.01041 -15.098365,8.63832 -32.733243,19.64481 -11.393338,7.11094 -13.410404,8.22 -13.410404,7.37353 z m 2.012602,-1.07816 c 0.879906,-0.38586 9.606814,-5.69257 16.632306,-10.11387 1.423243,-0.89567 4.837602,-3.0065 7.587465,-4.69073 2.749863,-1.68422 5.873192,-3.60855 6.940731,-4.27629 4.45296,-2.78531 8.48346,-5.16049 11.469424,-6.75894 4.310789,-2.30765 4.170469,-2.13 2.780339,-3.52013 -2.063687,-2.06369 -1.46616,-4.06155 1.52714,-5.10607 4.52669,-1.5796 5.34299,-2.14257 6.6352,-4.57609 1.46112,-2.75165 1.47461,-2.8848 0.40228,-3.97248 -3.04493,-3.08852 -2.22531,-4.72423 3.17965,-6.34564 3.77209,-1.13157 6.01343,-2.68498 5.13765,-3.56076 -0.69475,-0.69475 -0.49408,-1.0883 0.46177,-0.90558 0.48988,0.0936 0.97567,0.0327 1.07954,-0.13531 0.10388,-0.16807 0.0293,-0.30558 -0.16562,-0.30558 -0.19496,0 -0.59358,-0.43672 -0.88583,-0.97049 -0.29225,-0.53376 -0.71808,-1.31609 -0.94631,-1.7385 -0.83569,-1.54673 3.89973,-6.46654 6.22418,-6.46654 0.14601,0 0.75689,-0.36153 1.35751,-0.80339 0.60061,-0.44187 1.96547,-1.18959 3.033,-1.66161 1.06754,-0.47202 2.338,-1.11853 2.82325,-1.43667 5.3203,-3.48821 9.82147,-5.14471 10.84802,-3.99222 0.92131,1.03434 1.36346,1.05712 1.61811,0.0834 0.13902,-0.53165 0.39527,-0.70052 0.8733,-0.57551 1.3622,0.35622 2.59274,-1.22689 1.33022,-1.71136 -0.2779,-0.10664 -0.49208,-0.45897 -0.47595,-0.78296 0.0161,-0.32399 -0.15547,-1.248521 -0.38133,-2.054522 -0.70111,-2.501996 0.70675,-4.541581 2.84035,-4.114862 1.89736,0.379472 2.63771,-1.595418 1.28433,-3.425963 -0.71964,-0.973369 -0.73057,-1.077508 -0.17718,-1.689001 0.32437,-0.358418 0.9534,-1.354158 1.39785,-2.212755 6.21374,-12.00379 17.43584,-24.427173 28.4845,-31.533638 7.1122,-4.57455 7.41101,-4.818715 7.41101,-6.055694 0,-0.880954 0.28328,-1.386187 1.20438,-2.148064 2.45426,-2.03001 1.92988,-4.348782 -0.98345,-4.348782 -1.28887,0 -1.96629,-0.759556 -2.83801,-3.182122 -0.45279,-1.258351 -1.12113,-2.448759 -1.4852,-2.645352 -0.36407,-0.196592 -1.27968,-0.950927 -2.0347,-1.6763 -0.75502,-0.725373 -1.50736,-1.318859 -1.67187,-1.318859 -1.56058,0 -2.19913,-3.923892 -0.90695,-5.573216 0.24401,-0.31145 0.23148,-0.581933 -0.0395,-0.852913 -0.50678,-0.506773 -3.12884,0.611844 -3.63024,1.548721 -0.18914,0.353399 -0.55706,0.642543 -0.81761,0.642543 -0.26055,0 -0.65555,0.219073 -0.87776,0.486828 -0.22222,0.267755 -0.88393,0.582807 -1.47047,0.700114 -0.81262,0.162524 -1.19705,0.529605 -1.6153,1.542378 -0.30188,0.731 -0.75249,1.567303 -1.00135,1.85845 -0.24886,0.291147 -0.57335,0.926376 -0.7211,1.411621 -0.34965,1.148339 -4.17245,7.883568 -5.39517,9.505513 -1.7592,2.333597 -2.49818,3.365422 -4.43945,6.198775 -3.63562,5.306299 -14.25672,15.089223 -20.93203,19.280151 -0.62221,0.390638 -1.22586,1.008211 -1.34145,1.372385 -0.56297,1.773794 -2.53656,1.10165 -3.92712,-1.337458 -2.91297,-5.109498 -3.74944,-4.42189 -2.77112,2.277979 0.53126,3.638214 -2.81735,3.7363 -8.04487,0.235649 -5.21476,-3.492101 -5.73911,-3.098107 -2.60073,1.954181 4.03828,6.500983 3.89138,5.608115 1.74811,10.625384 -1.07156,2.508455 -6.36809,13.68984 -8.50582,17.956439 -1.84898,3.6903 -4.00184,4.14624 -5.07273,1.07432 -0.46581,-1.33624 -0.5765,-1.31383 -2.30708,0.46726 -1.29743,1.33529 -1.55792,1.90641 -2.37419,5.20535 -1.20725,4.879 -1.52699,5.61245 -2.559757,5.87166 -1.628726,0.40879 -3.008053,-0.28001 -3.429986,-1.71282 -0.38351,-1.30235 -0.38351,-1.30235 -2.82018,0.18848 -2.79524,1.71021 -2.623954,1.47423 -4.273041,5.88694 -1.769037,4.73368 -1.866153,4.93584 -2.48528,5.17342 -1.338598,0.51367 -3.421375,-1.47348 -3.421375,-3.26429 0,-1.31325 -0.339364,-0.78226 -2.38864,3.73736 -2.184901,4.81874 -4.976054,10.24119 -14.986482,29.11469 -8.854438,16.694 -10.36217,19.58624 -10.210364,19.58624 0.06264,0 0.558077,-0.19479 1.10098,-0.43286 z M 139.02235,99.389927 c -5.06905,-1.582886 -8.69459,-9.153687 -3.88646,-8.115655 3.37386,0.728383 6.98434,4.570075 6.98434,7.431601 0,0.391005 -1.08966,1.261107 -1.47665,1.179117 -0.0613,-0.01299 -0.79084,-0.235762 -1.62123,-0.495063 z m 1.78972,-1.734826 c -0.0971,-1.35438 -1.62345,-3.606086 -3.02906,-4.468456 -3.14852,-1.931694 -5.06422,-1.486116 -3.92572,0.913097 1.72573,3.636718 7.15972,6.414628 6.95478,3.555359 z m -10.51912,-7.08905 c -3.89488,-1.684011 -6.93387,-10.067246 -3.64946,-10.067246 0.36876,0 1.39578,0.668555 2.28226,1.485679 4.00244,3.689329 5.03448,10.167178 1.3672,8.581567 z m 1.52242,-1.299725 c 0.28372,-2.366763 -3.50748,-8.306093 -5.10725,-8.001053 -2.08992,0.398505 0.27793,6.662529 3.18952,8.437717 1.34404,0.819453 1.77902,0.720406 1.91773,-0.436664 z m 52.72294,-44.155981 c -2.96454,-3.597842 -4.17282,-6.06963 -2.53978,-5.195654 0.3882,0.207756 0.7067,0.650064 0.70779,0.982906 0.002,0.644758 2.94523,3.957769 3.51591,3.957769 0.18658,0 0.50364,0.307174 0.70456,0.682611 1.15123,2.151095 -0.50852,1.853935 -2.38848,-0.427632 z m -33.18684,49.64513 c -0.8313,-0.582265 -1.36383,-0.476612 -0.95248,0.188971 0.12794,0.20701 0.5762,0.376384 0.99613,0.376384 0.7635,0 0.7635,0 -0.0436,-0.565355 z m 36.60398,-52.848628 c 0.48056,-0.579034 3.73789,-8.462708 4.61421,-11.167695 0.34585,-1.067538 0.82401,-2.355687 1.06259,-2.862552 1.02775,-2.183461 -1.29254,-4.041008 -3.78166,-3.027482 -3.88221,1.580761 -11.66045,5.542206 -11.84953,6.03494 -0.41311,1.076544 0.56739,2.320033 2.82477,3.582432 2.48585,1.390165 2.9313,1.937563 3.82198,4.696631 0.89425,2.770159 2.31062,3.945057 3.30764,2.743726 z m 7.45349,-16.814997 c 0,-1.202835 -1.10039,-2.116615 -2.54887,-2.116615 -1.28494,0 -1.25023,0.128512 0.51966,1.923782 1.6531,1.676804 2.02921,1.712545 2.02921,0.192833 z m -5.09636,-1.576034 c 0.57551,-0.435288 0.5932,-0.519929 0.11066,-0.529358 -0.3159,-0.0062 -0.77206,0.226988 -1.01369,0.518135 -0.56309,0.678477 0.0114,0.685618 0.90303,0.01122 z"
         id="path47" />
      <path
         style="fill:#413b3b;stroke-width:0.352905"
         d="m 56.463064,172.69533 c 0.780189,-1.50426 4.787761,-9.08732 8.905715,-16.85123 10.010428,-18.8735 12.801581,-24.29595 14.986482,-29.11469 2.049276,-4.51962 2.38864,-5.05061 2.38864,-3.73736 0,1.79989 2.083807,3.77757 3.434256,3.25935 0.556271,-0.21346 0.844086,-0.7906 2.104191,-4.21943 0.343158,-0.93376 0.704046,-1.61762 0.801971,-1.51969 0.295212,0.2952 -1.723569,5.10254 -2.399707,5.71444 -0.898067,0.81274 -2.575408,0.34957 -3.709237,-1.02424 -0.611246,-0.74062 -0.843387,-0.88084 -0.685483,-0.41405 0.539161,1.59385 0.623746,2.64679 0.212615,2.64679 -0.229816,0 -0.333877,0.13586 -0.231249,0.30191 0.102625,0.16606 -0.602635,1.147 -1.567249,2.17986 -0.96461,1.03287 -1.753841,1.98927 -1.753841,2.12532 0,0.13606 -0.264294,0.86231 -0.587326,1.61388 -0.323028,0.75157 -0.613995,1.6047 -0.646593,1.89585 -0.03261,0.29115 -0.562341,1.06228 -1.177204,1.71362 -0.71139,0.7536 -1.11793,1.5464 -1.11793,2.18008 0,0.67188 -0.330334,1.26244 -1.015482,1.81543 -1.226268,0.98975 -2.021572,2.25938 -5.155711,8.23063 -1.324393,2.52327 -3.203685,6.01704 -4.176204,7.76392 -2.752739,4.9446 -9.086731,17.20921 -8.955418,17.34052 0.06482,0.0648 1.536239,-0.7403 3.269816,-1.78918 1.733574,-1.04887 4.343009,-2.61983 5.798743,-3.49102 3.38588,-2.02631 7.06205,-4.4099 9.528445,-6.17815 1.067539,-0.76536 2.847046,-1.88006 3.95446,-2.47712 3.082099,-1.66168 3.478764,-1.95588 3.292286,-2.44184 -0.295167,-0.76919 1.174596,-1.93414 2.135829,-1.69288 0.584048,0.14659 0.85168,0.0646 0.85168,-0.26081 0,-0.64228 1.339792,-1.79705 2.713793,-2.33903 0.619144,-0.24422 1.838217,-1.18307 2.70905,-2.08632 0.870836,-0.90325 2.071441,-2.08898 2.668017,-2.63495 0.596573,-0.54597 1.08468,-1.34795 1.08468,-1.78217 0,-0.90103 0.608984,-1.63648 1.355072,-1.63648 0.279451,0 0.706929,-0.27191 0.949943,-0.60426 0.356893,-0.48808 0.542465,-0.52076 0.96514,-0.16997 0.927149,0.76947 2.755346,-1.30045 2.806776,-3.17788 0.0229,-0.83486 0.25827,-1.77447 0.52312,-2.08804 0.28779,-0.34073 0.44132,-1.18544 0.38157,-2.09943 -0.1,-1.52931 -0.1,-1.52931 1.44862,-1.8019 1.95264,-0.34373 2.0367,-0.43918 1.54171,-1.75055 -0.44528,-1.17968 0.25271,-2.11448 2.49047,-3.33542 1.10666,-0.6038 1.09987,-1.43918 -0.0104,-1.27984 -0.82235,0.11802 -1.37909,-3.39131 -0.73453,-4.63004 0.23277,-0.44732 0.15977,-1.08513 -0.23792,-2.07906 -0.33277,-0.8317 -0.484,-1.84208 -0.36013,-2.40609 0.33251,-1.5139 -0.68183,-3.62786 -1.6008,-3.33619 -0.40143,0.12741 -0.94711,0.0514 -1.21262,-0.16899 -0.37723,-0.31307 -0.533,-0.24231 -0.71266,0.32375 -0.29638,0.93381 -0.88816,0.93792 -0.88816,0.006 0,-0.60074 -0.11166,-0.65847 -0.68261,-0.35291 -0.375432,0.20093 -1.129767,0.35278 -1.676298,0.33746 -1.039733,-0.0291 -0.904016,-0.12832 0.637937,-0.46614 1.107271,-0.24259 1.391861,-0.87791 2.624191,-5.85829 0.81628,-3.29895 1.07677,-3.87007 2.37419,-5.20536 1.73059,-1.78109 1.84127,-1.8035 2.30709,-0.46726 1.07088,3.07193 3.22374,2.61598 5.07273,-1.07432 2.13772,-4.266598 7.43425,-15.447984 8.50581,-17.956439 2.14328,-5.017269 2.29017,-4.124401 -1.74811,-10.625383 -3.13838,-5.052288 -2.61403,-5.446282 2.60073,-1.954182 5.22753,3.500652 8.57613,3.402566 8.04488,-0.235649 -0.97833,-6.699869 -0.14186,-7.387476 2.77111,-2.277979 1.29244,2.266993 2.485,2.900452 3.51721,1.868246 0.45853,-0.458534 0.8703,-0.07309 3.46603,3.244442 1.62013,2.070637 3.94035,4.777255 5.15605,6.014703 1.2157,1.237452 2.73779,3.072705 3.38241,4.078344 0.64462,1.005643 1.4385,2.048019 1.76417,2.316393 0.46228,0.380958 0.50163,0.596999 0.17941,0.985245 -0.32365,0.389971 -0.24842,0.719503 0.34855,1.526961 1.34805,1.823321 0.60324,3.796951 -1.28999,3.418305 -2.1336,-0.426719 -3.54146,1.612865 -2.84035,4.114862 0.22586,0.806 0.39746,1.730531 0.38133,2.054521 -0.0161,0.32399 0.19805,0.67632 0.47595,0.78296 1.26252,0.48447 0.032,2.06759 -1.33022,1.71136 -0.47803,-0.12501 -0.73427,0.0439 -0.8733,0.57551 -0.25465,0.97376 -0.69679,0.95098 -1.61811,-0.0834 -1.02654,-1.15249 -5.52772,0.50401 -10.84802,3.99222 -0.48525,0.31815 -1.7557,0.96465 -2.82324,1.43667 -1.06754,0.47202 -2.4324,1.21974 -3.03301,1.66161 -0.60062,0.44186 -1.2115,0.80339 -1.35751,0.80339 -2.32445,0 -7.05986,4.91981 -6.22417,6.46654 0.22822,0.42241 0.65406,1.20474 0.9463,1.73851 0.29225,0.53376 0.69087,0.97048 0.88584,0.97048 0.19496,0 0.26949,0.13751 0.16561,0.30558 -0.10387,0.16807 -0.58966,0.22896 -1.07954,0.13531 -0.95584,-0.18272 -1.15652,0.21083 -0.46177,0.90558 0.87578,0.87578 -1.36555,2.42919 -5.13765,3.56076 -5.40496,1.62141 -6.22458,3.25712 -3.17964,6.34564 1.07232,1.08768 1.05884,1.22084 -0.40229,3.97248 -1.29221,2.43352 -2.1085,2.99649 -6.6352,4.57609 -2.9933,1.04452 -3.590824,3.04238 -1.52713,5.10607 1.39013,1.39013 1.53045,1.21248 -2.780346,3.52014 -2.985964,1.59844 -7.016464,3.97362 -11.469424,6.75893 -1.067539,0.66774 -4.190868,2.59207 -6.940731,4.2763 -2.749863,1.68422 -6.164223,3.79505 -7.587465,4.69073 -10.641505,6.69693 -17.114541,10.54671 -17.733279,10.54671 -0.06263,0 0.524456,-1.23075 1.304649,-2.73501 z m 46.539136,-58.4043 c -0.40414,-0.40414 -1.21637,-0.0129 -0.93119,0.44856 0.10644,0.17222 0.43732,0.21956 0.73529,0.10521 0.35385,-0.13578 0.4218,-0.32787 0.1959,-0.55377 z m 1.89607,-2.75201 c 0.12521,-0.2026 0.0324,-0.60363 -0.20623,-0.89117 -0.44437,-0.53543 -1.74431,0.18099 -1.74431,0.96132 0,0.42888 1.67945,0.36847 1.95054,-0.0702 z m 6.65789,-2.30729 c 0.33609,-0.87584 0.25545,-1.20631 -0.29432,-1.20631 -0.65363,0 -1.02033,0.59708 -0.76899,1.25207 0.25925,0.6756 0.79535,0.65252 1.06331,-0.0458 z m 1.72666,-1.77768 c 0.12015,-0.12015 -0.011,-0.44789 -0.29138,-0.72831 -0.65778,-0.65778 -1.38085,-0.26417 -0.77643,0.42265 0.48823,0.55479 0.74514,0.62833 1.06781,0.30566 z m 6.09701,-1.58166 c 0.13206,-0.21367 -0.095,-0.72362 -0.50461,-1.13322 -0.88207,-0.88207 -1.66993,-0.40663 -1.29319,0.78039 0.24882,0.78397 1.39261,1.00845 1.7978,0.35283 z m 22.05779,-6.329111 c 1.67323,-0.895487 -0.94616,-5.895718 -3.86133,-7.371004 -4.16989,-2.110268 -6.08057,-0.319781 -3.56321,3.339067 1.5877,2.307645 3.81568,3.777277 6.6305,4.373648 0.0613,0.01299 0.4186,-0.140785 0.79404,-0.341711 z m -8.95756,-10.936558 c -0.51769,-4.371082 -5.28964,-9.574813 -6.94797,-7.576645 -0.95408,1.149593 0.55144,5.757901 2.57823,7.891828 2.59054,2.727482 4.71197,2.574466 4.36974,-0.315183 z M 89.948086,117.55387 c 0.165125,-0.50633 1.447367,-1.4533 4.221818,-3.1179 1.279973,-0.76795 1.279973,-0.76795 1.638063,0.64281 0.196949,0.77592 0.21649,1.32325 0.04342,1.21629 -0.173068,-0.10697 -0.314668,-0.50272 -0.314668,-0.87946 0,-0.37674 -0.158807,-0.68499 -0.352905,-0.68499 -0.194098,0 -0.313204,0.19851 -0.264679,0.44114 0.0542,0.27097 -0.230165,0.40656 -0.737212,0.3515 -1.070299,-0.11622 -2.948408,0.99059 -2.714637,1.59979 0.100395,0.26162 0.01895,0.36832 -0.184933,0.24231 -0.200376,-0.12384 -0.621403,-0.013 -0.935612,0.24635 -0.484105,0.39956 -0.544942,0.39073 -0.398656,-0.0578 z M 150.39899,94.944446 c -0.41135,-0.665583 0.12118,-0.771236 0.95248,-0.188971 0.80715,0.565355 0.80715,0.565355 0.0436,0.565355 -0.41993,0 -0.86819,-0.169374 -0.99613,-0.376384 z m -0.16194,-7.642526 c 0,-0.204942 0.32704,-0.747534 0.72676,-1.205761 0.72675,-0.833131 0.72675,-0.833131 0.10681,0.225585 -0.81594,1.393422 -0.83357,1.414151 -0.83357,0.980176 z m 2.11743,-3.626967 c 0.20776,-0.388195 0.45715,-0.70581 0.55419,-0.70581 0.097,0 0.006,0.317615 -0.20128,0.70581 -0.20776,0.388196 -0.45715,0.705811 -0.55419,0.705811 -0.097,0 -0.006,-0.317615 0.20128,-0.705811 z m 1.05872,-1.764526 c 0.20775,-0.388196 0.45714,-0.705811 0.55419,-0.705811 0.097,0 0.006,0.317615 -0.20129,0.705811 -0.20775,0.388196 -0.45714,0.70581 -0.55419,0.70581 -0.097,0 -0.006,-0.317614 0.20129,-0.70581 z m 1.63408,-2.823243 c 0.6922,-1.326455 5.42229,-7.256613 7.89436,-9.897216 0.29115,-0.310994 1.10694,-1.188988 1.81287,-1.95109 2.51505,-2.715176 5.00424,-4.939983 10.39004,-9.286475 0.20931,-0.168925 1.00335,-0.721656 1.76452,-1.228291 0.76118,-0.506634 1.70157,-1.135197 2.08977,-1.396802 0.38819,-0.261609 1.78998,-1.163353 3.11507,-2.003882 3.45395,-2.190903 4.35557,-3.457886 3.55927,-5.001589 -1.0178,-1.973077 -4.3342,-6.29725 -7.43412,-9.693163 -1.82323,-1.997316 -2.94573,-3.523065 -2.94573,-4.003961 0,-1.152265 -1.08547,-2.779528 -2.17612,-3.262296 -0.98215,-0.434743 -0.8032,-1.329078 0.26594,-1.329078 0.26055,0 0.62847,-0.289144 0.81761,-0.642543 0.5014,-0.936877 3.12346,-2.055494 3.63024,-1.548721 0.27098,0.27098 0.28351,0.541463 0.0395,0.852913 -1.29218,1.649324 -0.65363,5.573216 0.90695,5.573216 0.16451,0 0.91685,0.593486 1.67187,1.318859 0.75502,0.725373 1.67063,1.479708 2.0347,1.6763 0.36407,0.196593 1.03241,1.387001 1.4852,2.645352 0.87172,2.422566 1.54914,3.182122 2.83801,3.182122 2.91333,0 3.43771,2.318772 0.98345,4.348782 -0.9211,0.761877 -1.20438,1.26711 -1.20438,2.148064 0,1.236958 -0.27747,1.463771 -7.41101,6.057846 -6.93879,4.468657 -14.54317,11.610371 -20.78187,19.517459 -2.84612,3.607253 -3.70852,4.618634 -3.34614,3.924194 z m 32.24483,-32.490491 c 0,-0.60248 -0.69971,-1.741327 -1.06988,-1.741327 -0.57068,0 -3.51381,-3.313011 -3.51591,-3.957769 -0.001,-0.332842 -0.31959,-0.77515 -0.70779,-0.982906 -1.63304,-0.873976 -0.42476,1.597812 2.53978,5.195654 1.38638,1.682545 2.7538,2.420601 2.7538,1.486348 z M 143.3554,66.382592 c 0.75812,-0.776392 1.45781,-1.411622 1.55486,-1.411622 0.097,0 -0.44383,0.63523 -1.20196,1.411622 -0.75812,0.776391 -1.45782,1.411621 -1.55486,1.411621 -0.097,0 0.44383,-0.63523 1.20196,-1.411621 z m 4.76422,-3.992387 c 0,-0.06074 0.51612,-0.576859 1.14694,-1.146942 1.14694,-1.036515 1.14694,-1.036515 0.11043,0.110428 -0.96618,1.069112 -1.25737,1.309155 -1.25737,1.036514 z m 4.22011,-4.212662 c 1.46243,-1.558145 1.77928,-1.838316 1.77928,-1.573327 0,0.05664 -0.75434,0.810973 -1.6763,1.676301 -1.6763,1.573326 -1.6763,1.573326 -0.10298,-0.102974 z m 3.89671,-4.279881 c 0,-0.07328 0.27791,-0.351194 0.61759,-0.617585 0.55973,-0.438968 0.57221,-0.426486 0.13324,0.133243 -0.46103,0.587852 -0.75083,0.774797 -0.75083,0.484342 z m 2.11743,-3.176148 c 0,-0.07328 0.27792,-0.351194 0.61759,-0.617585 0.55973,-0.438968 0.57221,-0.426486 0.13324,0.133243 -0.46102,0.587852 -0.75083,0.774797 -0.75083,0.484342 z m 9.52845,-15.527834 c 0,-0.07328 0.27791,-0.351195 0.61758,-0.617584 0.55973,-0.438969 0.57221,-0.426486 0.13325,0.133241 -0.46103,0.587852 -0.75083,0.774797 -0.75083,0.484343 z m 25.49741,-10.294663 c -1.76989,-1.79527 -1.8046,-1.923782 -0.51966,-1.923782 1.44848,0 2.54887,0.91378 2.54887,2.116615 0,1.519712 -0.37611,1.483971 -2.02921,-0.192833 z m 0.45564,-0.841587 c -0.12794,-0.207012 -0.4015,-0.376385 -0.6079,-0.376385 -0.23402,0 -0.20724,0.202491 0.0711,0.537887 0.48403,0.583213 0.91662,0.453062 0.53679,-0.161502 z m -4.42582,-0.552837 c 0.24163,-0.291147 0.69779,-0.524308 1.01369,-0.518135 0.48254,0.0094 0.46485,0.09407 -0.11066,0.529358 -0.89163,0.674395 -1.46612,0.667254 -0.90303,-0.01122 z"
         id="path45" />
      <path
         style="fill:#333131;stroke-width:0.352905"
         d="m 56.01132,174.62465 c 0,-0.247 7.009967,-13.68226 9.062398,-17.36893 0.972519,-1.74688 2.851811,-5.24065 4.176204,-7.76392 3.134139,-5.97125 3.929443,-7.24088 5.155711,-8.23063 0.685148,-0.55299 1.015482,-1.14355 1.015482,-1.81543 0,-0.63368 0.40654,-1.42648 1.11793,-2.18008 0.614863,-0.65134 1.144602,-1.42247 1.177204,-1.71362 0.03261,-0.29115 0.323565,-1.14428 0.646593,-1.89585 0.323032,-0.75157 0.587326,-1.47782 0.587326,-1.61388 0,-0.13605 0.789231,-1.09245 1.753841,-2.12532 0.964614,-1.03286 1.669874,-2.0138 1.567249,-2.17986 -0.102628,-0.16605 0.0014,-0.30191 0.231249,-0.30191 0.411131,0 0.326546,-1.05294 -0.212615,-2.64679 -0.157904,-0.46679 0.07424,-0.32657 0.685483,0.41405 2.516808,3.04951 4.181547,1.77319 6.276094,-4.81176 0.83232,-2.6167 1.259784,-3.29781 1.912503,-3.04734 0.257074,0.0987 0.382903,-0.0129 0.289386,-0.25663 -0.221759,-0.5779 1.694271,-1.6758 2.728566,-1.56349 0.507047,0.0551 0.791407,-0.0805 0.737212,-0.3515 -0.04852,-0.24263 0.05954,-0.44114 0.240134,-0.44114 0.1806,0 0.379109,0.35732 0.441132,0.79404 0.160307,1.12874 2.681216,1.99382 4.171218,1.43141 0.94664,-0.35732 1.05868,-0.32816 1.05868,0.27554 0,0.89704 0.59836,0.86387 0.88816,-0.0492 0.17966,-0.56606 0.33543,-0.63682 0.71266,-0.32375 0.26551,0.22036 0.81119,0.2964 1.21261,0.16899 0.91898,-0.29167 1.93332,1.82229 1.60081,3.33619 -0.12388,0.56401 0.0273,1.57439 0.36013,2.40609 0.39769,0.99393 0.47068,1.63174 0.23792,2.07906 -0.64456,1.23873 -0.0878,4.74806 0.73453,4.63004 1.11027,-0.15934 1.11706,0.67604 0.0104,1.27984 -2.23776,1.22094 -2.93575,2.15574 -2.49047,3.33542 0.49499,1.31137 0.41093,1.40682 -1.54172,1.75055 -1.54858,0.27259 -1.54858,0.27259 -1.44861,1.8019 0.0597,0.91399 -0.0938,1.7587 -0.38157,2.09943 -0.26485,0.31357 -0.50025,1.25318 -0.52313,2.08804 -0.0514,1.87743 -1.87962,3.94735 -2.806769,3.17788 -0.422675,-0.35079 -0.608247,-0.31811 -0.96514,0.16997 -0.243021,0.33235 -0.670499,0.60426 -0.94995,0.60426 -0.746088,0 -1.355072,0.73545 -1.355072,1.63648 0,0.43422 -0.488107,1.2362 -1.08468,1.78217 -0.596576,0.54597 -1.797181,1.7317 -2.668017,2.63495 -0.870833,0.90325 -2.089906,1.8421 -2.70905,2.08632 -1.374001,0.54198 -2.713793,1.69675 -2.713793,2.33903 0,0.32544 -0.267632,0.4074 -0.85168,0.26081 -0.961233,-0.24126 -2.430996,0.92369 -2.135829,1.69288 0.186478,0.48596 -0.210187,0.78016 -3.292286,2.44184 -1.107414,0.59706 -2.886921,1.70677 -3.95446,2.46603 -2.797812,1.98987 -5.082349,3.4777 -8.293276,5.40109 -1.552783,0.93014 -3.61728,2.20753 -4.587769,2.83865 -2.325908,1.51254 -5.822939,3.46924 -5.822939,3.25811 z m 46.05969,-59.88506 c -0.28518,-0.46144 0.52705,-0.8527 0.93119,-0.44856 0.2259,0.2259 0.15795,0.41799 -0.1959,0.55377 -0.29797,0.11435 -0.62885,0.067 -0.73529,-0.10521 z m 0.87672,-3.13042 c 0,-0.78033 1.29994,-1.49675 1.74431,-0.96132 0.23864,0.28754 0.33144,0.68857 0.20623,0.89117 -0.27109,0.43862 -1.95054,0.49903 -1.95054,0.0702 z m 7.54512,-2.33168 c -0.25134,-0.65499 0.11536,-1.25207 0.76899,-1.25207 0.54977,0 0.63041,0.33047 0.29432,1.20631 -0.26796,0.69828 -0.80406,0.72136 -1.06331,0.0458 z m 1.72216,-2.1291 c -0.60442,-0.68682 0.11865,-1.08043 0.77643,-0.42265 0.28041,0.28042 0.41153,0.60816 0.29138,0.72831 -0.32267,0.32267 -0.57958,0.24913 -1.06781,-0.30566 z m 5.36702,-1.62883 c -0.37674,-1.18702 0.41112,-1.66246 1.29319,-0.78039 0.4096,0.4096 0.63667,0.91955 0.50461,1.13322 -0.40519,0.65562 -1.54898,0.43114 -1.7978,-0.35283 z m 30.99561,-17.345063 c -0.39805,-0.436721 -1.13066,-1.450445 -1.62803,-2.252719 -0.49737,-0.802277 -1.90655,-2.47791 -3.13152,-3.723631 -2.36466,-2.404722 -7.81682,-9.200458 -7.95735,-9.918281 -0.0781,-0.398751 0.55969,-0.86921 4.88474,-3.60339 3.84829,-2.432788 15.0143,-13.478429 17.7697,-17.578148 1.06843,-1.589697 2.79522,-4.081417 3.83731,-5.537151 1.76344,-2.463431 3.93961,-6.162988 5.08587,-8.646181 0.26879,-0.582294 0.64141,-1.296927 0.82803,-1.588074 0.18662,-0.291147 0.65947,-1.20218 1.05078,-2.024518 1.59943,-3.361259 5.97616,-2.439829 5.97616,1.258158 0,0.56131 0.97994,1.914624 2.94573,4.068114 3.09992,3.395913 6.41632,7.720086 7.43412,9.693163 0.7963,1.543703 -0.10532,2.810686 -3.55927,5.001589 -1.32509,0.840529 -2.72688,1.742273 -3.11507,2.003882 -0.3882,0.261605 -1.32859,0.890168 -2.08977,1.396802 -0.76117,0.506635 -1.55521,1.059366 -1.76452,1.228291 -5.3858,4.346492 -7.87499,6.571299 -10.39004,9.286475 -0.70593,0.762102 -1.52172,1.640096 -1.81287,1.95109 -3.86306,4.126427 -7.08955,8.462649 -9.66455,12.988617 -1.13299,1.991421 -2.19678,3.705305 -2.36397,3.808633 -0.16719,0.10333 -0.47323,0.816397 -0.68008,1.584594 -0.43395,1.611563 -0.66063,1.69409 -1.6554,0.602685 z m 44.72094,-63.955565 c -0.27835,-0.335396 -0.30513,-0.537887 -0.0711,-0.537887 0.4265,0 0.92376,0.669532 0.67902,0.914271 -0.0888,0.08883 -0.36238,-0.08055 -0.60791,-0.376384 z"
         id="path43" />
    </g>
  </g>
</svg>
