<?xml version="1.0" encoding="UTF-8" standalone="no"?>
<svg
   xmlns:dc="http://purl.org/dc/elements/1.1/"
   xmlns:cc="http://creativecommons.org/ns#"
   xmlns:rdf="http://www.w3.org/1999/02/22-rdf-syntax-ns#"
   xmlns:svg="http://www.w3.org/2000/svg"
   xmlns="http://www.w3.org/2000/svg"
   xmlns:sodipodi="http://sodipodi.sourceforge.net/DTD/sodipodi-0.dtd"
   xmlns:inkscape="http://www.inkscape.org/namespaces/inkscape"
   width="423.33334mm"
   height="423.33334mm"
   viewBox="0 0 423.33334 423.33334"
   version="1.1"
   id="svg8"
   inkscape:version="1.0.2-2 (e86c870879, 2021-01-15)"
   sodipodi:docname="mlok.svg">
  <defs
     id="defs2" />
  <sodipodi:namedview
     id="base"
     pagecolor="#ffffff"
     bordercolor="#666666"
     borderopacity="1.0"
     inkscape:pageopacity="0.0"
     inkscape:pageshadow="2"
     inkscape:zoom="0.24748737"
     inkscape:cx="1202.0161"
     inkscape:cy="907.84336"
     inkscape:document-units="mm"
     inkscape:current-layer="layer1"
     inkscape:document-rotation="0"
     showgrid="false"
     fit-margin-top="0"
     fit-margin-left="0"
     fit-margin-right="0"
     fit-margin-bottom="0"
     units="mm"
     inkscape:window-width="1267"
     inkscape:window-height="685"
     inkscape:window-x="0"
     inkscape:window-y="0"
     inkscape:window-maximized="0" />
  <metadata
     id="metadata5">
    <rdf:RDF>
      <cc:Work
         rdf:about="">
        <dc:format>image/svg+xml</dc:format>
        <dc:type
           rdf:resource="http://purl.org/dc/dcmitype/StillImage" />
        <dc:title></dc:title>
      </cc:Work>
    </rdf:RDF>
  </metadata>
  <g
     inkscape:label="Layer 1"
     inkscape:groupmode="layer"
     id="layer1"
     transform="translate(174.62502,102.05357)">
    <path
       style="fill:#d40000;stroke-width:0.264583"
       d="m -145.98387,206.05304 c -0.61847,-0.18719 -1.12448,-0.29946 -1.12448,-0.24948 0,0.2109 -2.05166,-0.77867 -2.82662,-1.36334 -0.46323,-0.34949 -0.96925,-0.63545 -1.12448,-0.63545 -0.15523,0 -0.28224,-0.12756 -0.28224,-0.28348 0,-0.3352 -0.66111,-1.03944 -0.97579,-1.03944 -0.12091,0 -0.39321,-0.26789 -0.60511,-0.59531 -1.38626,-2.14196 -2.20033,-3.63207 -2.47206,-4.52491 -0.17196,-0.56507 -0.46149,-1.08563 -0.64339,-1.15689 -0.1819,-0.0712 -0.33073,-0.29696 -0.33073,-0.50167 0,-0.20468 -0.10508,-0.57888 -0.23351,-0.83159 -0.3204,-0.63039 -1.35399,-3.34057 -1.35399,-3.55028 0,-0.0936 -0.41672,-0.80299 -0.92604,-1.57636 -0.50932,-0.77338 -0.92604,-1.55769 -0.92604,-1.74289 0,-0.18521 -0.0893,-0.33814 -0.19844,-0.33981 -0.20038,-0.003 -0.7535,-1.1053 -1.52068,-3.0304 -0.22994,-0.57698 -0.50919,-1.11276 -0.62055,-1.19063 -0.30049,-0.21008 -1.3645,-2.35323 -1.3645,-2.74841 0,-0.18785 -0.35388,-0.80928 -0.78639,-1.38091 -0.43251,-0.57161 -0.7897,-1.23161 -0.79375,-1.46664 -0.004,-0.23506 -0.24548,-0.73007 -0.53653,-1.10009 -0.29104,-0.36999 -0.52916,-0.90725 -0.52916,-1.1939 0,-0.28665 -0.1706,-0.66276 -0.37911,-0.83582 -0.2085,-0.17304 -0.38352,-0.51504 -0.38893,-0.75999 -0.005,-0.24495 -0.0805,-0.80256 -0.1669,-1.23912 -0.17061,-0.86212 1.29494,-2.77813 2.12498,-2.77813 0.52844,0 0.50852,-0.17111 -0.25667,-2.20403 -0.71618,-1.9027 -0.38284,-2.59945 1.42472,-2.97789 1.64183,-0.34374 12.78002,-5.18379 21.98357,-9.55287 1.67349,-0.79443 4.11427,-1.93443 5.42396,-2.53333 2.04924,-0.93707 13.84704,-6.88512 22.8932,-11.54195 2.47132,-1.2722 2.89979,-1.41205 3.80564,-1.24211 0.98483,0.18475 2.8022,1.70827 2.8022,2.34911 0,1.18897 1.4085,2.10493 2.98364,1.94029 3.40853,-0.35626 6.122161,-3.04786 9.137729,-9.06354 1.915033,-3.82025 2.760337,-4.70059 6.221738,-6.47961 2.3374,-1.20133 2.632453,-1.29265 2.917396,-0.90296 0.207322,0.28353 0.487635,0.36805 0.810165,0.24428 0.453993,-0.17421 0.458319,-0.21472 0.05444,-0.51004 -0.505777,-0.36984 -0.03656,-0.77136 1.687394,-1.44394 0.509323,-0.19871 2.176198,-0.94846 3.704167,-1.66611 4.53195,-2.12856 5.345025,-2.40834 5.61209,-1.93112 0.264747,0.47308 1.695135,0.30657 2.309662,-0.26887 0.548642,-0.51374 0.135064,-0.77336 -0.657043,-0.41246 -0.371263,0.16916 -0.877782,0.30341 -1.125596,0.29832 -0.628782,-0.0129 4.204296,-1.91759 8.016095,-3.15911 5.459077,-1.77804 5.931654,-1.8849 7.028868,-1.58945 1.407583,0.37902 2.363841,-0.0246 2.363841,-0.99768 0,-0.41408 0.233661,-0.94156 0.529166,-1.19458 0.599242,-0.51309 0.654206,-1.27218 0.250317,-3.45701 -0.230489,-1.24684 -0.210825,-1.57646 0.113393,-1.90068 0.603869,-0.60387 0.60684,-0.59689 1.212299,2.8489 0.313227,1.78263 0.682075,3.67168 0.819664,4.19789 0.137588,0.5262 0.250161,1.19623 0.250161,1.48895 0,0.85216 0.715025,1.30264 1.394293,0.87843 0.484481,-0.30257 0.613034,-0.27972 0.980628,0.17424 0.443645,0.54787 5.45874,-0.24598 6.193089,-0.98033 0.466722,-0.46672 0.758682,-0.29306 0.63092,0.37528 -0.202401,1.0588 0.09433,1.26196 1.406647,0.96309 4.900141,-1.11598 16.402971,-3.88124 18.234006,-4.38342 1.236927,-0.33924 2.697118,-0.70043 3.244869,-0.80264 2.361165,-0.4406 0.978408,-3.28997 -1.603671,-3.3046 -1.538465,-0.009 -1.786591,-0.86408 -0.342654,-1.18122 3.16511,-0.69518 4.999331,4.41806 2.134785,5.95112 -0.681921,0.36495 -1.315657,0.34505 -0.787495,-0.0247 0.306977,-0.21493 0.256114,-0.23806 -0.224557,-0.10212 -0.341789,0.0967 -0.865921,0.42023 -1.164739,0.71905 -0.474535,0.47453 -0.580263,0.49276 -0.835287,0.14399 -0.353753,-0.48378 -3.36446,-0.0466 -5.580626,0.8103 -2.748499,1.06277 -3.822806,3.75318 -2.274649,5.69644 0.98271,1.23351 0.973008,1.17636 0.173815,1.02359 -1.138645,-0.21767 -2.729423,-3.18898 -1.961427,-3.66363 0.663609,-0.41013 0.06594,-0.53759 -1.006872,-0.21472 -1.619719,0.48747 -1.677742,0.47841 -1.677742,-0.26216 0,-0.74694 -0.624898,-1.06333 -1.342083,-0.67951 -0.327559,0.17531 -0.51,0.55356 -0.51,1.05738 0,0.43145 -0.119063,0.78445 -0.264584,0.78445 -0.14552,0 -0.264583,-0.15478 -0.264583,-0.34396 0,-0.59602 -0.568841,-0.97634 -1.063966,-0.71136 -0.309393,0.16558 -0.412941,0.45623 -0.325499,0.91366 0.09257,0.48422 0.01437,0.67082 -0.28108,0.67082 -0.225126,0 -0.447365,-0.26789 -0.493866,-0.59531 -0.14343,-1.00991 -1.413645,-0.8281 -1.38639,0.19844 0.02085,0.78523 -0.26308,1.17872 -0.856199,1.18657 -0.171728,0.002 -0.247849,-0.21816 -0.173504,-0.50246 0.197229,-0.7542 -0.88679,-1.28333 -1.458296,-0.71183 -0.328681,0.32868 -0.350887,0.49074 -0.101422,0.7402 0.491752,0.49176 0.397965,0.68415 -0.672799,1.38013 -0.956667,0.62183 -4.466227,1.66529 -4.726292,1.40523 -0.06987,-0.0699 0.291066,-0.20546 0.802069,-0.30133 1.087644,-0.20404 1.447885,-0.61125 0.765992,-0.86585 -0.263884,-0.0985 -0.640114,-0.40212 -0.836067,-0.67464 -0.520708,-0.72419 -1.495806,-0.51014 -1.495806,0.32835 0,0.37796 -0.226806,0.7992 -0.529167,0.98281 -0.79149,0.48066 -1.159684,0.41124 -1.002704,-0.18906 0.107121,-0.40963 0.0081,-0.52916 -0.438277,-0.52916 -0.446151,0 -0.557922,0.13472 -0.49388,0.59531 0.0622,0.44729 -0.06525,0.61634 -0.512535,0.67986 -1.252709,0.17791 -0.653399,0.81035 0.647214,0.68298 0.683387,-0.0669 1.18764,-0.0668 1.120563,2.7e-4 -0.158562,0.15856 -3.740351,1.17609 -5.273506,1.49812 -0.654844,0.13755 -1.626346,0.42285 -2.158891,0.63401 -0.532548,0.21115 -3.092392,0.98306 -5.688542,1.71535 -10.915333,3.07886 -10.381176,2.73712 -9.493203,6.07353 0.568079,2.13446 0.718582,2.17673 4.376053,1.22898 0.363802,-0.0943 -0.270251,0.30386 -1.40901,0.88475 -1.138756,0.58088 -2.241002,0.99071 -2.449438,0.91073 -0.208434,-0.08 -0.662062,0.0401 -1.00806,0.26677 -0.680916,0.44615 -0.954326,0.34231 -0.954326,-0.36243 0,-0.24717 -0.25133,-0.7689 -0.558509,-1.15942 -0.533172,-0.67782 -0.53754,-0.7332 -0.09628,-1.22079 0.414985,-0.45856 0.41928,-0.52724 0.04201,-0.67201 -0.517549,-0.19861 -1.038262,0.0919 -0.901287,0.50283 0.09612,0.28836 -0.401537,0.9703 -0.708089,0.9703 -0.0788,0 -0.117073,-0.42974 -0.08504,-0.95498 0.03998,-0.65559 -0.08294,-1.04666 -0.392097,-1.24741 -0.700129,-0.45465 -0.835816,-0.0486 -0.405651,1.21384 0.394161,1.15679 0.394161,1.15679 -0.766969,1.49963 -1.320027,0.38975 -1.687388,0.77332 -1.071017,1.11826 0.622472,0.34835 0.270465,0.96033 -0.470866,0.81861 -0.995561,-0.19031 -1.424924,0.8562 -0.620834,1.51319 0.610669,0.49896 0.610669,0.49896 -0.976831,1.2032 -2.651162,1.1761 -7.045008,3.40714 -7.198186,3.65499 -0.2355,0.38105 0.918605,-0.0732 4.286176,-1.68699 1.747126,-0.83725 4.010031,-1.83997 5.028676,-2.22827 1.018646,-0.3883 2.282632,-0.88756 2.808857,-1.10946 0.526227,-0.2219 1.716852,-0.62078 2.645833,-0.88641 0.928984,-0.26562 2.879686,-0.91857 4.334894,-1.45098 6.088457,-2.22758 8.56914,-3.01853 16.536459,-5.27259 3.274218,-0.92631 7.560468,-2.16305 9.525,-2.7483 1.964531,-0.58526 6.012656,-1.74161 8.995833,-2.56969 2.983177,-0.82808 6.733646,-1.89894 8.334375,-2.3797 1.60073,-0.48076 3.50573,-0.99708 4.233334,-1.14737 0.727604,-0.1503 2.215885,-0.57704 3.307291,-0.94832 1.091407,-0.37128 2.195489,-0.67589 2.453519,-0.6769 0.541705,-0.002 6.217436,-1.63864 8.456279,-2.43823 1.8860665,-0.67361 2.008296,-0.82354 2.4698802,-3.02968 0.3861673,-1.84568 0.8551545,-2.54624 1.9172793,-2.86397 0.6125819,-0.18326 0.6125819,-0.18326 0.041175,0.93679 -0.9624431,1.88655 0.085677,3.08117 1.6344477,1.86291 0.3518773,-0.27679 0.9334791,-0.54468 1.2924525,-0.59531 0.98370237,-0.13876 0.81682437,-0.86136 -0.2351246,-1.01811 -0.8878014,-0.13229 -0.8878014,-0.13229 -0.090543,-0.8402 0.4384886,-0.38934 0.8677672,-0.63739 0.95394459,-0.55121 0.0861801,0.0862 0.15669155,-0.0488 0.15669155,-0.2999 0,-0.25112 0.11386344,-0.38621 0.25302898,-0.3002 0.13916554,0.086 0.19057938,0.31911 0.11425238,0.51801 -0.16734103,0.43609 0.34431023,0.80343 1.14556912,0.82246 0.48568508,0.0115 0.55996678,-0.093 0.43105918,-0.60662 -0.1795833,-0.71551 1.0935229,-0.60747 1.6454544,0.13963 0.5322331,0.72045 1.3027739,0.27753 1.3327274,-0.76607 0.045358,-1.58021 1.0651093,-2.19859 1.692492,-1.02631 0.3266255,0.6103 1.2710821,0.70752 1.4839685,0.15274 0.079447,-0.20703 0.3369231,-0.45027 0.5721747,-0.54055 0.3784706,-0.14523 0.3761158,-0.1071 -0.020452,0.33111 -0.8242961,0.91083 -0.321347,2.14272 0.660326,1.61734 0.3756342,-0.20103 0.4796261,-0.50733 0.4224893,-1.24439 -0.09371,-1.20885 1.2576598,-1.7117 1.4251148,-0.53029 0.155792,1.09911 1.277218,0.98182 1.277218,-0.13358 0,-0.71538 0.124764,-0.94621 0.575082,-1.06397 0.782625,-0.20466 1.012418,-0.0108 1.012418,0.85394 0,0.92973 0.740243,0.99741 1.081852,0.0989 0.180269,-0.47414 0.373319,-0.59328 0.761635,-0.47003 0.881946,0.27991 3.344704,-0.32878 4.671518,-1.1546 1.155083,-0.71895 1.289915,-0.74808 1.589106,-0.34331 0.270457,0.3659 0.387141,0.38209 0.675473,0.0938 0.288332,-0.28833 0.25713,-0.42017 -0.180626,-0.7632 -0.402563,-0.31545 -0.421611,-0.37772 -0.07962,-0.26025 0.302197,0.1038 0.405697,0.0401 0.315765,-0.19421 -0.07738,-0.20166 0.104412,-0.41092 0.431249,-0.49639 0.411631,-0.10764 0.52645,-0.0472 0.422924,0.22257 -0.07816,0.20368 0.11268,0.54879 0.42409,0.76691 0.773692,0.54192 1.3648,0.0572 1.162669,-0.95349 -0.150424,-0.75211 0.896096,-1.93826 1.119301,-1.26865 0.05696,0.17088 0.304435,0.0953 0.618382,-0.1888 0.49427,-0.44731 0.537678,-0.44821 0.779457,-0.0162 0.449479,0.80317 1.288076,0.57557 1.288076,-0.34959 0,-0.79418 0.02013,-0.80623 1.256771,-0.75219 0.691224,0.0302 1.453835,-0.0317 1.694688,-0.13762 0.36095,-0.15868 0.430705,-0.0412 0.396875,0.66815 -0.04427,0.92849 0.912021,1.49443 1.612604,0.95435 0.456504,-0.35193 0.415404,-1.23262 -0.06615,-1.41741 -0.548145,-0.21034 -0.496729,-0.53702 0.109471,-0.69554 0.342996,-0.0897 0.548397,0.0284 0.636688,0.36601 0.158724,0.60696 1.29099,0.67558 1.762998,0.10684 0.281978,-0.33976 0.387313,-0.31463 0.795822,0.18986 0.402828,0.49747 0.532527,0.53024 0.898028,0.2269 0.553278,-0.45918 0.542001,-1.04727 -0.03225,-1.68181 -0.447767,-0.49478 -0.425955,-0.50563 0.857999,-0.42667 1.074005,0.066 1.333606,-0.003 1.40489,-0.37304 0.112935,-0.58643 0.227073,-0.5726 1.558933,0.18896 1.208884,0.69123 3.883993,0.88504 4.250759,0.30795 0.258231,-0.4063 1.727811,-1.34864 1.984216,-1.27233 0.112551,0.0335 0.275556,-0.29369 0.362236,-0.72708 0.08893,-0.44466 0.374428,-0.85681 0.655256,-0.94594 0.273709,-0.0869 0.497655,-0.26898 0.497655,-0.40469 0,-0.13571 0.186616,-0.24675 0.414705,-0.24675 0.294299,0 0.36594,0.15363 0.246754,0.52916 -0.281247,0.88613 0.528288,0.62455 1.222666,-0.39506 0.832466,-1.222396 2.791825,-1.370869 3.515503,-0.2664 0.527425,0.80496 1.356264,0.85701 1.755902,0.11029 0.233433,-0.43618 0.204398,-0.651273 -0.139158,-1.030898 -0.337685,-0.373136 -0.357066,-0.505645 -0.08723,-0.596421 0.285734,-0.09613 0.285901,-0.190624 0.0011,-0.535924 -0.638852,-0.774131 -2.162416,-0.797793 -5.068623,-0.07872 -1.50372,0.372059 -3.064087,0.676471 -3.467481,0.676471 -0.403394,0 -1.730687,0.236844 -2.949538,0.526322 -1.218853,0.289475 -3.282082,0.75613 -4.584954,1.037 -1.302872,0.28087 -4.511985,1.00429 -7.13136,1.6076 -2.619375,0.6033 -5.595937,1.27433 -6.614583,1.49117 -2.842136,0.60501 -4.651301,1.17514 -4.500952,1.41841 0.07483,0.12108 -0.08588,0.16211 -0.357129,0.0912 -0.271251,-0.0709 -3.277743,0.47751 -6.681094,1.21876 -7.9735236,1.73665 -8.0460089,1.75516 -11.4795757,2.93139 -1.6007291,0.54836 -3.42994721,1.01574 -4.0649287,1.03863 -0.6349841,0.0229 -1.7660779,0.27404 -2.5135417,0.55814 -0.7474665,0.2841 -1.5376234,0.51613 -1.7559047,0.51562 -0.2182812,-5.3e-4 -1.349375,0.2888 -2.5135417,0.6429 -1.1641667,0.35411 -2.8905725,0.85174 -3.8364585,1.10584 -0.945885,0.2541 -1.844468,0.5547 -1.99685,0.668 -0.152381,0.1133 -0.715378,0.2543 -1.251106,0.31333 -0.535726,0.059 -1.165315,0.26608 -1.39909,0.4601 -0.375674,0.31178 -0.414745,0.26426 -0.336394,-0.40916 0.08221,-0.70655 0.213601,-0.78879 1.80844,-1.13197 0.945886,-0.20353 4.577292,-1.084 8.0697919,-1.9566 3.4925,-0.87259 8.0168751,-1.98234 10.0541668,-2.4661 2.0372917,-0.48376 5.4700541,-1.36701 7.6283613,-1.96277 2.158188,-0.59577 4.129818,-1.08321 4.38128,-1.08321 0.25146,0 1.402604,-0.22907 2.558098,-0.50904 1.155491,-0.27997 3.470114,-0.81867 5.143603,-1.19712 7.447452,-1.68418 18.02936,-4.160612 19.84375,-4.643932 1.091407,-0.290729 3.353594,-0.89377 5.027084,-1.340091 1.673489,-0.44632 3.578489,-0.911521 4.233333,-1.033782 2.075479,-0.387496 6.264476,-1.537272 7.04926,-1.934845 0.415771,-0.210632 1.232199,-0.463646 1.814282,-0.562253 1.812787,-0.307097 4.715108,-0.977657 5.820833,-1.344867 0.582084,-0.193307 1.475053,-0.422674 1.984376,-0.509704 0.509322,-0.08703 2.185508,-0.563536 3.724854,-1.058899 1.539348,-0.495364 3.355052,-0.984073 4.034896,-1.086022 0.946174,-0.141886 1.236083,-0.297254 1.236083,-0.662437 0,-0.262393 0.148828,-0.532866 0.330729,-0.601054 0.534281,-0.200285 -0.620853,-0.960422 -1.474107,-0.97004 -0.410576,-0.0046 -0.920039,0.165122 -1.132137,0.37722 -0.212098,0.212097 -0.568811,0.315341 -0.792699,0.229425 -0.223888,-0.08591 -0.666925,-0.03148 -0.984531,0.120973 -0.317606,0.152447 -1.708557,0.416547 -3.091005,0.586885 -1.382448,0.170339 -2.751667,0.410816 -3.042709,0.534393 -0.291041,0.123576 -1.362604,0.356325 -2.38125,0.51722 -2.370026,0.374349 -3.569671,0.760254 -3.580288,1.151718 -0.02265,0.835131 -0.75419,1.346454 -1.264984,0.884193 -0.665776,-0.60252 -0.843269,-0.556263 -0.843269,0.219768 0,0.786085 -0.488209,0.853152 -1.22355,0.168079 -0.766884,-0.714459 -1.686867,-1.17195 -1.686867,-0.838845 0,0.15064 -0.349438,0.273891 -0.776526,0.273891 -0.42709,0 -1.081934,0.116115 -1.455208,0.258035 -0.52292,0.198813 -0.678683,0.17521 -0.678683,-0.102846 0,-0.209966 0.41492,-0.433012 0.992188,-0.533366 1.45492,-0.252928 2.520892,-0.723066 3.021721,-1.332709 0.4302,-0.523666 0.463643,-0.525396 1.249016,-0.06467 0.799455,0.468985 0.855798,0.461008 6.040258,-0.85499 2.878302,-0.730615 5.709526,-1.444532 6.291609,-1.586484 0.582084,-0.141952 4.68974,-1.15125 9.128125,-2.242884 4.438386,-1.091633 9.617605,-2.353402 11.509376,-2.803927 1.89177,-0.450527 6.535208,-1.580954 10.318751,-2.512062 9.73146,-2.394855 20.94273,-5.13624 28.04584,-6.857778 3.34698,-0.811189 9.06198,-2.196177 12.7,-3.077755 3.63802,-0.881579 11.61521,-2.835053 17.72708,-4.341054 6.11188,-1.506 14.62484,-3.595809 18.91771,-4.644017 9.84882,-2.404832 31.55908,-7.847031 37.30699,-9.351896 5.1122,-1.338429 6.59387,-1.642039 6.21697,-1.27394 -0.25773,0.251722 -2.88258,1.07936 -5.56242,1.75387 -0.73101,0.183994 -1.71677,0.535004 -2.19059,0.780026 -0.47381,0.24502 -0.96882,0.379154 -1.10003,0.298072 -0.13118,-0.08108 -0.31332,-0.0264 -0.40471,0.121481 -0.0914,0.147894 -0.45683,0.268898 -0.81203,0.268898 -0.35523,0 -0.64585,0.12133 -0.64585,0.269624 0,0.267949 0.79928,0.167659 2.11667,-0.265586 0.3638,-0.119645 1.67349,-0.415189 2.91042,-0.65677 1.23692,-0.241583 2.84427,-0.5993 3.57187,-0.794927 0.72761,-0.195628 3.16839,-0.796229 5.42396,-1.334667 5.27733,-1.259777 5.72109,-2.243397 0.61222,-1.356955 -1.04574,0.181443 -1.84237,0.234508 -1.77033,0.117922 0.072,-0.116586 0.35796,-0.211974 0.63532,-0.211974 1.2496,0 5.01295,-1.537936 5.01766,-2.050521 0.006,-0.662199 2.22631,-0.400722 2.92656,0.344665 0.53565,0.570172 0.57375,0.714296 0.24455,0.925092 -0.44182,0.282921 -2.07316,0.77706 -2.57275,0.779288 -0.39561,0.0019 -0.4386,0.432739 -0.0661,0.662934 0.57743,0.356873 0.19574,0.637525 -1.25677,0.924068 -3.69602,0.729134 -5.01801,1.330362 -3.88292,1.76593 0.28771,0.110403 0.36764,0.35474 0.25842,0.789898 -0.23572,0.939141 0.73877,1.96937 1.14493,1.210442 0.15299,-0.285845 0.21992,-0.57794 0.14878,-0.649097 -0.0712,-0.07116 0.0521,-0.279982 0.27387,-0.464058 0.2218,-0.184076 0.40328,-0.484121 0.40328,-0.666766 0,-0.457523 0.51427,-0.8207 1.4552,-1.027671 0.79375,-0.174596 0.79375,-0.174596 -0.13229,0.621647 -0.77446,0.665919 -0.86108,0.840483 -0.52916,1.066548 0.65545,0.446413 1.70905,0.206248 1.73701,-0.395941 0.0763,-1.644954 0.11015,-1.719791 0.77653,-1.719791 0.49138,0 0.66146,0.14007 0.66146,0.544782 0,0.29963 0.11123,0.476041 0.24717,0.392025 0.13592,-0.08401 0.18132,-0.597056 0.10089,-1.140092 -0.14629,-0.98734 -0.14629,-0.98734 0.6591,-0.0613 0.78938,0.907617 0.81354,0.915514 1.21362,0.396875 0.39113,-0.506997 0.40854,-0.49037 0.41566,0.396875 0.008,1.066504 -0.85215,2.645834 -1.44193,2.645834 -0.2314,0 -0.40076,0.236048 -0.40076,0.558612 0,0.489768 -0.10867,0.538226 -0.88173,0.393203 -0.68236,-0.128014 -0.98898,-0.04687 -1.3562,0.358915 -0.35404,0.391192 -0.59378,0.460491 -0.94427,0.272918 -0.60039,-0.321324 -2.10947,0.176122 -2.10947,0.695359 0,2.711347 2.22896,3.485946 2.7686,0.962139 0.13978,-0.653685 0.32157,-0.857877 0.75816,-0.851482 0.5492,0.008 0.5529,0.02463 0.0848,0.379272 -0.30023,0.227438 -0.40894,0.501234 -0.28118,0.707996 0.38661,0.625514 0.33568,1.502733 -0.10967,1.889688 -0.51863,0.450639 -5.48679,1.812693 -14.69977,4.030049 -2.16614,0.521343 -4.39756,1.182119 -4.95869,1.468393 -2.14434,1.093964 -6.63427,2.378551 -8.15562,2.333363 -0.8305,-0.02466 -2.67457,0.252597 -4.24619,0.638434 -5.18086,1.271918 -11.76661,2.920164 -13.49375,3.377144 -0.94589,0.25027 -4.75589,1.237515 -8.46667,2.193875 -3.71078,0.956363 -7.87797,2.037535 -9.26042,2.402605 -1.38245,0.365069 -4.23995,1.092867 -6.35,1.617329 -2.11005,0.52446 -4.07458,1.056759 -4.36562,1.182883 -0.29104,0.126127 -0.94589,0.308756 -1.45521,0.405845 -0.50932,0.09709 -3.06917,0.766759 -5.68854,1.488157 -2.61938,0.721399 -5.59594,1.532821 -6.61459,1.803161 -1.01864,0.270344 -3.28083,0.871403 -5.02708,1.335689 -1.74625,0.464285 -3.59172,0.938172 -4.10104,1.053078 -1.294,0.291934 -16.276,4.411941 -17.72709,4.874893 -0.65484,0.208923 -2.08359,0.575479 -3.175,0.814572 -1.0914,0.239096 -2.28203,0.555012 -2.64583,0.702035 -0.3638,0.147027 -1.73302,0.546725 -3.04271,0.888225 -1.30968,0.341498 -3.09562,0.813954 -3.96875,1.049904 -0.87312,0.23595 -3.07578,0.829876 -4.894793,1.319834 -1.81901,0.489958 -4.438386,1.207148 -5.820833,1.593757 -3.067527,0.857848 -7.910764,2.147028 -9.525001,2.535376 -0.654843,0.157548 -1.309687,0.320228 -1.455208,0.361508 -0.145521,0.0413 -0.352224,0.0949 -0.459338,0.11919 -0.107116,0.0243 -0.702429,0.22521 -1.322916,0.44654 -0.620491,0.22133 -2.259256,0.68453 -3.641704,1.02933 -3.279442,0.81793 -6.241423,1.60898 -8.863542,2.36715 -1.164167,0.33662 -2.890573,0.81911 -3.836459,1.07221 -2.581534,0.69076 -4.933492,1.34749 -7.14375,1.99473 -2.198772,0.64387 -3.301381,0.94186 -8.334375,2.25244 -1.891771,0.49261 -4.213489,1.09831 -5.159375,1.346 -0.945885,0.24768 -1.792634,0.55986 -1.881664,0.69373 -0.08903,0.13387 -0.267626,0.22609 -0.396875,0.20494 -0.263623,-0.0432 -1.35519,0.23675 -5.394378,1.38326 -1.527968,0.4337 -3.373437,0.95401 -4.101041,1.15625 -2.343762,0.65144 -3.161126,0.95707 -3.849355,1.43933 -0.370893,0.2599 -1.978236,0.85457 -3.571875,1.32149 -1.593635,0.46692 -3.135646,0.94122 -3.426687,1.05399 -0.724435,0.28072 -2.976198,1.01606 -4.101042,1.33923 -0.509323,0.14634 -1.104635,0.3385 -1.322917,0.42704 -0.646533,0.26224 -3.680732,1.11604 -5.953125,1.67517 -1.1641667,0.28645 -2.3547917,0.63412 -2.6458333,0.7726 -0.2910417,0.13848 -1.8983855,0.62213 -3.5718751,1.07477 -1.6734896,0.45264 -3.23640984,0.92548 -3.47315637,1.05075 -0.23674652,0.12527 -0.89159033,0.30403 -1.45520833,0.39723 -0.5636181,0.0932 -1.7391354,0.39611 -2.6122604,0.67312 -0.873125,0.27701 -2.8971876,0.87541 -4.4979168,1.32977 -1.6007287,0.45436 -3.8629167,1.16506 -5.0270827,1.57934 -1.164167,0.41428 -2.533386,0.87201 -3.042709,1.01718 -0.920602,0.2624 -6.070957,1.82685 -8.598958,2.61198 -0.727604,0.22597 -1.561042,0.50634 -1.852084,0.62305 -0.795684,0.31906 -6.698205,2.16097 -9.392708,2.93104 -0.509323,0.14556 -1.402292,0.46909 -1.984375,0.71895 -0.850509,0.36509 -6.225866,2.19195 -6.746875,2.29298 -0.162896,0.0316 -1.010817,0.34984 -1.719792,0.64548 -0.291042,0.12136 -0.826823,0.27872 -1.190625,0.34968 -0.824513,0.16084 -7.949144,2.63044 -8.402664,2.91261 -0.321662,0.20013 -0.982284,-0.99634 -1.511311,-2.73719 -0.110556,-0.3638 -0.436644,-0.91917 -0.724638,-1.23415 -0.590381,-0.6457 -0.11122,-1.1471 1.096219,-1.1471 0.633847,0 0.707811,-0.33055 0.173241,-0.7742 -0.277227,-0.23008 -0.421121,-0.23248 -0.559027,-0.009 -0.10214,0.16526 -0.433443,0.2357 -0.73623,0.15652 -0.71347,-0.18658 -3.097503,0.59308 -3.281762,1.07325 -0.215151,0.56067 0.119383,0.73515 0.78355,0.40865 1.371026,-0.67397 1.785538,-0.6689 1.785538,0.0218 0,0.35628 0.297657,1.43859 0.661459,2.40512 1.122487,2.98218 0.835398,3.80438 -1.853406,5.30805 -2.046029,1.1442 -2.428235,1.2001 -0.966709,0.14137 0.602658,-0.43656 1.222862,-0.79375 1.378231,-0.79375 0.155369,0 0.208904,-0.11906 0.118967,-0.26458 -0.369697,-0.59818 -2.567898,-0.26775 -4.594582,0.69066 -2.108118,0.99692 -2.680764,1.20693 -5.028065,1.84393 -1.521034,0.41277 -7.60031,2.89207 -10.918188,4.45274 -1.111001,0.52259 -2.152798,0.95017 -2.315104,0.95017 -0.162306,0 -0.295103,0.11906 -0.295103,0.26458 0,0.14552 -0.132223,0.26458 -0.293828,0.26458 -0.675245,0 -4.289769,2.01115 -5.554035,3.09031 -1.544884,1.31868 -2.620272,1.93678 -3.36971,1.93678 -0.662532,0 -3.409778,1.32151 -5.599094,2.69333 -0.945885,0.59269 -2.028527,1.27095 -2.405867,1.50725 -1.82877,1.14517 -8.20294,5.57313 -8.44205,5.86443 -0.0728,0.0887 -1.04832,0.88485 -2.16791,1.76935 -6.30057,4.9775 -11.13329,9.58927 -14.90878,14.2271 -1.42155,1.74625 -3.09659,3.77031 -3.7223,4.49791 -0.62572,0.72761 -2.63106,3.22792 -4.45632,5.55625 -1.82527,2.32834 -3.52725,4.47792 -3.78219,4.77687 -0.25495,0.29893 -0.48666,0.631 -0.51491,0.73795 -0.36778,1.39187 -4.28172,5.72997 -5.16972,5.72997 -0.19889,0 -0.47473,0.10621 -0.61297,0.23599 -0.14813,0.13909 -0.71316,0.0962 -1.37583,-0.10438 z m 3.52397,-9.06534 c 0.15556,-0.10692 0.54836,-0.75007 0.87289,-1.42925 0.32453,-0.67916 0.88187,-1.42605 1.23853,-1.65973 0.74284,-0.48673 0.86364,-1.20645 0.20249,-1.20645 -0.24528,0 -0.72237,0.25966 -1.0602,0.57705 -0.61424,0.57703 -0.61424,0.57703 -1.16507,-0.0143 -0.68942,-0.74002 -1.19109,-0.59902 -1.08223,0.30416 0.0456,0.37873 -0.0266,1.08532 -0.16045,1.57022 -0.39729,1.43889 0.2493,2.48002 1.15404,1.8582 z m -2.25069,-5.15533 c 0.90594,-1.14903 1.20046,-1.65063 0.83744,-1.42626 -0.45789,0.28297 -1.97908,2.28616 -1.73608,2.28616 0.12137,0 0.52576,-0.38696 0.89864,-0.8599 z m 3.94148,-5.03126 c -0.006,-0.1796 -0.3631,0.0857 -0.79375,0.58949 -1.02134,1.19491 -1.00498,1.7263 0.0185,0.60113 0.4323,-0.47524 0.78115,-1.01102 0.77524,-1.19062 z m 6.63749,0.53335 c 1.45422,-1.54062 1.54961,-2.57969 0.23682,-2.57969 -0.42798,0 -0.77814,-0.12735 -0.77814,-0.283 0,-0.42056 -1.09541,-0.1796 -1.401,0.30819 -0.41611,0.66421 -0.008,1.82689 0.64098,1.82689 0.45754,0 0.5242,0.11398 0.38679,0.66146 -0.20654,0.82293 0.17421,0.85048 0.91455,0.0661 z m -5.35288,-1.84778 c 0.39079,-0.47056 1.76773,-2.02281 3.05988,-3.44942 1.29214,-1.42663 2.29345,-2.64975 2.22512,-2.71809 -0.0683,-0.0683 -0.64356,0.44214 -1.2783,1.13435 -2.71871,2.96484 -5.01597,5.59112 -5.01597,5.73439 0,0.34335 0.3352,0.11046 1.00927,-0.70123 z m 6.53136,-2.584 c 0,-0.21428 -0.20836,-0.42976 -0.46303,-0.47879 -0.32486,-0.0626 -0.46302,0.0803 -0.46302,0.47879 0,0.39849 0.13816,0.54137 0.46302,0.47879 0.25467,-0.049 0.46303,-0.2645 0.46303,-0.47879 z m -9.01474,-1.73868 c 0.62373,-0.62373 0.52778,-1.22444 -0.17954,-1.124 -0.42624,0.0605 -0.61908,0.2912 -0.67903,0.81216 -0.0938,0.81508 0.23568,0.93472 0.85857,0.31184 z m 11.47536,-0.96007 c 0.61774,-0.61774 0.38436,-1.31283 -0.4101,-1.22142 -0.5715,0.0658 -0.74557,0.23982 -0.81133,0.81132 -0.0914,0.79446 0.60369,1.02785 1.22143,0.4101 z m 6.52763,-1.36403 c 0.30027,-0.21955 0.42569,-0.52734 0.32345,-0.79375 -0.25507,-0.66471 -0.63108,-0.52091 -0.93768,0.35862 -0.30275,0.86844 -0.13799,0.98517 0.61423,0.43513 z m -0.96621,-3.54399 c 0.063,-0.44386 -0.0476,-0.59531 -0.43471,-0.59531 -0.48028,0 -0.84046,0.47072 -0.84046,1.09837 0,0.55697 1.19138,0.087 1.27517,-0.50306 z m -7.31527,-0.50403 c 0.77225,-0.69887 0.63519,-1.26098 -0.17761,-0.7284 -0.3638,0.23837 -0.66146,0.59831 -0.66146,0.79984 0,0.48379 0.24896,0.4626 0.83907,-0.0714 z m 10.3251,-0.53766 c 0.40815,-0.39103 0.74208,-0.81624 0.74208,-0.94493 0,-0.12869 0.18625,-0.42024 0.41389,-0.64786 0.59055,-0.59058 0.0852,-0.97412 -1.01225,-0.76824 -1.78647,0.33514 -3.44923,2.54283 -1.91518,2.54283 0.3638,0 0.66146,0.11906 0.66146,0.26458 0,0.43577 0.32615,0.30462 1.11,-0.44638 z m 8.96655,-8.82007 c 1.06804,-0.28757 1.57619,-0.88249 1.13267,-1.32601 -0.28555,-0.28554 -1.47086,-0.0233 -1.28126,0.28355 0.0728,0.11785 -0.22616,0.46961 -0.66443,0.78169 -0.43828,0.31207 -0.79324,0.76766 -0.78882,1.01243 0.007,0.4105 0.0286,0.4097 0.27335,-0.0101 0.14591,-0.25035 0.74373,-0.58401 1.32849,-0.74147 z m -27.00988,-0.5656 c 0,-0.12216 -0.28492,-0.22212 -0.63315,-0.22212 -0.34824,0 -0.70458,-0.18613 -0.79189,-0.41365 -0.20382,-0.53115 -0.69163,-0.23767 -0.69163,0.41611 0,0.70496 0.75021,1.06437 1.50441,0.72073 0.33674,-0.15343 0.61226,-0.37891 0.61226,-0.50107 z m 18.7325,0.25413 c 0.43212,-0.43211 0.39904,-0.74083 -0.0794,-0.74083 -0.21828,0 -0.39687,0.0498 -0.39687,0.11065 0,0.0608 -0.0723,0.29898 -0.1606,0.52917 -0.18949,0.49379 0.18472,0.55313 0.63685,0.10101 z m 6.40291,-1.35818 c 0,-0.19405 -0.0783,-0.43114 -0.17409,-0.52689 -0.23927,-0.23927 -0.91348,0.35372 -0.73342,0.64505 0.22546,0.36478 0.90751,0.27599 0.90751,-0.11816 z m -2.64583,-3.23038 c 0,-0.55003 -0.71418,-0.78101 -1.19108,-0.38522 -0.50712,0.42086 -0.34027,0.6607 0.50849,0.73095 0.45916,0.038 0.68259,-0.0752 0.68259,-0.34573 z m 5.5095,-3.11951 c 0.0577,-0.29741 -0.0931,-0.44109 -0.46302,-0.44109 -0.30171,0 -0.54856,0.15875 -0.54856,0.35277 0,0.81036 0.85704,0.88518 1.01158,0.0883 z m 10.10092,-0.57338 c 0.73732,-0.65485 1.46269,-1.19063 1.61195,-1.19063 0.14925,0 0.20059,-0.11451 0.11409,-0.25447 -0.0999,-0.16171 -0.41623,-0.15602 -0.86765,0.0156 -0.5609,0.21325 -0.77383,0.18329 -1.01199,-0.1424 -0.34518,-0.47208 -0.64015,-0.5378 -0.64015,-0.14265 0,0.14841 -0.27894,0.71396 -0.61987,1.25677 -1.19633,1.90476 -0.47765,2.13748 1.41362,0.45777 z m -33.45321,-0.16436 c 0.21663,-0.41893 0.31518,-0.76169 0.21899,-0.76169 -0.25519,0 -1.4262,1.30783 -1.4262,1.59283 0,0.48016 0.82163,-0.0855 1.20721,-0.83114 z m 30.9831,0.14657 c 0.235,-0.61238 -0.285,-1.01732 -0.68597,-0.53419 -0.33896,0.40843 -0.18542,0.94885 0.26958,0.94885 0.1415,0 0.32888,-0.1866 0.41639,-0.41466 z m -6.50437,-1.2794 c -0.2366,-0.28508 -0.22877,-0.39939 0.0337,-0.49295 0.18797,-0.067 0.25761,-0.21233 0.15474,-0.32299 -0.32497,-0.34961 -1.0036,0.0897 -1.0036,0.64961 0,0.37142 0.1735,0.53747 0.56157,0.53747 0.45186,0 0.50139,-0.0725 0.25354,-0.37114 z m 2.5288,-1.08406 c 0.0838,-0.21829 0.33386,-0.39688 0.55577,-0.39688 0.51826,0 2.18574,-1.02571 2.18574,-1.3445 0,-0.13365 -0.22539,-0.243 -0.50086,-0.243 -0.27547,0 -0.57136,-0.18373 -0.65753,-0.40828 -0.28288,-0.73717 -1.22286,0.0295 -1.22286,0.99733 0,0.77783 -0.0252,0.80055 -0.36789,0.33189 -0.4284,-0.58588 -1.74878,-0.1967 -1.74878,0.51545 0,0.78032 1.48899,1.24487 1.75641,0.54799 z m 3.33682,-2.88186 c 0.83797,-0.63611 0.41369,-1.40714 -0.59768,-1.08614 -0.50779,0.16117 -0.71426,0.91422 -0.35041,1.27806 0.24623,0.24623 0.41623,0.21182 0.94809,-0.19192 z m 14.391673,-1.25209 c 1.260829,-1.09124 1.260829,-1.09124 0.346821,-0.89705 -0.502706,0.10681 -1.030248,0.21091 -1.172313,0.23135 -0.142066,0.0204 -0.299797,-0.23548 -0.350512,-0.5687 -0.09221,-0.60584 -0.09221,-0.60584 -0.601594,0.0417 -0.621152,0.78967 -0.641543,1.11825 -0.08271,1.33269 0.345543,0.1326 0.364537,0.2386 0.0999,0.55747 -0.718236,0.86542 0.522676,0.37376 1.760413,-0.69749 z m -12.123313,-0.0552 c 0.0506,-0.26108 -0.0843,-0.44109 -0.33073,-0.44109 -0.24543,0 -0.41627,0.22622 -0.41627,0.55121 0,0.6448 0.61827,0.55366 0.747,-0.11012 z m 7.039307,-2.97353 c 0.471757,-0.47176 0.544322,-0.90715 0.151191,-0.90715 -0.145521,0 -0.264583,-0.23109 -0.264583,-0.51355 0,-0.81602 -0.556155,-0.9448 -1.088756,-0.2521 -0.621397,0.80819 -0.639021,1.74853 -0.03572,1.90619 0.774647,0.20243 0.808414,0.19607 1.237872,-0.23339 z m 12.851191,-0.88167 c 0,-0.26058 0.267891,-0.60298 0.595313,-0.76089 0.584604,-0.28194 0.582226,-0.28743 -0.132292,-0.30501 -0.400182,-0.01 -0.727604,-0.13697 -0.727604,-0.28249 0,-0.59105 -0.931995,-0.20325 -1.82658,0.76003 -0.951545,1.02461 -0.951545,1.02461 0.569809,1.04338 1.292669,0.016 1.521354,-0.0524 1.521354,-0.45502 z m -7.796755,-1.37503 c 0.207965,-0.65524 -0.106354,-1.04206 -0.895011,-1.10147 -0.417664,-0.0315 -0.528754,-0.16828 -0.418555,-0.51549 0.174114,-0.54858 -1.115682,-1.20082 -1.538497,-0.778 -0.452009,0.45201 -0.104769,1.49016 0.528505,1.5801 0.360392,0.0512 0.595313,0.26871 0.595313,0.55122 0,0.9835 1.430509,1.20172 1.728245,0.26364 z m -3.210901,-0.12953 c 0.215045,-0.5604 -0.02513,-0.90217 -0.634011,-0.90217 -0.594765,0 -0.896585,0.40872 -0.693208,0.93872 0.197824,0.51552 1.125167,0.48998 1.327219,-0.0366 z m 5.155567,-1.0473 c 0.563563,-0.56356 0.17399,-1.35073 -0.591642,-1.19546 -0.667806,0.13543 -0.849503,0.31744 -0.919303,0.9209 -0.08027,0.694 0.911323,0.87418 1.510945,0.27456 z m -1.695624,-1.60537 c 0.56538,-0.56538 0.388281,-1.00881 -0.442537,-1.10808 -0.773531,-0.0924 -1.191964,0.59541 -0.713169,1.17233 0.391446,0.47166 0.633238,0.45822 1.155706,-0.0642 z m 4.899083,0.0341 c 0.42849,-0.5163 0.152829,-1.19399 -0.485669,-1.19399 -0.641887,0 -1.204915,0.66536 -1.004647,1.18725 0.196779,0.5128 1.067059,0.51674 1.490316,0.007 z m 19.364627,-1.49372 c -0.04677,-0.19895 -0.195601,-0.47484 -0.330729,-0.61309 -0.338548,-0.34636 -0.886772,0.23952 -0.694058,0.74173 0.187558,0.48877 1.14178,0.36898 1.024787,-0.12864 z M -87.82545,140.2302 c 0.390165,-0.30441 0.471778,-2.70063 0.104491,-3.06791 -0.637836,-0.63784 -3.026775,2.08273 -2.662475,3.03208 0.178784,0.4659 1.974519,0.49105 2.557984,0.0358 z m -3.654256,-1.08751 c 0.653417,-0.49601 0.578755,-1.00784 -0.132292,-0.90686 -0.382577,0.0543 -0.625525,0.29729 -0.67986,0.67986 -0.09564,0.67345 0.138004,0.73876 0.812152,0.227 z m 27.950576,-0.31828 c 0.688729,-0.34358 0.787572,-0.49233 0.531878,-0.80042 -0.27155,-0.3272 -0.374409,-0.3238 -0.759973,0.0251 -0.245256,0.22195 -0.644903,0.40355 -0.888106,0.40355 -0.452019,0 -0.581776,0.30138 -0.265798,0.61736 0.256535,0.25653 0.441191,0.22372 1.381999,-0.24562 z m -19.485185,-1.33449 c 0.15656,-0.34361 0.454057,-0.62475 0.661107,-0.62475 0.999926,0 0.0032,-0.67118 -1.101072,-0.74143 -1.871501,-0.11906 -2.733553,0.99569 -1.459873,1.88781 0.707864,0.49581 1.540415,0.26721 1.899838,-0.52163 z m -3.816625,-2.14999 c 0.108519,-0.76076 -0.639572,-1.07599 -1.206971,-0.50859 -0.351314,0.35131 -0.362725,0.48852 -0.06996,0.84128 0.476131,0.5737 1.173557,0.392 1.276932,-0.33269 z m 1.89606,-0.39299 c -0.0081,-0.73829 -0.345723,-1.5372 -0.612159,-1.44839 -0.228978,0.0763 -0.339875,0.96965 -0.204438,1.64683 0.05873,0.29367 0.819952,0.10869 0.816597,-0.19844 z m 4.345493,-0.89343 c 0.205248,-0.53486 -0.282165,-1.15709 -0.906389,-1.15709 -0.466124,0 -0.789659,0.49669 -0.789659,1.21227 0,0.54006 1.486188,0.49171 1.696048,-0.0552 z m 3.331035,-1.0531 c 0,-0.52028 -0.102838,-0.65031 -0.418515,-0.52917 -0.230182,0.0883 -0.527839,0.1606 -0.661458,0.1606 -0.133618,0 -0.242943,0.23813 -0.242943,0.52917 0,0.38805 0.176389,0.52916 0.661458,0.52916 0.536406,0 0.661458,-0.1304 0.661458,-0.68976 z m -10.31875,-0.22304 c 0,-0.46835 -0.263549,-0.65849 -0.687327,-0.49587 -0.612039,0.23487 -0.465743,1.11933 0.15816,0.95617 0.291042,-0.0761 0.529167,-0.28324 0.529167,-0.4603 z m 3.713657,-1.66914 c -0.33797,-0.72535 -0.33797,-0.72535 -0.611039,-0.13004 -0.150185,0.32743 -0.501727,0.59532 -0.781201,0.59532 -0.342016,0 -0.478557,0.15137 -0.41766,0.46302 0.05249,0.26862 0.328305,0.46302 0.656952,0.46302 0.311563,0 0.664326,0.097 0.783918,0.21558 0.427718,0.42406 0.720773,-0.85201 0.36903,-1.6069 z m 5.646817,0.85074 c 0.122984,-0.32049 0.27073,-0.34724 0.68707,-0.12442 0.657069,0.35165 1.926426,-0.37162 1.802321,-1.02695 -0.122971,-0.64935 -1.436317,-0.69935 -1.774439,-0.0676 -0.178953,0.33437 -0.459108,0.47403 -0.781685,0.38968 -0.573751,-0.15004 -0.944475,0.28538 -0.726532,0.85333 0.192907,0.50271 0.595815,0.49048 0.793265,-0.0241 z m 6.610208,-1.84067 c 0.08376,-0.21828 0.08376,-0.57547 0,-0.79375 -0.177755,-0.46322 0.823407,-0.57165 1.102883,-0.11944 0.117214,0.18965 0.289576,0.1794 0.544783,-0.0324 0.628753,-0.52182 0.420224,-0.99932 -0.486577,-1.11419 -0.714446,-0.0905 -0.7698,-0.14054 -0.32726,-0.29581 1.059812,-0.37186 1.816764,-2.34251 1.017585,-2.64919 -0.670748,-0.25739 -1.742377,0.56289 -1.545548,1.18304 0.123518,0.38917 0.03796,0.51445 -0.351322,0.51445 -0.28303,0 -0.660741,0.17609 -0.839361,0.39131 -0.248891,0.2999 -0.448535,0.32508 -0.854552,0.10778 -0.378722,-0.20268 -0.612227,-0.2011 -0.818885,0.006 -0.209071,0.20907 -0.201208,0.2891 0.02841,0.2891 0.174625,0 0.3175,0.24927 0.3175,0.55393 0,0.33398 0.213071,0.60966 0.536585,0.69426 0.381098,0.0997 0.491154,0.28347 0.379799,0.63432 -0.296934,0.93556 0.946729,1.54112 1.295964,0.63103 z m -2.080057,-0.52554 c 0,-0.56632 -0.81779,-0.87917 -1.227402,-0.46956 -0.134834,0.13484 -0.166566,0.44995 -0.07051,0.70026 0.245062,0.63863 1.297913,0.45148 1.297912,-0.2307 z m 7.224133,-1.4904 c 0.05878,-0.50679 -0.05965,-0.72964 -0.440708,-0.82929 -0.597435,-0.15623 -1.094883,0.23889 -1.094883,0.86967 0,1.07781 1.410195,1.04072 1.535591,-0.0404 z M -78.7352,127.97333 c 0.230184,-0.0883 0.418515,-0.33518 0.418515,-0.54856 0,-0.54289 -0.898777,-0.32083 -1.008549,0.24918 -0.09713,0.50433 -0.03121,0.53778 0.590034,0.29938 z m 18.628479,-0.89773 c 1.481518,0 1.900872,-0.71518 0.945586,-1.61262 -0.367257,-0.34502 -0.918064,-1.03234 -1.224015,-1.52738 -0.625261,-1.0117 -1.415957,-0.55847 -1.185172,0.67934 0.08081,0.43341 -0.03349,0.60233 -0.447567,0.66146 -0.72935,0.10415 -0.853511,1.03663 -0.258871,1.94417 0.409774,0.62539 0.497489,0.65718 0.773126,0.28023 0.198147,-0.27098 0.704797,-0.4252 1.396913,-0.4252 z m -4.542166,-0.99768 c -0.498104,-0.4981 -1.496965,-0.18236 -1.496965,0.4732 0,0.84598 0.847598,1.13169 1.401316,0.47235 0.412866,-0.49161 0.425426,-0.61577 0.09565,-0.94555 z m -2.158423,-1.64815 c 0,-0.88859 -1.314958,-1.12329 -1.581867,-0.28234 -0.242718,0.76474 0.06174,1.11971 0.87925,1.0251 0.551386,-0.0638 0.702617,-0.22368 0.702617,-0.74276 z m 2.116667,-0.66509 c 0,-0.34388 -0.20619,-0.55482 -0.596495,-0.61024 -0.705758,-0.10022 -1.129295,0.67511 -0.56654,1.03711 0.574072,0.36929 1.163035,0.15312 1.163035,-0.42687 z m 3.439583,-1.71616 c -0.08994,-0.14552 -0.03743,-0.26459 0.116676,-0.26459 0.154109,0 0.280199,-0.17859 0.280199,-0.39687 0,-0.44959 -0.936736,-0.54309 -1.198457,-0.11962 -0.258508,0.41827 0.06807,1.04566 0.544309,1.04566 0.231437,0 0.34721,-0.11906 0.257273,-0.26458 z m 58.0760427,-2.36564 c 0,-0.71244 -0.5005229,-0.9514 -0.9827392,-0.46919 -0.4822164,0.48222 -0.2432527,0.98274 0.4691882,0.98274 0.3319569,0 0.513551,-0.18159 0.513551,-0.51355 z m 3.65190358,-0.97331 c 0.0539882,-0.37834 -0.091694,-0.60573 -0.44770147,-0.69883 -0.65806638,-0.17209 -0.82295207,-0.0132 -0.82295207,0.79299 0,0.84172 1.14925741,0.75656 1.27065354,-0.0942 z m 6.33147132,-0.97844 c -0.1845522,-0.56078 -1.2521248,-0.5424 -1.2521248,0.0216 0,0.27691 0.075187,0.57866 0.1670791,0.67056 0.2595907,0.25959 1.2006924,-0.34071 1.0850457,-0.69211 z m -3.9257897,0.24988 c 0.7238048,-0.87213 -0.4380706,-1.76039 -1.200568,-0.91784 -0.4699424,0.51928 -0.4691777,0.54633 0.025717,0.9082 0.6349471,0.46429 0.7964355,0.46561 1.1748585,0.01 z m 5.9809567,-0.95958 c 0,-0.75423 -0.8350991,-1.07402 -1.0874402,-0.41643 -0.2407179,0.6273 0.09988,1.26083 0.6236203,1.15997 0.292899,-0.0564 0.4638199,-0.33041 0.4638199,-0.74354 z m 2.2489584,0.1323 c 0,-0.21829 -0.171566,-0.39688 -0.381259,-0.39688 -0.442027,0 -0.740413,0.37763 -0.493493,0.62455 0.316219,0.31622 0.874752,0.17085 0.874752,-0.22767 z m -4.3211407,-0.81427 c 0.1917223,-0.49962 -0.5334477,-1.30795 -0.9451367,-1.05351 -0.1594856,0.0986 -0.2899728,0.46984 -0.2899728,0.82506 0,0.75045 0.9662213,0.92916 1.2351095,0.22845 z m 6.0409327,-0.76961 c 0,-0.58371 -0.822564,-0.8744 -1.253861,-0.4431 -0.444701,0.4447 -0.0061,1.14755 0.657365,1.05335 0.390306,-0.0554 0.596496,-0.26637 0.596496,-0.61025 z m 5.111631,-1.14883 c 0.05495,-0.37345 -0.05536,-0.57459 -0.315114,-0.57459 -0.514509,0 -0.785077,0.44321 -0.586491,0.96072 0.215458,0.56147 0.798941,0.31158 0.901605,-0.38613 z m 6.455542,-0.0781 c 0.832154,-0.27307 1.707131,-0.49649 1.944391,-0.49649 0.875033,0 2.231144,-0.84395 2.231144,-1.38851 0,-0.68701 -0.564676,-2.58024 -0.769583,-2.58024 -0.990745,0 -5.55267,1.23873 -5.964063,1.61947 -0.138245,0.12794 -0.414639,0.23262 -0.614211,0.23262 -0.672976,0 -1.087935,0.63114 -0.671016,1.0206 0.214421,0.20031 0.298424,0.56443 0.201015,0.87133 -0.103291,0.32544 0.0079,0.72088 0.29052,1.03317 0.502669,0.55544 0.790017,0.5287 3.351803,-0.31195 z m -9.582798,0.41066 c 0,-0.0832 -0.17009,-0.32128 -0.377976,-0.52917 -0.512731,-0.51273 -0.680358,-0.47548 -0.680358,0.15119 0,0.35278 0.17639,0.52917 0.529167,0.52917 0.291042,0 0.529167,-0.068 0.529167,-0.15119 z m 12.13072,-5.63926 c 0.521975,-0.33079 0.257738,-1.208 -0.391936,-1.30115 -0.663445,-0.0951 -1.039256,0.64087 -0.598453,1.17201 0.348758,0.42022 0.49996,0.43994 0.990389,0.12914 z m 26.082149,-7.58939 c 0.58665,-0.58665 0.09699,-1.44827 -0.781722,-1.37555 -0.515165,0.0426 -0.654063,0.20108 -0.654063,0.74608 0,1.1149 0.660699,1.40456 1.435785,0.62947 z m 5.178798,-1.45888 c 0,-0.644801 -0.61827,-0.553657 -0.747003,0.11012 -0.05064,0.26108 0.08434,0.4411 0.330729,0.4411 0.245435,0 0.416274,-0.22622 0.416274,-0.55122 z M 61.6479,98.919115 c 0,-0.664964 -0.311409,-1.212265 -0.689766,-1.212265 -0.20271,0 -0.368567,-0.178594 -0.368567,-0.396875 0,-0.464254 -0.417322,-0.527312 -0.679741,-0.102711 -0.09999,0.161792 -0.03223,0.386603 0.150574,0.499586 0.182809,0.112982 0.247042,0.343495 0.142743,0.512254 -0.104299,0.16876 -0.123288,0.479727 -0.0422,0.691042 0.192524,0.501703 1.486958,0.509513 1.486958,0.009 z m -3.606207,-0.645163 c 0.389988,-0.430929 0.396579,-0.531047 0.05371,-0.815609 -0.593418,-0.492493 -1.474581,-0.09618 -1.474581,0.663212 0,0.791004 0.768366,0.873416 1.420876,0.152397 z m 6.891859,0.330632 c 0.530915,-0.203732 0.545592,-1.056939 0.02164,-1.257999 -0.584036,-0.224115 -1.190625,0.08618 -1.190625,0.609058 0,0.757052 0.36264,0.958366 1.168985,0.648941 z M 63.2354,96.882241 c 0,-0.616989 -0.85214,-0.668684 -1.339651,-0.08127 -0.283163,0.341188 -0.283729,0.455596 -0.0031,0.629028 0.536604,0.331639 1.34276,0.0028 1.34276,-0.547762 z m 8.249958,0.249839 c 1.189175,-0.356286 1.375214,-1.339014 0.282855,-1.494153 -0.373555,-0.05305 -0.595312,-0.267771 -0.595312,-0.576413 0,-1.273995 -1.495513,-1.704039 -2.48498,-0.714571 -0.334862,0.334862 -0.732349,0.567672 -0.883304,0.517353 -0.290761,-0.09692 -1.129633,0.622192 -1.129633,0.968362 0,0.680267 1.060318,1.160661 1.561232,0.707337 0.29568,-0.267584 0.568915,-0.348303 0.663107,-0.195895 0.08811,0.142571 0.01931,0.306181 -0.152869,0.36358 -1.54391,0.514636 1.080445,0.921287 2.738904,0.4244 z m -5.193001,-1.035783 c 0.09777,-0.158203 0.05805,-0.407356 -0.08827,-0.553678 -0.328379,-0.32838 -1.472128,0.215527 -1.240689,0.590005 0.211693,0.34253 1.10999,0.317974 1.32896,-0.03633 z m 6.864919,-1.829031 c 0,-0.789609 -0.914136,-1.048829 -1.444612,-0.409643 -0.276911,0.333655 -0.276911,0.485632 0,0.819287 0.530476,0.639186 1.444612,0.379966 1.444612,-0.409644 z m 4.894791,0.296979 c 0,-0.760052 -0.608295,-1.152382 -1.160587,-0.748535 -0.618889,0.452543 -0.283125,1.245306 0.527437,1.245306 0.442997,0 0.63315,-0.149193 0.63315,-0.496771 z m -2.38125,-0.661458 c 0,-1.171721 -1.32539,-1.627018 -1.931977,-0.66367 -0.461028,0.732179 -0.02844,1.292733 0.997633,1.292733 0.807413,0 0.934344,-0.08546 0.934344,-0.629063 z m 5.135632,-0.06593 c 0.185311,-0.482912 -0.263332,-1.157089 -0.770007,-1.157089 -0.506674,0 -0.955317,0.674177 -0.770006,1.157089 0.09084,0.236726 0.437343,0.430411 0.770006,0.430411 0.332664,0 0.679167,-0.193685 0.770007,-0.430411 z m -2.093675,-1.154721 c 0.198768,-0.62626 -0.02024,-1.060701 -0.53472,-1.060701 -0.444233,0 -1.01129,0.960726 -0.784066,1.328386 0.280601,0.454022 1.145439,0.278479 1.318786,-0.267685 z M 87.697805,92.32406 C 88.3955,91.813891 88.06185,90.5631 87.228069,90.5631 c -1.154107,0 -1.701213,1.291701 -0.775481,1.83089 0.605891,0.352899 0.672042,0.349184 1.245217,-0.06993 z m -2.551618,-0.508027 c 0.105301,-0.546782 -0.658498,-0.91522 -1.06162,-0.512098 -0.403121,0.403122 -0.03468,1.166921 0.512099,1.06162 0.253431,-0.04881 0.500716,-0.29609 0.549521,-0.549522 z m -2.379364,-0.41376 c 0.06287,-0.427236 -0.05187,-0.574588 -0.447405,-0.574588 -0.696357,0 -0.956974,0.451554 -0.546251,0.946444 0.429641,0.517686 0.888006,0.346154 0.993656,-0.371856 z m 8.221994,0.120406 c 0.409151,-0.493003 0.08787,-1.224161 -0.537951,-1.224161 -0.641969,0 -0.919385,0.67632 -0.489744,1.193994 0.405421,0.488524 0.641535,0.495456 1.027695,0.03017 z m -1.940849,-1.514133 c 0.357016,-0.577665 -0.614569,-1.208921 -1.105331,-0.718156 -0.500089,0.500089 -0.284311,1.008128 0.42818,1.008128 0.273865,0 0.578583,-0.130487 0.677151,-0.289972 z m 8.08077,-0.01794 c 1.368239,-0.468448 1.550617,-1.544161 0.261831,-1.544161 -0.261673,0 -0.457941,-0.231992 -0.483526,-0.571506 -0.08104,-1.075888 -1.089157,-1.31931 -1.940031,-0.468445 -0.504666,0.504672 -0.515805,0.595996 -0.14224,1.166136 0.365363,0.557606 0.364226,0.634346 -0.01138,0.778496 -1.438883,0.552146 0.780283,1.165051 2.315369,0.63948 z m -2.937087,-1.027697 c 0,-0.674228 -0.36195,-0.829382 -0.943213,-0.404339 -0.409178,0.299193 -0.434764,0.428765 -0.151924,0.769548 0.422963,0.509662 1.095137,0.28551 1.095137,-0.365209 z m -12.647425,0.11249 c 0.303392,-0.187508 -0.07411,-0.893548 -0.477758,-0.893548 -0.202711,0 -0.368567,0.178593 -0.368567,0.396875 0,0.218281 -0.231098,0.396875 -0.513551,0.396875 -0.282454,0 -0.597324,0.13554 -0.699707,0.301204 -0.176101,0.284938 1.544984,0.116634 2.059583,-0.201406 z m 10.86662,0.09864 c 0.187643,-0.537993 -0.09303,-0.992187 -0.613145,-0.992187 -0.650187,0 -0.900589,0.463208 -0.506836,0.93763 0.392218,0.472594 0.964433,0.500467 1.119981,0.05456 z m 10.766084,-1.111768 c 0.36052,-0.434396 0.28292,-1.245153 -0.13243,-1.383414 -0.55843,-0.185888 -1.25243,0.593185 -1.06225,1.192427 0.2104,0.662889 0.73361,0.746535 1.19468,0.190987 z m -4.222779,0.0089 c 0,-0.06086 0.06638,-0.283633 0.147505,-0.495051 0.192035,-0.500459 -0.579358,-1.267113 -1.081193,-1.074539 -0.393171,0.150873 -0.53856,1.178131 -0.212831,1.503852 0.191505,0.191516 1.146519,0.246271 1.146519,0.06574 z m 7.785579,-1.3888 c 0.22529,-0.58709 -0.27223,-1.092653 -0.67697,-0.687917 -0.3239,0.323921 -0.13628,1.129035 0.26311,1.129035 0.13451,0 0.32075,-0.198503 0.41386,-0.441118 z m -5.66891,-0.484923 c 0,-0.704652 -0.48038,-0.868993 -1.00542,-0.343959 -0.525038,0.525034 -0.360705,1.005417 0.34396,1.005417 0.52917,0 0.66146,-0.132292 0.66146,-0.661458 z m 3.61532,-0.01778 c 0.2205,-0.574665 -0.33933,-1.115089 -0.74004,-0.714375 -0.33867,0.338677 -0.12885,1.129035 0.29972,1.129035 0.15465,0 0.35279,-0.186597 0.44032,-0.41466 z m 4.53599,-1.216274 c 0.0835,-0.722101 -0.67609,-1.250982 -1.26979,-0.884071 -0.30514,0.188603 -0.36057,1.274834 -0.0794,1.556028 0.43521,0.435187 1.26918,0.01982 1.34919,-0.671957 z m 2.80405,-0.295762 c 0.19966,-0.316542 0.18587,-0.531643 -0.0491,-0.766662 -0.4395,-0.439486 -1.26172,0.346199 -1.02039,0.975053 0.19648,0.512017 0.67376,0.419021 1.06952,-0.208391 z m 4.08578,0.105003 c 0.48035,-0.304414 0.27961,-1.19312 -0.29446,-1.303677 -0.51424,-0.09904 -0.86172,0.53217 -0.62809,1.140995 0.17227,0.448903 0.4059,0.490101 0.92255,0.162682 z m 4.80261,-1.384171 c 0,-0.168103 0.23505,-0.233973 0.54536,-0.152828 0.33305,0.0871 0.60132,-0.0033 0.68918,-0.232207 0.0791,-0.20615 0.24043,-0.315118 0.35849,-0.242152 0.3329,0.205748 1.63295,-0.368334 1.46166,-0.645459 -0.0837,-0.13539 0.11631,-0.28444 0.44442,-0.331226 0.32809,-0.04678 0.63336,-0.27844 0.67837,-0.514789 0.0968,-0.508286 -0.74607,-0.911178 -1.01066,-0.48309 -0.12245,0.198123 -0.23585,0.157417 -0.34359,-0.12333 -0.21859,-0.56972 -2.30208,-0.5564 -3.87273,0.02477 -1.50693,0.557591 -1.47143,0.524298 -1.07249,1.004993 0.28173,0.339437 0.24712,0.40327 -0.21857,0.40327 -0.41262,0 -0.51181,-0.117697 -0.39023,-0.463021 0.12716,-0.361217 0.0381,-0.33456 -0.40519,0.12123 -1.1521,1.184653 -0.46767,1.881203 1.87921,1.912519 0.75898,0.01013 1.25677,-0.100248 1.25677,-0.278669 z m 10.67062,-4.048286 c 0.15298,-0.398685 -0.50073,-0.786112 -0.9049,-0.536308 -0.1324,0.08182 -0.24072,0.320334 -0.24072,0.530027 0,0.49254 0.957,0.497787 1.14562,0.0063 z m 5.20033,-0.484918 c -0.007,-0.606203 -0.46659,-1.071258 -0.8953,-0.906754 -0.71519,0.274447 -0.53006,1.237483 0.23789,1.237483 0.3638,0 0.65963,-0.148828 0.65741,-0.330729 z m -2.90637,-0.48242 c 0,-0.378645 -0.14248,-0.521129 -0.45998,-0.459983 -0.68971,0.132823 -0.76663,1.008549 -0.0886,1.008549 0.37865,0 0.54856,-0.169924 0.54856,-0.548566 z m 5.5095,-0.597839 c 0.0577,-0.297413 -0.0931,-0.441095 -0.46302,-0.441095 -0.30171,0 -0.54856,0.15875 -0.54856,0.352777 0,0.810352 0.85704,0.885177 1.01158,0.08832 z M 137.26659,76.9695 c -0.051,-0.35706 -0.27157,-0.561636 -0.60569,-0.561636 -0.60539,0 -0.88977,0.888243 -0.38439,1.200587 0.52952,0.327247 1.07747,-0.02638 0.99008,-0.638951 z m 9.04798,-0.0625 c 0.94051,-0.192337 1.15289,-1.160595 0.25458,-1.160595 -0.43029,0 -0.52382,-0.146968 -0.46302,-0.727604 0.0597,-0.570217 -0.0455,-0.744959 -0.4862,-0.807832 -0.85709,-0.122277 -1.49556,0.639099 -1.1217,1.337644 0.24889,0.465079 0.20616,0.634606 -0.25387,1.007113 -0.68355,0.553508 -0.42362,0.869965 0.54735,0.666429 0.401,-0.08406 1.0863,-0.225877 1.52286,-0.315155 z m -4.52633,-0.464902 c 0.42587,-0.513147 -0.45506,-1.5919 -1.0984,-1.345034 -0.53144,0.203936 -0.60597,0.927402 -0.14319,1.390174 0.41828,0.418291 0.87061,0.401844 1.24159,-0.04514 z m 2.01279,-0.666856 c 0,-0.202422 -0.20508,-0.497404 -0.45575,-0.655513 -0.57766,-0.364385 -1.09114,0.07991 -0.84217,0.728712 0.20715,0.539801 1.29792,0.47828 1.29792,-0.0732 z m 4.63021,-1.328666 c 0,-0.626862 -0.67136,-1.185003 -1.18727,-0.987034 -0.4717,0.181015 -0.5321,1.255416 -0.0951,1.692397 0.41402,0.414023 1.28239,-0.06361 1.28239,-0.705363 z m 2.13508,-0.44214 c 0.25209,-0.303782 0.27141,-0.540319 0.0702,-0.859896 -0.39457,-0.626621 -1.18559,-0.710854 -1.5822,-0.168481 -0.73438,1.004337 0.71427,1.989616 1.51204,1.028377 z m 4.66682,-0.01029 c 0.12068,-0.362439 -0.92091,-0.675801 -1.12871,-0.339576 -0.22778,0.368554 0.14774,0.807759 0.61341,0.717415 0.22902,-0.04444 0.46093,-0.214464 0.5153,-0.377839 z m 4.70747,-1.422738 c -0.0899,-0.145521 0.0916,-0.264584 0.4033,-0.264584 0.33589,0 0.52192,-0.134757 0.4566,-0.330729 -0.20151,-0.604559 -1.38023,-0.392925 -1.47363,0.264584 -0.058,0.408275 0.0509,0.595312 0.34637,0.595312 0.23699,0 0.35729,-0.119062 0.26736,-0.264583 z m -2.24896,-1.190625 c 0,-0.218282 -0.17155,-0.396875 -0.38126,-0.396875 -0.44202,0 -0.74041,0.377634 -0.49348,0.624554 0.31621,0.316219 0.87474,0.170844 0.87474,-0.227679 z m 4.23334,-0.409567 c 0,-0.121365 -0.12944,-0.300657 -0.28763,-0.398431 -0.36738,-0.227047 -0.88533,0.276214 -0.65979,0.641096 0.18777,0.303863 0.94742,0.109297 0.94742,-0.242665 z m 7.62254,-0.185746 c -0.049,-0.254661 -0.26451,-0.463021 -0.47879,-0.463021 -0.21429,0 -0.42977,0.20836 -0.47879,0.463021 -0.0626,0.324869 0.0803,0.463021 0.47879,0.463021 0.39848,0 0.54136,-0.138152 0.47879,-0.463021 z m -3.90734,-0.4763 c 0.52839,-0.636691 -0.2652,-1.343149 -1.04185,-0.927481 -0.45855,0.245404 -0.51181,0.397939 -0.28615,0.819579 0.33351,0.623189 0.86452,0.666334 1.328,0.107902 z m 2.85109,-1.512163 c -0.0631,-0.444013 -0.28726,-0.611057 -0.9003,-0.670882 -1.05677,-0.103124 -1.59223,0.477744 -1.16914,1.268293 0.71872,1.342935 2.28108,0.89191 2.06944,-0.597411 z m 5.86912,-0.361595 c 0,-0.549225 -0.55433,-0.714743 -0.97726,-0.291804 -0.3261,0.32611 -0.33901,0.506225 -0.0721,1.005033 0.34309,0.641035 1.04934,0.160994 1.04934,-0.713229 z m -4.36562,0.413403 c 0,-0.20416 -0.20836,-0.411329 -0.46302,-0.460372 -0.45607,-0.08783 -0.64461,0.473591 -0.28112,0.837089 0.27733,0.277336 0.74414,0.04102 0.74414,-0.376717 z m 2.11666,-0.507116 c 0,-0.506195 -0.92908,-0.691398 -1.20761,-0.240728 -0.11697,0.189272 -0.14978,0.44592 -0.0729,0.57033 0.22781,0.368559 1.2805,0.09759 1.2805,-0.329602 z m 4.7625,-0.268208 c 0,-0.218281 -0.26789,-0.434922 -0.59531,-0.481423 -0.45818,-0.06507 -0.59531,0.04583 -0.59531,0.481423 0,0.435594 0.13713,0.546494 0.59531,0.481423 0.32742,-0.0465 0.59531,-0.263142 0.59531,-0.481423 z m -1.80522,-0.68816 c 0.18719,-0.487789 -0.4527,-0.996215 -0.80738,-0.641525 -0.28879,0.288793 -0.0238,1.065102 0.36365,1.065102 0.15464,0 0.35433,-0.190611 0.44373,-0.423577 z m 6.65628,-0.355267 c 0.12332,-0.84288 -0.29604,-1.19322 -0.98618,-0.823859 -0.67816,0.362934 -0.72051,0.952518 -0.0946,1.316442 0.64042,0.372338 0.97657,0.219112 1.08074,-0.492583 z m 1.32006,-1.426694 c 0.10403,-0.536461 -0.66985,-0.888024 -1.07122,-0.48664 -0.20828,0.20828 -0.1923,0.404426 0.0575,0.7054 0.41318,0.49784 0.8949,0.39388 1.01373,-0.21876 z m 21.35902,0.13131 c -0.1574,-0.495927 1.16329,-0.680741 1.84012,-0.257498 0.38222,0.239009 1.65233,-0.0481 1.98475,-0.448662 0.44233,-0.532976 -0.97253,-1.534982 -1.84251,-1.30488 -0.61507,0.162679 -1.17165,0.256435 -2.06197,0.347335 -0.40887,0.04174 -0.45625,2.150433 -0.0483,2.150433 0.15534,0 0.21289,-0.219028 0.12793,-0.486728 z m -17.50245,-0.465762 c 0.31691,-0.121613 0.35073,-0.27632 0.14462,-0.661458 -0.34343,-0.641697 -1.04418,-0.653542 -1.04418,-0.01765 0,0.747816 0.24281,0.931124 0.89956,0.679108 z m 4.65669,-0.105844 c 0,-0.145521 -0.10255,-0.264583 -0.22789,-0.264583 -0.12536,0 -0.171,-0.297656 -0.10146,-0.661458 0.0738,-0.38612 0.003,-0.661459 -0.16897,-0.661459 -0.16248,0 -0.30427,0.148828 -0.31509,0.330729 -0.0109,0.181901 -0.0696,0.59862 -0.13062,0.926042 -0.0849,0.455406 0.013,0.595313 0.41653,0.595313 0.29011,0 0.5275,-0.119063 0.5275,-0.264584 z M 210.95326,63.7224 c -0.22313,-1.199661 -0.4309,-1.29984 -1.90979,-0.920814 -1.87092,0.479504 -1.78504,1.038572 0.15954,1.038572 1.50508,0 1.50508,0 0.92604,0.539474 -0.76681,0.714399 -0.73101,0.794835 0.19775,0.444262 0.6834,-0.257953 0.75872,-0.390411 0.62646,-1.101494 z m -16.48452,-0.146826 c 0,-0.291041 -0.11203,-0.529166 -0.24898,-0.529166 -0.35515,0 -0.60542,0.481576 -0.41248,0.79375 0.27651,0.447421 0.66146,0.293444 0.66146,-0.264584 z m -1.63256,-0.198437 c 0.47768,-0.928775 -0.32914,-1.551946 -0.98544,-0.76114 -0.36296,0.437343 -0.11356,1.224161 0.38803,1.224161 0.1976,0 0.46644,-0.20836 0.59741,-0.463021 z m 4.49318,0.003 c -0.13282,-0.689697 -1.00854,-0.766617 -1.00854,-0.08858 0,0.378643 0.16991,0.548566 0.54856,0.548566 0.37865,0 0.52112,-0.142484 0.45998,-0.459984 z m -2.64568,-1.197501 c 0.10531,-0.546783 -0.65849,-0.91522 -1.06161,-0.512098 -0.40312,0.403121 -0.0347,1.166921 0.5121,1.061619 0.25342,-0.04881 0.50072,-0.29609 0.54951,-0.549521 z m 3.19681,-0.293354 c 0.40915,-0.493004 0.0879,-1.224161 -0.53796,-1.224161 -0.56835,0 -0.89365,0.585525 -0.66145,1.190625 0.19036,0.496096 0.80134,0.51318 1.19941,0.03354 z m 10.29885,-1.425303 c 0.0632,-0.443227 -0.0479,-0.592608 -0.44098,-0.592608 -0.56047,0 -0.8372,0.441748 -0.62966,1.005176 0.19971,0.542126 0.97716,0.242527 1.07064,-0.412568 z m 5.99853,-0.716981 c 0.43529,-0.09554 0.98044,-0.344763 1.21144,-0.553834 0.23104,-0.209068 0.50634,-0.380127 0.6118,-0.380127 0.3511,0 2.01552,-1.450506 2.01554,-1.756492 3e-5,-1.387649 -5.98104,-0.246266 -8.26823,1.577843 -1.51852,1.21108 1.04593,1.855229 4.42945,1.11261 z m -5.9508,-0.801674 c 0,-0.478406 -0.84138,-0.747914 -1.08818,-0.348565 -0.11247,0.181949 -0.0835,0.476562 0.0643,0.654693 0.32062,0.386308 1.02386,0.176041 1.02386,-0.306128 z m -1.9181,-0.198438 c -0.16671,-0.500642 -0.99232,-0.571817 -0.99232,-0.08554 0,0.245436 0.22622,0.416275 0.55121,0.416275 0.32332,0 0.5057,-0.136742 0.44111,-0.33073 z m -314.6214,124.166124 c 0.34158,-0.68469 1.52143,-1.86248 1.86575,-1.86248 0.097,0 -0.0975,0.29157 -0.43231,0.64794 -0.40113,0.42698 -0.56759,0.8631 -0.48812,1.27884 0.10272,0.53734 0.0159,0.63087 -0.58575,0.63087 -0.67418,0 -0.69056,-0.0317 -0.35957,-0.69517 z m 1.99163,-0.41857 c 0.30418,-0.51554 0.59833,-0.89204 0.65369,-0.83669 0.16541,0.16542 -0.71455,1.77403 -0.97045,1.77403 -0.12995,0 0.0126,-0.4218 0.31676,-0.93734 z m 25.887448,-41.97824 c 0,-0.37705 0.122285,-0.48578 0.418515,-0.3721 0.230183,0.0883 0.534866,0.1606 0.677072,0.1606 0.43125,0 0.0075,0.45574 -0.562298,0.60475 -0.404257,0.10571 -0.533289,0.0106 -0.533289,-0.39325 z m 1.888993,-0.84831 c 0.263223,-0.57771 0.366175,-0.6103 1.109467,-0.35119 0.819316,0.28562 0.819316,0.28562 -0.09739,0.61668 -1.284602,0.46392 -1.338037,0.44991 -1.012081,-0.26549 z m 50.003033,-14.85611 c 0.241197,-0.2412 1.059006,-0.46302 1.974924,-0.53568 1.563259,-0.12402 1.563259,-0.12402 -0.288824,0.4047 -2.249241,0.6421 -2.192846,0.63772 -1.6861,0.13098 z m 10.572676,-6.13909 c -0.520586,-1.07125 -0.524867,-1.14978 -0.08686,-1.59324 0.253389,-0.25655 0.657892,-0.76152 0.898901,-1.12216 0.26144,-0.39123 0.431395,-0.49563 0.421338,-0.25884 -0.05471,1.28842 0.560967,1.78095 1.301078,1.04084 0.199702,-0.1997 0.323964,-0.12186 0.42554,0.26657 0.0954,0.36481 -0.03531,0.67386 -0.390128,0.92238 -0.322461,0.22587 -0.453726,0.50298 -0.331743,0.70036 0.129728,0.2099 0.09271,0.25915 -0.103608,0.13782 -0.199189,-0.12311 -0.305464,0.037 -0.305464,0.4603 0,1.15144 -1.172919,0.79616 -1.829049,-0.55403 z m 1.564466,-0.43046 c 0,-0.58298 -0.721799,-1.81592 -0.89707,-1.53233 -0.266523,0.43124 0.145643,1.89896 0.533268,1.89896 0.200091,0 0.363802,-0.16498 0.363802,-0.36663 z m -34.618412,-0.50879 c -0.166098,-0.20014 -0.226534,-0.43935 -0.134297,-0.53159 0.09223,-0.0922 0.02588,-0.33857 -0.147437,-0.54741 -0.185436,-0.22344 -0.213291,-0.44266 -0.06768,-0.53265 0.136099,-0.0841 0.396817,0.027 0.579372,0.247 0.191039,0.23019 0.540657,0.33369 0.823727,0.24384 0.57626,-0.1829 0.665853,0.28504 0.113731,0.59402 -0.207944,0.11638 -0.377608,0.32767 -0.377031,0.46956 0.0016,0.4172 -0.463667,0.45089 -0.790382,0.0572 z m 2.170205,-0.64593 c 0.02021,-0.25466 0.423701,-0.7352 0.896644,-1.06787 0.472943,-0.33267 0.859896,-0.71962 0.859896,-0.8599 0,-0.4199 0.724498,-0.28798 0.897734,0.16347 0.08833,0.23018 0.160599,0.45343 0.160599,0.4961 0,0.0427 -0.386953,0.16312 -0.859896,0.26767 -0.472943,0.10456 -0.719918,0.24548 -0.548833,0.31316 0.171085,0.0677 0.825929,-0.0181 1.455208,-0.19065 0.962473,-0.26388 1.060122,-0.34741 0.614979,-0.52606 -0.607906,-0.24398 -0.355422,-0.32228 0.833176,-0.2584 0.977725,0.0525 1.363668,-0.3706 0.693743,-0.76061 -0.43551,-0.25354 -0.431234,-0.27552 0.06058,-0.31131 0.899478,-0.0655 1.583479,0.062 1.675694,0.31224 0.04851,0.13164 0.346165,0.24117 0.661458,0.2434 0.46712,0.003 0.49978,0.0515 0.17639,0.26053 -0.218281,0.14107 -0.597485,0.2583 -0.842671,0.26053 -0.24519,0.002 -0.780971,0.14638 -1.190625,0.32033 -0.409657,0.17396 -0.863891,0.33429 -1.009412,0.3563 -0.310722,0.047 -0.871128,0.25261 -2.56259,0.94017 -1.538624,0.62544 -2.019258,0.63541 -1.972074,0.0409 z m 41.8091627,-1.6874 c -0.1280557,-0.20585 -0.5900182,-0.53613 -1.0265807,-0.73396 -0.7937501,-0.3597 -0.7937501,-0.3597 0.79375,-1.09864 2.0052083,-0.93338 2.5369308,-0.98783 1.780159,-0.18228 -0.3085756,0.32846 -0.7305702,1.00039 -0.9377707,1.49318 -0.2872793,0.68323 -0.432009,0.8071 -0.6095576,0.5217 z M -51.87048,114.61752 c -0.16243,-0.3035 -0.209849,-0.63092 -0.105378,-0.7276 0.104473,-0.0967 0.240228,-0.0356 0.301678,0.13578 0.07223,0.20142 0.456911,0.25855 1.088257,0.16161 0.97653,-0.14994 0.97653,-0.14994 0.340734,0.41605 -0.800164,0.71231 -1.249559,0.71623 -1.625291,0.0142 z m 4.047024,-0.43664 c -0.476167,-0.16407 -0.406839,-0.51543 0.132292,-0.67045 0.254662,-0.0732 0.67138,-0.2189 0.926042,-0.32375 0.354782,-0.14605 0.463021,-0.0603 0.463021,0.36686 0,0.60769 -0.383223,0.74309 -0.691486,0.24431 -0.139555,-0.22581 -0.23617,-0.20017 -0.346342,0.0919 -0.08404,0.22279 -0.301625,0.35379 -0.483527,0.29112 z m -5.066355,-1.49269 c -0.192863,-0.23239 -0.274937,-0.61985 -0.182388,-0.86102 0.09469,-0.24677 -0.02138,-0.64809 -0.265485,-0.91781 -0.391041,-0.4321 -0.393531,-0.51953 -0.02527,-0.88778 0.603766,-0.60377 0.656304,-0.54037 0.852299,1.02832 0.21848,1.74865 0.108138,2.22543 -0.379147,1.63829 z m 34.36896,-0.78203 c 0,-0.57071 0.300596,-0.70735 0.692957,-0.31498 0.500078,0.50007 0.458949,0.66775 -0.16379,0.66775 -0.291042,0 -0.529167,-0.15875 -0.529167,-0.35277 z m -9.235974,-1.59916 c -0.278961,-0.33837 -0.29667,-0.52751 -0.07056,-0.75362 0.400513,-0.40051 0.638752,-0.12666 0.530513,0.60983 -0.08103,0.55137 -0.115146,0.56204 -0.459956,0.14379 z M 49.35013,94.275932 c -0.08699,-0.140754 -0.510735,-0.185402 -0.941654,-0.09922 -1.043329,0.208666 -0.986013,-0.17091 0.135493,-0.897295 1.111914,-0.720172 1.726848,-0.546753 1.726848,0.48699 0,0.753827 -0.573532,1.071231 -0.920687,0.509525 z m 1.48576,-0.607759 c -0.508532,-0.508532 -0.338211,-0.723823 0.572635,-0.723823 0.480219,0 1.016,-0.142875 1.190625,-0.3175 0.224118,-0.224118 0.400183,-0.234818 0.59862,-0.03638 0.198438,0.198437 0.05218,0.326908 -0.497274,0.436798 -0.428117,0.08562 -0.955183,0.332467 -1.171255,0.548539 -0.293203,0.293203 -0.469085,0.316632 -0.693351,0.09237 z M 232.58085,59.461654 c 0.34846,-0.370898 0.63709,-0.936445 0.64143,-1.256771 0.009,-0.673481 0.75166,-0.804463 0.87678,-0.15467 0.10464,0.543253 -1.17647,2.085803 -1.73225,2.085803 -0.32692,0 -0.27969,-0.148791 0.21404,-0.674362 z m -398.9245,-72.086056 c 0,-0.800365 0.0496,-1.127786 0.11022,-0.727604 0.0606,0.400182 0.0606,1.055026 0,1.455208 -0.0606,0.400183 -0.11022,0.07276 -0.11022,-0.727604 z m -8.28137,-3.604146 c 0,-0.655021 0.0324,-0.672211 0.58081,-0.308086 0.85189,0.565634 0.8966,1.001815 0.1027,1.001815 -0.56117,0 -0.68351,-0.124171 -0.68351,-0.693729 z m 1.95355,-1.468581 c -0.30002,-1.050591 -1.42438,-1.446794 -1.42438,-0.501925 0,0.301162 -0.11907,0.547569 -0.26459,0.547569 -0.58121,0 0.10202,-2.350609 0.81051,-2.788481 0.50871,-0.314402 0.22402,-0.655212 -0.41363,-0.495168 -0.7064,0.177295 -0.86392,-0.11222 -0.34396,-0.632185 0.24694,-0.246943 0.24694,-0.3175 0,-0.3175 -0.23372,0 -0.3175,-1.117129 -0.3175,-4.233333 0,-4.233334 0,-4.233334 5.55625,-4.233334 3.52778,0 5.55625,0.0966 5.55625,0.264584 0,0.145521 -0.11906,0.264583 -0.26458,0.264583 -0.14552,0 -0.26459,0.186616 -0.26459,0.414705 0,0.28002 -0.15576,0.365266 -0.47962,0.262478 -0.75499,-0.239623 -1.83211,1.10622 -1.23486,1.542939 0.40363,0.295142 0.40466,0.350054 0.0126,0.675425 -0.27284,0.226441 -0.36615,0.555379 -0.25874,0.91212 0.13684,0.454445 0.10359,0.496601 -0.17923,0.227229 -0.45241,-0.430898 -1.53729,-0.462444 -1.10703,-0.03219 0.22166,0.22166 0.21825,0.428138 -0.0132,0.801823 -0.24956,0.402865 -0.23285,0.552376 0.0838,0.74931 0.5012,0.311759 0.62539,1.589913 0.15448,1.589913 -0.2162,0 -0.30123,-0.22547 -0.2285,-0.605922 0.0855,-0.447199 -0.0627,-0.701495 -0.56586,-0.970751 -0.48045,-0.25713 -0.67262,-0.566423 -0.65099,-1.047724 0.0201,-0.448357 0.0722,-0.523872 0.15169,-0.219874 0.123,0.470673 0.61137,0.655064 0.61137,0.230833 0,-0.587507 -0.80457,-0.906155 -1.4944,-0.591849 -0.57596,0.262425 -0.66031,0.435415 -0.53,1.086975 0.0876,0.437801 0.031,0.851522 -0.1301,0.951066 -0.16294,0.100706 -0.22303,0.558506 -0.14026,1.068591 0.14502,0.893604 0.0152,1.026089 -0.88024,0.898599 -0.54338,-0.07736 -0.61524,-0.182036 -0.38299,-0.557839 0.14609,-0.236377 0.29419,-0.192331 0.55567,0.165258 0.32019,0.437894 0.35648,0.376878 0.35648,-0.599329 0,-0.628417 0.13951,-1.138004 0.33073,-1.208121 0.26459,-0.09701 0.26459,-0.191382 0,-0.47184 -0.23886,-0.25319 -0.33073,-0.262379 -0.33073,-0.03307 0,0.174625 -0.20836,0.319323 -0.46302,0.321551 -0.39289,0.0034 -0.40324,0.04184 -0.0683,0.253566 0.30856,0.195083 0.32488,0.319289 0.0748,0.56936 -0.25006,0.250068 -0.35677,0.223612 -0.48911,-0.121275 -0.10603,-0.276299 -0.46623,-0.441118 -0.96403,-0.441118 -0.79475,0 -0.79475,0 -0.17013,0.529166 0.62463,0.529167 0.62463,0.529167 0,1.058334 -0.55514,0.470304 -0.56986,0.530103 -0.13229,0.53758 0.47078,0.008 0.46984,0.02543 -0.0213,0.396875 -0.28247,0.213654 -0.37177,0.388461 -0.19844,0.388461 0.46521,0 0.3828,0.547675 -0.14786,0.982657 -0.43075,0.353076 -0.4229,0.371031 0.11249,0.257554 0.44682,-0.09471 0.53929,-0.02514 0.41348,0.311089 -0.1375,0.367519 -0.098,0.381053 0.26094,0.0894 0.37853,-0.307563 0.40786,-0.224163 0.27908,0.79375 -0.21201,1.675791 -0.46945,1.99822 -0.76609,0.959487 z m -0.55315,-4.783002 c 0.88746,-0.41215 0.88746,-0.513893 0,-0.926042 -0.98949,-0.459531 -1.04762,-0.43384 -1.04762,0.463021 0,0.896861 0.0581,0.922552 1.04762,0.463021 z m 4.9496,-4.45067 c 0,-0.155914 0.17859,-0.462077 0.39688,-0.680358 0.51228,-0.512283 0.51039,-0.915196 -0.003,-0.718047 -0.22014,0.08447 -0.57732,0.0066 -0.79375,-0.172993 -0.24779,-0.205645 -0.39351,-0.222813 -0.39351,-0.04636 0,0.154117 -0.38695,0.323033 -0.8599,0.375367 -0.85989,0.09515 -0.85989,0.09515 -0.18756,0.386075 0.36978,0.160009 0.83085,0.481923 1.02458,0.715362 0.40354,0.486233 0.81663,0.557535 0.81663,0.140957 z m -3.58612,6.345846 c -0.27266,-0.441172 0.34057,-0.947079 0.70557,-0.582084 0.30531,0.305308 0.11422,0.86972 -0.29445,0.86972 -0.12834,0 -0.31335,-0.129437 -0.41112,-0.287636 z m 6.11872,-1.807975 c -0.61983,-0.6849 0.28133,-1.291246 1.19352,-0.803058 0.53648,0.287118 0.10604,1.311169 -0.55112,1.311169 -0.10041,0 -0.38949,-0.22865 -0.6424,-0.508111 z m 3.97078,-7.214989 c -0.22319,-0.31864 -0.35714,-0.627999 -0.29768,-0.687459 0.14285,-0.142854 1.44821,0.813073 1.4589,1.068372 0.0179,0.427939 -0.77742,0.167044 -1.16122,-0.380913 z"
       id="path49" />
  </g>
</svg>
