<?xml version="1.0" encoding="UTF-8" standalone="no"?>
<svg
   xmlns:dc="http://purl.org/dc/elements/1.1/"
   xmlns:cc="http://creativecommons.org/ns#"
   xmlns:rdf="http://www.w3.org/1999/02/22-rdf-syntax-ns#"
   xmlns:svg="http://www.w3.org/2000/svg"
   xmlns="http://www.w3.org/2000/svg"
   xmlns:sodipodi="http://sodipodi.sourceforge.net/DTD/sodipodi-0.dtd"
   xmlns:inkscape="http://www.inkscape.org/namespaces/inkscape"
   width="48.662502mm"
   height="49.015125mm"
   viewBox="0 0 48.662502 49.015125"
   version="1.1"
   id="svg8"
   inkscape:version="1.0.2-2 (e86c870879, 2021-01-15)"
   sodipodi:docname="sol.svg">
  <defs
     id="defs2">
    <pattern
       id="EMFhbasepattern"
       patternUnits="userSpaceOnUse"
       width="6"
       height="6"
       x="0"
       y="0" />
  </defs>
  <sodipodi:namedview
     id="base"
     pagecolor="#ffffff"
     bordercolor="#666666"
     borderopacity="1.0"
     inkscape:pageopacity="0.0"
     inkscape:pageshadow="2"
     inkscape:zoom="1.4"
     inkscape:cx="44.540968"
     inkscape:cy="63.130571"
     inkscape:document-units="mm"
     inkscape:current-layer="layer2"
     inkscape:document-rotation="0"
     showgrid="false"
     fit-margin-top="0"
     fit-margin-left="0"
     fit-margin-right="0"
     fit-margin-bottom="0"
     showguides="false"
     inkscape:window-width="1267"
     inkscape:window-height="685"
     inkscape:window-x="0"
     inkscape:window-y="0"
     inkscape:window-maximized="0" />
  <metadata
     id="metadata5">
    <rdf:RDF>
      <cc:Work
         rdf:about="">
        <dc:format>image/svg+xml</dc:format>
        <dc:type
           rdf:resource="http://purl.org/dc/dcmitype/StillImage" />
        <dc:title></dc:title>
      </cc:Work>
    </rdf:RDF>
  </metadata>
  <g
     inkscape:label="Layer 1"
     inkscape:groupmode="layer"
     id="layer1"
     transform="translate(-37.656849,-103.24839)">
    <rect
       style="font-variation-settings:normal;opacity:1;vector-effect:none;fill:#280b0b;fill-opacity:1;fill-rule:evenodd;stroke-width:0.257926;stroke-linecap:butt;stroke-linejoin:miter;stroke-miterlimit:4;stroke-dasharray:none;stroke-dashoffset:0;stroke-opacity:1;stop-color:#000000;stop-opacity:1"
       id="rect41"
       width="49.514877"
       height="50.081841"
       x="37.278873"
       y="102.30345"
       transform="translate(-3.7499998e-7)" />
  </g>
  <g
     inkscape:groupmode="layer"
     id="layer2"
     inkscape:label="Layer 2">
    <g
       id="g23"
       transform="translate(-38.034825,-101.58312)">
      <path
         style="fill:#f6c481;stroke-width:0.352627"
         d="m 61.307631,150.0596 c 0.03991,-3.54889 0.579383,-4.07077 0.728167,-0.70443 0.09555,2.16181 0.01529,2.90979 -0.312168,2.90917 -0.308171,-7e-4 -0.433327,-0.66389 -0.415999,-2.20474 z m 2.619833,1.10797 c 0.149039,-0.65787 0.266856,-2.11784 0.261815,-3.24438 -0.01083,-2.42127 0.153107,-2.38699 0.774083,0.16183 0.252777,1.03753 0.570463,2.20378 0.705969,2.59167 0.192062,0.54978 0.139796,0.52791 -0.237089,-0.0992 -0.548183,-0.91216 -0.975754,-0.69753 -0.975754,0.4898 0,0.44109 -0.180001,0.91323 -0.400002,1.0492 -0.286988,0.17737 -0.32344,-0.0907 -0.129022,-0.94891 z m 3.107237,0.0431 c -0.457598,-1.21232 0.193481,-1.07064 1.447437,0.31497 0.660291,0.72961 0.658141,0.73791 -0.191107,0.73791 -0.62962,0 -0.965004,-0.28107 -1.25633,-1.05288 z m -27.967345,-30.4751 c 0,-0.0671 0.238023,-0.31961 0.528941,-0.56105 0.304878,-0.25303 0.52894,-0.2873 0.52894,-0.0809 0,0.19694 -0.238023,0.44942 -0.52894,0.56105 -0.290918,0.11164 -0.528941,0.14804 -0.528941,0.0809 z"
         id="path39" />
      <path
         style="fill:#e4b378;stroke-width:0.352627"
         d="m 51.850079,151.63376 c -2.405027,-0.60101 -2.391515,-0.57754 -2.214309,-3.84672 0.03358,-0.61958 -0.351,-2.63906 -0.854633,-4.48772 -0.967735,-3.55224 -0.923911,-4.91353 0.17715,-5.50281 1.201082,-0.64279 1.678906,-0.3665 2.302963,1.33166 1.433759,3.90148 3.589612,8.90382 3.83727,8.90382 0.13817,0 0.0012,-1.39066 -0.364233,-3.69688 -0.166704,-1.05219 -0.166704,-1.05219 1.51595,0.57371 1.685752,1.62889 3.064252,2.24894 4.641747,2.08785 0.659409,-0.0673 0.793992,0.0425 0.617097,0.50345 -0.124429,0.32425 -0.226235,1.52867 -0.226235,2.67648 0,2.08691 0,2.08691 -2.060232,2.08691 -1.988389,0 -2.083149,-0.0426 -2.717393,-1.22027 -0.361438,-0.67115 -0.715491,-1.16194 -0.786784,-1.09065 -0.07129,0.0713 0.124176,0.62042 0.434375,1.22027 0.679015,1.31307 -0.421115,1.43092 -4.302733,0.4609 z m 11.133601,0.062 c -0.304264,-1.51506 0.136603,-5.77957 0.597493,-5.77957 0.666904,0 1.078457,2.97625 0.566828,4.09916 -0.218222,0.47894 -0.396767,1.1807 -0.396767,1.55946 0,0.8282 -0.606331,0.92374 -0.767554,0.12095 z m 1.406345,-0.54982 c 0.07875,-0.53655 0.367574,-1.16177 0.641833,-1.38939 0.398407,-0.33065 0.45678,-0.30472 0.290361,0.12896 -0.119947,0.31258 0.112237,0.84143 0.547412,1.24686 0.829258,0.77257 0.538986,1.16803 -0.777378,1.05908 -0.711098,-0.0588 -0.822661,-0.22495 -0.702228,-1.04551 z m 4.088168,0.36097 c -0.667086,-0.75131 -0.666377,-0.75375 0.102021,-0.35073 0.857141,0.44956 1.384919,1.10729 0.888513,1.10729 -0.175332,0 -0.621072,-0.34045 -0.990534,-0.75656 z m -6.814881,-5.44379 c 0.01692,-0.41079 0.100478,-0.49435 0.213045,-0.21304 0.101864,0.25455 0.08934,0.55869 -0.02784,0.67586 -0.117175,0.11718 -0.200518,-0.0911 -0.185207,-0.46282 z m 1.03084,-1.46512 c -1.044476,-0.19479 -6.241104,-4.82217 -8.205516,-7.30666 -1.37674,-1.74124 -1.381556,-1.7584 -1.138055,-4.05521 0.225951,-2.13128 0.841338,-4.15815 0.869006,-2.86221 0.0076,0.35699 0.254721,0.27303 0.854309,-0.29025 0.621571,-0.58394 0.888052,-0.66972 1.012543,-0.32594 0.227991,0.62959 1.447003,-0.076 1.615881,-0.93534 0.07476,-0.38042 -0.02771,-0.5285 -0.26447,-0.38217 -0.24182,0.14945 -0.386526,-0.099 -0.386526,-0.6635 0,-1.00497 0.105959,-1.0592 1.065861,-0.54548 0.636838,0.34083 0.611975,0.48515 -0.552123,3.20489 -0.670445,1.5664 -1.218991,2.90472 -1.218991,2.97405 0,0.30394 3.876364,-1.05176 5.642029,-1.97322 4.098902,-2.13912 4.507484,-2.11036 2.23949,0.15764 -1.987251,1.98725 -1.800978,2.40813 0.477439,1.07877 1.018363,-0.59417 1.499944,-0.75331 1.21079,-0.4001 -0.71615,0.87479 1.43399,0.0794 2.263668,-0.83734 0.339806,-0.37548 0.779577,-0.68269 0.97727,-0.68269 0.197693,0 0.01009,0.37187 -0.416897,0.82638 -0.426987,0.4545 -0.837692,1.1289 -0.912678,1.49866 -0.07498,0.36976 -0.246317,0.94998 -0.380735,1.28938 -0.298439,0.75355 0.131124,0.79099 1.120931,0.0977 0.699822,-0.49017 0.753976,-0.45724 0.962477,0.58527 0.299923,1.49961 0.122487,1.57712 -1.924914,0.84089 -2.018506,-0.72585 -2.508758,-0.58419 -1.299146,0.37539 2.199177,1.7446 1.649718,2.657 -1.445864,2.40092 -1.28859,-0.1066 -2.818937,-0.0404 -3.400771,0.14701 -1.057881,0.34082 -1.057881,0.34082 0.176313,0.3742 4.508411,0.12191 4.965432,0.34296 4.715884,2.28093 -0.443228,3.44208 -0.717146,3.67636 -3.657205,3.12803 z M 51.315108,128.37305 c -0.305866,-0.3394 -0.665402,-1.05497 -0.79897,-1.59015 -0.133568,-0.53518 -0.383954,-1.06027 -0.556414,-1.16685 -0.17246,-0.10659 -0.313563,-0.4489 -0.313563,-0.76069 0,-0.3118 0.106134,-0.46077 0.235854,-0.33105 0.12972,0.12972 0.526425,-0.0271 0.881567,-0.34851 0.58221,-0.52689 0.645713,-0.52901 0.645713,-0.0216 0,0.30953 -0.158682,0.66085 -0.352627,0.78072 -0.680922,0.42083 -0.342111,1.65968 0.705254,2.57873 0.581834,0.51055 1.057881,1.05162 1.057881,1.20237 0,0.49862 -0.939172,0.28454 -1.504695,-0.34299 z m -1.469962,-4.77567 c 0.132422,-0.34777 0.329597,-0.54348 0.438167,-0.43491 0.108569,0.10857 2.23e-4,0.39311 -0.240768,0.63231 -0.34826,0.34567 -0.388764,0.30516 -0.197399,-0.1974 z m -12.188297,-2.4878 c 0,-0.27512 0.277694,-0.59817 0.617097,-0.71789 0.339403,-0.11972 0.820408,-0.31178 1.0689,-0.42681 0.263277,-0.12188 0.410419,-0.0114 0.352627,0.26469 -0.05455,0.26062 0.110971,0.43024 0.367818,0.37695 0.256847,-0.0533 0.375228,0.0516 0.26307,0.23307 -0.112159,0.18147 -0.480988,0.28535 -0.819621,0.23084 -0.338634,-0.0545 -0.893391,0.0445 -1.232794,0.22012 -0.447731,0.23163 -0.617097,0.18196 -0.617097,-0.18097 z"
         id="path37" />
      <path
         style="fill:#8d4a2c;stroke-width:0.352627"
         d="m 62.721192,151.70519 c 0.01692,-0.41079 0.100478,-0.49435 0.213046,-0.21305 0.101864,0.25455 0.08934,0.5587 -0.02784,0.67587 -0.117175,0.11718 -0.200518,-0.0911 -0.185206,-0.46282 z m 5.790504,-0.51674 c -0.775779,-0.5595 -1.60886,-1.02254 -1.851291,-1.02898 -0.738056,-0.0196 -0.563754,-4.20554 0.240834,-5.78369 0.812245,-1.59318 1.486313,-0.77619 1.941858,2.35359 0.135667,0.93208 0.531662,2.55857 0.879989,3.61442 0.724795,2.197 0.693738,2.21865 -1.21139,0.84466 z m -6.398429,-2.62752 c -0.0011,-1.7455 0.05855,-2.50403 0.132508,-1.68561 0.07395,0.81841 0.07483,2.24655 0.0019,3.17364 -0.07288,0.92709 -0.133388,0.25748 -0.134463,-1.48803 z m -6.252573,2.10213 c -0.340278,-0.88675 -0.239896,-1.11555 0.175796,-0.4007 0.205825,0.35395 0.299944,0.71783 0.209153,0.80862 -0.09079,0.0908 -0.264017,-0.0928 -0.384949,-0.40792 z m 6.948371,-2.10213 c 0.0016,-1.35761 0.0653,-1.86979 0.141635,-1.13817 0.07634,0.73162 0.07505,1.84239 -0.0029,2.46839 -0.07789,0.62599 -0.140344,0.0274 -0.138779,-1.33022 z m -13.459853,1.2342 c 0,-0.48486 0.08004,-0.68322 0.17786,-0.44079 0.09782,0.24243 0.09782,0.63914 0,0.88157 -0.09782,0.24243 -0.17786,0.0441 -0.17786,-0.44078 z m -0.215025,-2.9253 c -0.153214,-1.12405 -0.191943,-2.13036 -0.08606,-2.23624 0.264491,-0.26449 0.701395,2.80681 0.515168,3.62147 -0.08279,0.36217 -0.275888,-0.26118 -0.429103,-1.38523 z m 5.141463,-0.3365 c -0.859538,-1.90123 -2.219467,-5.24202 -3.0144,-7.40516 -0.355939,-0.96857 -0.836093,-1.67498 -1.138496,-1.67498 -1.019145,0 -1.832963,0.7139 -2.076184,1.82127 -0.246408,1.12189 -0.246408,1.12189 -0.785414,-0.0852 -0.748935,-1.67725 -0.626445,-7.28843 0.178521,-8.17791 0.313284,-0.34617 0.915283,-1.20217 1.337777,-1.90221 0.768169,-1.27281 0.768169,-1.27281 1.000122,-0.34863 0.14741,0.58733 0.551309,1.00432 1.108149,1.14408 0.993578,0.24937 1.010995,0.29058 0.514781,1.21776 -0.249434,0.46607 -0.237626,1.36027 0.03811,2.88599 0.21974,1.21587 0.488866,2.76606 0.598056,3.44487 0.185036,1.15032 0.214026,1.17428 0.426574,0.35263 0.228047,-0.88157 0.228047,-0.88157 0.789938,0.17631 0.309041,0.58183 2.316902,2.56536 4.461914,4.40783 3.904369,3.35369 4.629065,4.43159 3.126962,4.65099 -1.357892,0.19833 -3.054737,-0.59508 -4.676305,-2.18652 -1.709967,-1.67821 -1.662797,-1.77783 -1.045411,2.20784 0.213077,1.37556 -0.06138,1.2037 -0.844697,-0.52894 z m -1.56759,-7.0305 c -0.112568,-0.2813 -0.196125,-0.19774 -0.213045,0.21305 -0.01531,0.37172 0.06803,0.58 0.185206,0.46282 0.117175,-0.11718 0.129703,-0.42132 0.02784,-0.67587 z m 9.919176,5.11464 c 0.254553,-0.10186 0.558693,-0.0893 0.675868,0.0278 0.117175,0.11718 -0.09109,0.20052 -0.462822,0.18521 -0.410791,-0.0169 -0.494348,-0.10048 -0.213046,-0.21304 z m 3.620225,-3.13846 c 0.01692,-0.41079 0.100478,-0.49434 0.213045,-0.21304 0.101864,0.25455 0.08934,0.55869 -0.02784,0.67587 -0.117175,0.11717 -0.200518,-0.0911 -0.185205,-0.46283 z m -0.909406,-1.91752 c -1.410507,-0.18377 -1.410507,-0.18377 -0.01852,-0.42991 1.423761,-0.25176 1.774115,-0.178 1.553913,0.32717 -0.06869,0.15759 -0.759617,0.20382 -1.535396,0.10274 z m -2.556545,-0.95036 c 0.533348,-0.0808 1.4061,-0.0808 1.939448,0 0.533348,0.0808 0.09697,0.1469 -0.969724,0.1469 -1.066696,0 -1.503072,-0.0661 -0.969724,-0.1469 z m -9.35505,-2.04272 c -1.079066,-0.94951 -1.233426,-1.91914 -0.799436,-5.02172 0.266132,-1.90258 0.274956,-1.88767 -1.18043,-1.99495 -0.598416,-0.0441 -0.907352,-0.63205 -1.354563,-2.57786 -0.37051,-1.61208 0.02499,-1.79018 0.424107,-0.19098 0.133568,0.53518 0.493104,1.25075 0.79897,1.59015 0.68879,0.76431 1.660511,0.82652 1.377175,0.0882 -0.35117,-0.91514 0.277967,-0.56996 0.875296,0.48023 0.326638,0.57428 0.454949,1.21538 0.2995,1.49643 -0.771499,1.3949 -0.768755,5.06287 0.0045,6.04593 0.933562,1.18683 0.829859,1.20654 -0.445142,0.0846 z m 12.954213,-0.29248 c -1.268623,-1.11482 -0.588257,-1.21965 1.42577,-0.21969 0.775779,0.38517 1.061081,0.63588 0.634004,0.55712 -0.427077,-0.0788 -0.83065,0.0193 -0.896829,0.2178 -0.06618,0.19854 -0.589505,-0.0513 -1.162945,-0.55523 z m 3.068268,-1.64375 c 0,-0.48487 0.08004,-0.68322 0.17786,-0.44079 0.09782,0.24243 0.09782,0.63914 0,0.88157 -0.09782,0.24243 -0.17786,0.0441 -0.17786,-0.44078 z m -24.300685,-1.67984 c -0.599709,-1.52366 -0.680385,-2.05154 -0.345996,-2.26392 0.779299,-0.49497 0.965006,-0.30883 0.965006,0.96724 0,0.73408 0.144162,1.16591 0.347317,1.04035 0.268172,-0.16574 0.144519,1.75608 -0.140129,2.17788 -0.02427,0.036 -0.396063,-0.82873 -0.826198,-1.92155 z m 12.283534,-4.16789 c 0.01692,-0.41079 0.100478,-0.49435 0.213046,-0.21305 0.101863,0.25455 0.08934,0.5587 -0.02784,0.67587 -0.117175,0.11717 -0.200518,-0.0911 -0.185206,-0.46282 z m 11.432533,-2.61532 c 1.151526,-1.16367 2.173025,-2.11576 2.269998,-2.11576 0.09697,0 -0.765845,0.95209 -1.917371,2.11576 -1.151526,1.16367 -2.173025,2.11576 -2.269998,2.11576 -0.09697,0 0.765845,-0.95209 1.917371,-2.11576 z m -17.874661,0.5227 c -0.327722,-0.71927 -0.328058,-1.07902 -0.0015,-1.60192 0.666474,-1.06719 0.50035,-1.57016 -0.28412,-0.86023 -0.38789,0.35104 -0.717395,0.57399 -0.732234,0.49544 -0.01484,-0.0785 -0.08025,-0.42126 -0.145358,-0.76159 -0.06511,-0.34032 0.02637,-0.52931 0.203293,-0.41997 0.176919,0.10934 0.321672,0.0308 0.321672,-0.17463 0,-0.96045 1.939292,-0.37698 1.981873,0.59628 0.02333,0.53335 0.121501,1.52512 0.21815,2.20392 0.09665,0.67881 0.106689,0.87716 0.02231,0.44079 -0.08438,-0.43638 -0.320067,-0.79341 -0.52375,-0.79341 -0.203682,0 -0.287381,0.3172 -0.185995,0.7049 0.283359,1.08357 -0.397792,1.21633 -0.874341,0.17042 z m 6.806902,0.38027 c -0.462285,-0.24741 -0.683776,-0.54671 -0.492202,-0.66511 0.378155,-0.23371 1.798115,0.64955 1.509011,0.93865 -0.09696,0.097 -0.554524,-0.0261 -1.016809,-0.27354 z m -4.762721,-2.87126 c -0.288701,-0.75234 -0.271169,-1.38002 0.03013,-1.07872 0.269624,0.26962 0.537138,1.6365 0.320283,1.6365 -0.075,0 -0.232692,-0.251 -0.350413,-0.55778 z m -14.884261,-2.7547 c 0.367976,-0.2991 0.793494,-0.46691 0.945597,-0.3729 0.152102,0.094 0.52543,-0.18441 0.829617,-0.6187 0.304187,-0.43429 0.553068,-0.60499 0.553068,-0.37934 0,0.22566 -0.161271,0.50995 -0.358379,0.63177 -0.197109,0.12182 -0.28343,0.34276 -0.191825,0.49098 0.0916,0.14822 -0.02482,0.28444 -0.258718,0.30272 -0.2339,0.0183 -0.821977,0.13584 -1.306839,0.26126 -0.840442,0.21739 -0.850356,0.20266 -0.212521,-0.31579 z m 1.151881,-3.68073 c 0.06519,-0.2583 0.11852,-0.53599 0.11852,-0.6171 0,-0.0811 0.132235,-0.14747 0.293856,-0.14747 0.16162,0 0.293856,0.23104 0.293856,0.51342 0,0.28239 -0.118682,0.44008 -0.263738,0.35043 -0.145056,-0.0896 -0.330625,-0.043 -0.412376,0.10367 -0.08175,0.14667 -0.0953,0.0553 -0.03012,-0.20295 z m 0.91193,-11.58645 c 0.339404,-0.0887 0.894791,-0.0887 1.234194,0 0.339404,0.0887 0.06171,0.16126 -0.617097,0.16126 -0.678806,0 -0.9565,-0.0726 -0.617097,-0.16126 z"
         id="path35" />
      <path
         style="fill:#9b3a2c;stroke-width:0.352627"
         d="m 84.556217,151.20563 c -0.455837,-0.29458 -0.446528,-0.34257 0.06735,-0.34722 0.327957,-0.003 0.694357,0.15328 0.814222,0.34722 0.275818,0.44629 -0.190993,0.44629 -0.881567,0 z m -43.813883,-2.73094 c -3.085485,-0.11753 -3.085485,-0.11753 -3.077644,-3.3656 0.0076,-3.14089 0.02794,-3.22259 0.617097,-2.47604 0.335091,0.42462 1.009741,0.86919 1.499223,0.98794 1.864003,0.4522 6.207735,5.30854 4.511355,5.04374 -0.255501,-0.0399 -1.853015,-0.12539 -3.550031,-0.19004 z M 76.628796,143.536 c -1.118261,-2.27885 -2.276224,-4.42106 -2.573259,-4.76046 -0.7678,-0.87733 0.387656,-0.84019 2.74289,0.0882 0.984082,0.38789 1.851633,0.70525 1.927885,0.70525 0.318594,0 -0.546364,-2.2809 -0.954166,-2.51615 -1.550381,-0.89437 -1.880418,-1.40011 -0.797406,-1.22192 0.581834,0.0957 1.692609,0.27026 2.468388,0.38784 0.775779,0.11758 2.493544,0.89773 3.817256,1.73368 2.406745,1.51989 2.406745,1.51989 1.079475,2.20868 -1.337778,0.69424 -2.208562,1.85304 -1.061794,1.41298 0.661848,-0.25398 -0.104138,1.59679 -0.852225,2.05913 -0.472573,0.29207 0.24285,1.22516 0.939359,1.22516 1.117664,0 0.330393,0.6803 -1.985727,1.71592 -1.35932,0.6078 -2.526839,1.1051 -2.594483,1.1051 -0.06765,0 -1.037933,-1.86452 -2.156193,-4.14337 z m -8.712251,-14.06793 c -1.653032,-0.50652 -1.653032,-0.50652 1.056952,-3.10475 1.490492,-1.42903 2.808963,-2.43808 2.929938,-2.24234 0.508118,0.82215 -1.1905,5.96202 -1.94663,5.89033 -0.212975,-0.0202 -1.131092,-0.26465 -2.04026,-0.54324 z m -9.732344,-3.70047 c -1.684549,-1.07867 -2.521442,-2.77211 -1.369973,-2.77211 0.461393,0 1.820216,-0.10257 3.019607,-0.22793 2.180711,-0.22793 2.180711,-0.22793 1.558226,0.85669 -0.521807,0.90919 -0.780589,1.05299 -1.600043,0.8891 -0.591593,-0.11832 -0.977559,-0.0433 -0.977559,0.19013 0,0.2121 0.198352,0.31294 0.440783,0.2241 0.832071,-0.30495 1.514263,0.40911 0.992029,1.03836 -0.584766,0.7046 -0.665011,0.69689 -2.06307,-0.19834 z m 4.509153,-2.36686 c 0,-0.61111 0.783054,-2.52101 1.033605,-2.52101 0.632758,0 0.620504,0.4971 -0.03984,1.6163 -0.712906,1.20829 -0.993761,1.46398 -0.993761,0.90471 z m 8.110417,-0.22894 c 0,-0.29091 0.153702,-0.52894 0.341559,-0.52894 0.187858,0 0.250222,0.23803 0.138587,0.52894 -0.111636,0.29092 -0.265338,0.52894 -0.34156,0.52894 -0.07622,0 -0.138586,-0.23802 -0.138586,-0.52894 z m -10.578805,-1.54978 c 0,-0.17357 0.623854,-0.37508 1.386342,-0.4478 1.090056,-0.10395 1.306916,-0.0365 1.014703,0.31559 -0.420732,0.50695 -2.401045,0.616 -2.401045,0.13221 z m -22.511631,-3.85568 c 0.14671,-2.59639 1.25811,-4.91205 3.776162,-7.86782 1.335653,-1.56783 1.439313,-1.56153 1.645276,0.10005 0.105284,0.84935 0.05108,1.03445 -0.191796,0.65498 -0.289011,-0.45154 -0.339343,-0.43863 -0.343953,0.0882 -0.0033,0.38021 -0.276124,0.6171 -0.710653,0.6171 -0.926235,0 -0.907916,0.57 0.02617,0.81427 0.731423,0.19127 0.731423,0.19127 0.01967,0.90302 -0.391465,0.39147 -0.814634,1.26015 -0.940375,1.93041 -0.125741,0.67025 -0.610638,1.55081 -1.077549,1.95678 -1.062699,0.92401 -1.148864,1.63339 -0.132317,1.08935 0.65958,-0.353 0.697727,-0.30488 0.479334,0.60469 -0.286113,1.1916 -0.0861,1.01969 -1.50016,1.28931 -1.185781,0.2261 -1.185781,0.2261 -1.049807,-2.1803 z m 0.0079,-10.35284 c -0.07555,-0.99147 -0.07555,-0.99147 3.015538,-0.95547 2.665092,0.031 2.920998,0.0839 1.856893,0.38322 -0.678807,0.19098 -2.035799,0.62094 -3.015539,0.95548 -1.781345,0.60824 -1.781345,0.60824 -1.856892,-0.38323 z m 1.522476,0.0664 c 0.465023,-0.19983 0.525081,-0.30966 0.176313,-0.32244 -0.290917,-0.0107 -0.766963,0.13444 -1.05788,0.32244 -0.64459,0.41657 -0.08783,0.41657 0.881567,0 z"
         id="path33" />
      <path
         style="fill:#511f1e;stroke-width:0.352627"
         d="m 37.656849,150.72001 c 0,-1.54351 0,-1.54351 1.674977,-1.39353 3.156957,0.28267 4.127492,0.50418 3.610078,0.82396 -0.387566,0.23953 -0.401835,0.48086 -0.07132,1.20626 0.413174,0.90681 0.413174,0.90681 -2.40028,0.90681 -2.813455,0 -2.813455,0 -2.813455,-1.5435 z m 32.498029,0.92641 c -0.39965,-0.76811 -1.466868,-5.03037 -1.466868,-5.85838 0,-1.27562 -1.128998,-2.95044 -1.457098,-2.16155 -0.175276,0.42144 -0.206388,-0.003 -0.07769,-1.06021 0.118057,-0.96973 0.246603,-1.8022 0.285657,-1.84994 0.03905,-0.0477 0.944677,0.3864 2.012496,0.96475 2.11651,1.14635 2.52243,1.90469 2.925949,5.46623 0.14373,1.2686 0.456651,2.00706 1.120689,2.6447 0.92128,0.88467 0.92128,0.88467 0.666651,0.003 -0.140045,-0.48486 -0.37682,-1.75432 -0.526165,-2.82102 -0.668661,-4.77596 -2.637928,-7.44201 -5.14326,-6.96308 -0.79084,0.15118 -0.79394,0.13786 -0.23892,-1.02602 0.309274,-0.64863 0.682497,-1.17926 0.829385,-1.17926 0.146888,0 0.20323,-0.33149 0.125205,-0.73665 -0.117215,-0.60865 -0.05315,-0.66302 0.368701,-0.31291 0.532769,0.44216 1.14704,-0.33392 0.760764,-0.96116 -0.519804,-0.84407 5.21126,-0.36934 6.440203,0.53347 0.688627,0.50588 1.290064,0.93777 1.33653,0.95975 0.04647,0.022 0.186508,0.5501 0.311204,1.17358 0.226721,1.1336 0.226721,1.1336 -1.596201,0.41507 -2.384001,-0.93968 -3.543586,-0.98192 -2.784884,-0.10143 0.711594,0.82582 3.809085,7.06163 3.809085,7.66838 0,0.2639 0.249357,0.72918 0.554129,1.03395 0.503752,0.50375 0.492506,0.55412 -0.123695,0.55412 -2.014656,0 -3.956702,1.74481 -3.956702,3.55485 0,0.95743 -3.680677,1.00995 -4.175161,0.0596 z m 13.238947,-0.47732 c 0.27891,-0.27891 0.573632,-0.28195 1.040249,-0.0107 0.570772,0.33176 0.522766,0.37976 -0.389166,0.38916 -0.758617,0.008 -0.934888,-0.0946 -0.651083,-0.37844 z m 1.822664,-0.22794 c -0.438621,-0.55928 -0.426149,-0.57176 0.133138,-0.13313 0.339404,0.26618 0.617097,0.54387 0.617097,0.61709 0,0.29023 -0.289573,0.10343 -0.750235,-0.48396 z m -44.292993,-2.45695 c 0.536014,-0.0811 1.329425,-0.0789 1.763134,0.005 0.433709,0.0837 -0.0048,0.15002 -0.974573,0.14737 -0.969723,-0.003 -1.324576,-0.0711 -0.788561,-0.15218 z m 2.551696,-2.21535 c -0.351035,-0.38789 -0.514882,-0.70525 -0.364103,-0.70525 0.150779,0 0.0766,-0.23803 -0.164838,-0.52894 -0.529724,-0.63828 -1.208244,-0.70994 -0.834688,-0.0882 0.186382,0.31023 0.09145,0.30021 -0.320542,-0.0338 -0.321946,-0.26103 -0.550759,-0.59485 -0.508473,-0.74182 0.04228,-0.14698 -0.756198,-1.01922 -1.774408,-1.93831 -1.105229,-0.99765 -1.851291,-1.9669 -1.851291,-2.40513 0,-0.73404 0,-0.73404 0.79341,-0.0114 1.411295,1.28544 2.242437,1.55056 3.778817,1.20536 1.70716,-0.38358 1.680828,-0.41733 1.984158,2.54335 0.182777,1.784 0.133646,2.35148 -0.203584,2.35148 -0.355129,0 -0.356239,0.10635 -0.0055,0.52894 0.653857,0.78785 0.209599,0.63977 -0.52894,-0.17631 z m 5.181833,-1.58682 c 0.0072,-0.58184 0.08622,-0.77717 0.175623,-0.43407 0.08941,0.34309 0.08353,0.81914 -0.01306,1.05788 -0.09659,0.23874 -0.169745,-0.042 -0.162558,-0.62381 z m 35.193938,0.52894 c 0,-0.19395 0.158682,-0.35263 0.352627,-0.35263 0.193945,0 0.352627,0.15868 0.352627,0.35263 0,0.19394 -0.158682,0.35263 -0.352627,0.35263 -0.193945,0 -0.352627,-0.15869 -0.352627,-0.35263 z m -1.371679,-0.83478 c -0.307075,-0.37001 -0.255598,-0.59557 0.221294,-0.96973 0.549125,-0.43082 0.571125,-0.42298 0.18905,0.0674 -0.331444,0.4254 -0.335559,0.65179 -0.01763,0.96972 0.228121,0.22812 0.323116,0.41476 0.2111,0.41476 -0.112012,0 -0.383728,-0.21697 -0.603814,-0.48215 z m -22.281007,-1.19283 c -0.854878,-0.96972 -0.854878,-0.96972 0.114846,-0.11484 0.906352,0.79901 1.131434,1.08457 0.854878,1.08457 -0.06316,0 -0.499541,-0.43638 -0.969724,-0.96973 z m -20.839426,0.37923 c -0.562325,-0.14872 -1.887607,-1.80982 -1.640826,-2.05661 0.06464,-0.0646 0.709717,0.42518 1.433505,1.08848 0.723787,0.6633 1.199296,1.18759 1.056685,1.1651 -0.14261,-0.0225 -0.524824,-0.11114 -0.849364,-0.19697 z m 43.825316,-2.00786 c -0.510353,-0.61494 -0.03616,-1.00973 0.680686,-0.5667 0.365745,0.22604 0.401491,0.42234 0.1269,0.69693 -0.274591,0.27459 -0.502056,0.23791 -0.807586,-0.13023 z m 2.077304,-0.91684 c 0,-0.18786 0.238023,-0.25022 0.52894,-0.13859 0.290917,0.11164 0.52894,0.26534 0.52894,0.34156 0,0.0762 -0.238023,0.13859 -0.52894,0.13859 -0.290917,0 -0.52894,-0.15371 -0.52894,-0.34156 z m -32.766456,-0.92202 c 0.01692,-0.41079 0.100477,-0.49435 0.213045,-0.21305 0.101864,0.25455 0.08934,0.55869 -0.02784,0.67587 -0.117175,0.11718 -0.200518,-0.0911 -0.185207,-0.46282 z m 9.581242,-0.75643 c 0.727293,-0.0761 1.917408,-0.0761 2.644701,0 0.727293,0.0761 0.132235,0.13832 -1.322351,0.13832 -1.454585,0 -2.049643,-0.0623 -1.32235,-0.13832 z m -9.892964,-1.32995 c 0.0072,-0.58183 0.08622,-0.77716 0.175623,-0.43407 0.08941,0.34309 0.08353,0.81914 -0.01306,1.05788 -0.09659,0.23874 -0.169744,-0.042 -0.162558,-0.62381 z m 15.285582,-0.15194 c -0.111582,-0.18055 -0.04161,-0.42794 0.155502,-0.54976 0.197109,-0.12182 0.358379,0.0259 0.358379,0.32827 0,0.61939 -0.211595,0.71059 -0.513881,0.22149 z m -20.935079,-1.61119 c -0.06103,-0.59717 -0.128569,-0.62419 -0.440699,-0.17631 -0.362907,0.52073 -0.217625,-0.89325 0.267214,-2.60071 0.137258,-0.48338 0.05904,-0.58803 -0.290797,-0.38905 -0.383031,0.21787 -0.391745,0.17858 -0.04366,-0.1968 0.675381,-0.72834 0.847716,-0.24169 0.708441,2.00054 -0.07063,1.13717 -0.160862,1.75022 -0.200504,1.36233 z m 33.372155,0.28805 c 0.25455,-0.10186 0.558691,-0.0893 0.675869,0.0278 0.117174,0.11718 -0.0911,0.20052 -0.462823,0.18521 -0.410792,-0.0169 -0.494347,-0.10048 -0.213046,-0.21304 z m -2.468388,-0.35262 c 0.254551,-0.10187 0.558691,-0.0893 0.675869,0.0278 0.117174,0.11717 -0.0911,0.20052 -0.462823,0.1852 -0.410792,-0.0169 -0.494347,-0.10047 -0.213046,-0.21304 z m -25.267336,-0.817 c 0,-0.48486 0.08004,-0.68321 0.17786,-0.44078 0.09782,0.24243 0.09782,0.63913 0,0.88157 -0.09782,0.24243 -0.17786,0.0441 -0.17786,-0.44079 z m -0.733093,-0.2057 c 0.01692,-0.41079 0.100478,-0.49434 0.213046,-0.21304 0.101863,0.25455 0.08933,0.55869 -0.02784,0.67587 -0.117175,0.11717 -0.200518,-0.0911 -0.185206,-0.46283 z m 0.705254,-1.4105 c 0.01692,-0.41079 0.100478,-0.49435 0.213045,-0.21305 0.101864,0.25455 0.08934,0.55869 -0.02784,0.67587 -0.117175,0.11717 -0.200518,-0.0911 -0.185205,-0.46282 z m -1.057881,-1.05788 c 0.01692,-0.41079 0.100478,-0.49435 0.213046,-0.21305 0.101863,0.25455 0.08934,0.55869 -0.02784,0.67587 -0.117175,0.11717 -0.200518,-0.0911 -0.185206,-0.46282 z m 13.019354,-0.67587 c 0.657925,-0.67881 1.275569,-1.2342 1.372541,-1.2342 0.09697,0 -0.361989,0.55539 -1.019914,1.2342 -0.657925,0.6788 -1.275569,1.23419 -1.372542,1.23419 -0.09697,0 0.36199,-0.55539 1.019915,-1.23419 z m -11.608846,-0.73464 c 0.01692,-0.41079 0.100477,-0.49435 0.213045,-0.21305 0.101864,0.25456 0.08934,0.5587 -0.02784,0.67587 -0.117175,0.11718 -0.200518,-0.0911 -0.185207,-0.46282 z m -5.317242,0.0726 c 0,-0.0732 0.277694,-0.35092 0.617097,-0.6171 0.559286,-0.43862 0.571759,-0.42615 0.133136,0.13314 -0.46066,0.58739 -0.750233,0.77418 -0.750233,0.48396 z m 21.862864,-0.21949 c -0.452032,-0.29212 -0.439214,-0.34261 0.08816,-0.34723 0.339404,-0.003 0.617097,0.15329 0.617097,0.34723 0,0.43007 -0.03977,0.43007 -0.705253,0 z m -21.09902,-1.36683 c -0.387075,-0.24537 -0.381872,-0.33211 0.02938,-0.48992 0.285063,-0.10939 0.499735,0.021 0.499735,0.30355 0,0.27243 -0.01322,0.49289 -0.02938,0.48992 -0.01616,-0.003 -0.241043,-0.13957 -0.499735,-0.30355 z m 0.737638,-0.98153 c -0.3278,-0.13242 -0.341758,-0.35669 -0.05549,-0.89158 0.299715,-0.56003 0.470788,-0.62064 0.790594,-0.28011 0.309907,0.32999 0.301517,0.47363 -0.03486,0.59692 -0.243639,0.0893 -0.353285,0.30748 -0.243659,0.48486 0.216155,0.34975 0.196313,0.35365 -0.456579,0.0899 z m 4.493174,-0.0613 c 0,-0.22627 -0.218593,-0.41139 -0.485762,-0.41139 -0.784612,0 -1.22608,-0.80159 -0.873928,-1.58682 0.297373,-0.66309 0.30764,-0.65918 0.171703,0.0654 -0.08328,0.44386 0.06318,0.85036 0.345388,0.95865 0.296178,0.11366 0.50196,-0.0517 0.520282,-0.418 0.01667,-0.33332 0.170105,-0.13796 0.340966,0.43412 0.170862,0.57209 0.236564,1.11425 0.146004,1.20481 -0.09056,0.0906 -0.164653,-0.0205 -0.164653,-0.24675 z m 5.539948,-1.1163 c -0.101385,-0.38769 -0.07421,-0.77296 0.06038,-0.85614 0.134593,-0.0832 0.2766,0.23402 0.315572,0.7049 0.08579,1.03661 -0.122509,1.12041 -0.375952,0.15124 z m 1.418702,-2.16164 c -0.339324,-0.1899 -0.774378,-0.24797 -0.966786,-0.12906 -0.192409,0.11892 -0.349834,0.0482 -0.349834,-0.15722 0,-0.45902 1.049063,-0.47972 1.752922,-0.0346 0.719246,0.45487 0.323371,0.746 -0.436302,0.32087 z m -7.149463,-0.33056 c -0.127839,-0.20684 -0.156807,-0.45171 -0.06437,-0.54414 0.09243,-0.0924 0.262025,0.0768 0.376871,0.37608 0.23844,0.62137 0.03521,0.73067 -0.312497,0.16806 z m -0.842283,-0.57282 c -0.01363,-0.42493 0.133898,-0.87067 0.327843,-0.99054 0.417081,-0.25777 0.417081,0.0873 0,1.05788 -0.292184,0.67995 -0.303947,0.67754 -0.327843,-0.0673 z m 19.750157,-0.31467 c 0.01692,-0.41079 0.100478,-0.49435 0.213045,-0.21304 0.101864,0.25455 0.08934,0.55869 -0.02784,0.67586 -0.117176,0.11718 -0.200519,-0.0911 -0.185207,-0.46282 z m -16.049688,-0.39619 c -0.191365,-0.50256 -0.150861,-0.54306 0.197399,-0.1974 0.240991,0.2392 0.349337,0.52374 0.240768,0.63231 -0.10857,0.10857 -0.305745,-0.0871 -0.438167,-0.43491 z m 2.181246,-0.68953 c 0.242431,-0.0978 0.639136,-0.0978 0.881567,0 0.242431,0.0978 0.04408,0.17786 -0.440783,0.17786 -0.484862,0 -0.683215,-0.08 -0.440784,-0.17786 z m 2.843054,-0.35997 c 0.254552,-0.10186 0.558693,-0.0893 0.675868,0.0278 0.117175,0.11717 -0.09109,0.20052 -0.462823,0.18521 -0.41079,-0.0169 -0.494347,-0.10048 -0.213045,-0.21305 z m -1.168076,-0.817 c -0.119865,-0.19394 -0.04989,-0.35262 0.155502,-0.35262 0.205391,0 0.373438,0.15868 0.373438,0.35262 0,0.19395 -0.06998,0.35263 -0.155503,0.35263 -0.08553,0 -0.253573,-0.15868 -0.373437,-0.35263 z m -19.371804,-0.80861 c 0.132422,-0.34777 0.329597,-0.54348 0.438166,-0.43491 0.10857,0.10857 2.24e-4,0.39311 -0.240768,0.6323 -0.34826,0.34567 -0.388764,0.30517 -0.197398,-0.19739 z m 21.245134,0.2151 c 0.254552,-0.10186 0.558693,-0.0893 0.675868,0.0278 0.117175,0.11718 -0.0911,0.20052 -0.462823,0.18521 -0.41079,-0.0169 -0.494347,-0.10048 -0.213045,-0.21305 z m -21.444119,-1.69856 c 0,-0.29092 0.06236,-0.52894 0.138586,-0.52894 0.07622,0 0.229924,0.23802 0.34156,0.52894 0.111635,0.29092 0.04927,0.52894 -0.138587,0.52894 -0.187857,0 -0.341559,-0.23802 -0.341559,-0.52894 z m 0.352627,-1.23419 c 0,-0.19395 0.158682,-0.35263 0.352626,-0.35263 0.193945,0 0.352627,0.15868 0.352627,0.35263 0,0.19394 -0.158682,0.35262 -0.352627,0.35262 -0.193944,0 -0.352626,-0.15868 -0.352626,-0.35262 z m -2.821015,-3.12973 c 0,-1.16992 0.408749,-1.95179 2.419492,-4.62806 1.2927,-1.72057 1.736757,-2.10206 2.456472,-2.11037 0.257471,-0.003 -0.263589,0.82769 -1.157912,1.8459 -0.894322,1.01821 -2.096743,2.78905 -2.672046,3.93521 -0.97665,1.94575 -1.046006,2.00923 -1.046006,0.95732 z m 3.173641,0.30871 c 0,-0.19394 0.238024,-0.35263 0.528941,-0.35263 0.290917,0 0.52894,0.15869 0.52894,0.35263 0,0.19395 -0.238023,0.35263 -0.52894,0.35263 -0.290917,0 -0.528941,-0.15868 -0.528941,-0.35263 z m 0.683878,-1.53927 c 0.145774,-0.39407 0.487912,-0.77641 0.760307,-0.84965 0.388301,-0.1044 0.397488,-0.0641 0.04254,0.18635 -0.249,0.17573 -0.361183,0.55807 -0.249296,0.84964 0.123358,0.32147 0.0023,0.53014 -0.307579,0.53014 -0.365558,0 -0.43557,-0.20394 -0.245968,-0.71648 z m 1.079257,-2.71306 c 0,-0.20539 0.158682,-0.27537 0.352626,-0.1555 0.193945,0.11986 0.352627,0.28791 0.352627,0.37343 0,0.0855 -0.158682,0.15551 -0.352627,0.15551 -0.193944,0 -0.352626,-0.16805 -0.352626,-0.37344 z m 0.587711,-0.5669 c -0.328695,-0.3287 -0.293402,-0.8228 0.05877,-0.8228 0.161621,0 0.293856,0.23803 0.293856,0.52894 0,0.59924 -0.02577,0.62071 -0.352626,0.29386 z m -4.819233,-2.58593 c -0.31782,-0.20539 -0.361313,-0.34398 -0.108968,-0.34723 0.230985,-0.003 0.518043,0.15328 0.637908,0.34723 0.270572,0.43779 0.148499,0.43779 -0.52894,0 z m 5.465715,0 c 0.119865,-0.19395 0.287912,-0.35263 0.373438,-0.35263 0.08553,0 0.155503,0.15868 0.155503,0.35263 0,0.19394 -0.168047,0.35263 -0.373438,0.35263 -0.205391,0 -0.275367,-0.15869 -0.155503,-0.35263 z m -0.947684,-0.94614 c 0.254552,-0.10186 0.558693,-0.0893 0.675868,0.0278 0.117175,0.11718 -0.0911,0.20052 -0.462823,0.18521 -0.41079,-0.0169 -0.494347,-0.10048 -0.213045,-0.21305 z m -0.727293,-0.69791 c 0.242431,-0.0978 0.639136,-0.0978 0.881567,0 0.242431,0.0978 0.04408,0.17786 -0.440783,0.17786 -0.484862,0 -0.683215,-0.08 -0.440784,-0.17786 z"
         id="path31" />
      <path
         style="fill:#3b281c;stroke-width:0.352627"
         d="m 42.958658,151.58144 c -0.88684,-1.65707 0.131524,-2.05171 2.920313,-1.13168 1.331088,0.43912 2.014578,0.52903 2.035391,0.26772 0.01723,-0.21638 0.0036,-1.18682 -0.03034,-2.15655 -0.08627,-2.46611 0.300042,-1.83447 0.482604,0.78908 0.08267,1.18809 0.255074,2.32966 0.383112,2.53684 0.157715,0.25518 -0.679733,0.37666 -2.596623,0.37666 -2.436466,0 -2.880116,-0.0947 -3.194453,-0.68207 z m 33.19419,0.22504 c -0.564816,-0.68056 -0.380678,-1.97708 0.246606,-1.73637 0.311066,0.11937 0.421841,0.0473 0.280021,-0.18217 -0.149228,-0.24146 0.05436,-0.32603 0.559249,-0.23233 0.436643,0.081 0.5806,0.048 0.319906,-0.0733 -0.583315,-0.27158 3.195155,-1.94247 4.705513,-2.08085 1.339481,-0.12272 4.142226,-1.17826 3.173641,-1.19522 -0.38789,-0.007 -1.101959,0.21443 -1.586821,0.4916 -0.484862,0.27717 -1.040249,0.50322 -1.234194,0.50233 -0.502909,-0.002 1.518408,-1.06088 2.639913,-1.38252 0.92257,-0.26459 0.942,-0.23634 1.020488,1.48377 0.05275,1.15601 -0.04659,1.67525 -0.291531,1.52387 -0.204347,-0.12629 -0.371542,-0.0922 -0.371542,0.0758 0,0.31475 -4.770646,1.71349 -5.550078,1.62726 -0.240343,-0.0266 -0.33454,0.11742 -0.20933,0.32002 0.143523,0.23222 -0.05355,0.29482 -0.533221,0.16938 -0.487566,-0.1275 -0.677565,-0.0642 -0.52894,0.17632 0.148604,0.24045 -0.04127,0.30384 -0.528454,0.17644 -0.512585,-0.13405 -0.760394,-0.0372 -0.760394,0.29708 0,0.62226 -0.846449,0.64663 -1.350832,0.0389 z m -37.343251,-2.60835 c 0.343095,-0.0894 0.819141,-0.0835 1.057881,0.0131 0.23874,0.0966 -0.04197,0.16972 -0.623808,0.16254 -0.581835,-0.007 -0.777167,-0.0862 -0.434073,-0.17563 z m 33.493607,-2.75296 c 0.0039,-0.77578 0.07613,-1.05162 0.160473,-0.61298 0.08435,0.43863 0.08114,1.07336 -0.0071,1.4105 -0.08826,0.33715 -0.15727,-0.0217 -0.153357,-0.79752 z m -24.717126,-1.23419 c 0,-0.48486 0.08004,-0.68322 0.17786,-0.44078 0.09782,0.24243 0.09782,0.63913 0,0.88156 -0.09782,0.24243 -0.17786,0.0441 -0.17786,-0.44078 z m 12.076444,-1.14604 c -0.67175,-0.79341 -0.67175,-0.79341 0.12166,-0.12166 0.74561,0.63128 0.953941,0.91507 0.67175,0.91507 -0.06691,0 -0.423948,-0.35703 -0.79341,-0.79341 z m 24.131263,-0.67427 c -0.762432,-0.76244 -0.762432,-0.76244 0.195976,-1.58682 1.583735,-1.36228 2.32959,-1.11817 2.32959,0.76243 0,1.85849 -1.124425,2.22553 -2.525566,0.82439 z m -36.898113,-1.24754 c -0.521814,-1.70023 -0.269269,-1.95277 0.282101,-0.28211 0.232604,0.7048 0.354342,1.35003 0.27053,1.43384 -0.08381,0.0838 -0.332496,-0.43447 -0.552631,-1.15173 z m 8.169791,-3.63798 c -1.38314,-1.35436 -2.410318,-2.46247 -2.282616,-2.46247 0.127701,0 1.334446,1.11078 2.681657,2.46839 1.34721,1.35761 2.374388,2.46573 2.282617,2.46247 -0.09177,-0.003 -1.298517,-1.11403 -2.681658,-2.46839 z m -9.240916,0.87238 c -0.590822,-1.29671 -0.478104,-1.57334 0.160747,-0.3945 0.29833,0.55049 0.476435,1.06688 0.395789,1.14752 -0.08065,0.0806 -0.331087,-0.25821 -0.556536,-0.75302 z m 8.360784,-0.073 c -0.438623,-0.55929 -0.42615,-0.57176 0.133136,-0.13314 0.339403,0.26618 0.617096,0.54388 0.617096,0.6171 0,0.29023 -0.289572,0.10343 -0.750232,-0.48396 z m -13.14785,-2.01508 c -0.74851,-0.84394 -1.696348,-1.71102 -2.106309,-1.92685 -0.658161,-0.34649 -0.621594,-0.3677 0.312498,-0.18129 1.250619,0.24958 2.169413,1.01187 2.883118,2.39202 0.782956,1.51407 0.421887,1.41998 -1.089307,-0.28388 z m 41.579288,-0.22252 c -2.226612,-1.19534 -2.917913,-1.70758 -2.316659,-1.7166 0.471342,-0.007 1.864539,0.6436 3.095993,1.44592 2.873665,1.87227 3.245764,1.58539 0.469554,-0.36201 -1.975934,-1.38604 -2.276456,-1.48478 -4.726582,-1.55293 -1.439066,-0.04 -2.545055,-0.19178 -2.457756,-0.33724 0.0873,-0.14546 -0.366351,-0.2695 -1.008117,-0.27564 -1.16685,-0.0112 -1.16685,-0.0112 -0.19531,-0.73599 0.534346,-0.39865 0.882019,-0.86967 0.772598,-1.04671 -0.462463,-0.74828 7.360652,0.52836 9.291865,1.51633 0.763011,0.39033 1.198597,4.98035 0.456952,4.81516 -0.114893,-0.0256 -1.637035,-0.81322 -3.382538,-1.75029 z m -38.839148,-2.91999 c -0.354218,-0.7428 -0.865266,-1.27785 -1.220533,-1.27785 -0.336143,0 -1.272068,-0.63499 -2.079834,-1.41109 -0.807767,-0.7761 -1.802904,-1.64521 -2.211417,-1.93134 -1.12924,-0.79095 -0.478081,-1.02958 0.813139,-0.29799 0.624273,0.3537 1.551441,0.86252 2.060374,1.1307 1.533735,0.80821 2.227828,1.55195 2.945441,3.15612 0.83047,1.85646 0.55098,2.43101 -0.30717,0.63145 z M 65.180724,131.198 c 0.668366,-0.72515 1.215211,-1.33876 1.215211,-1.36357 0,-0.0248 0.536505,0.13991 1.192233,0.36607 1.192232,0.41118 1.192232,0.41118 0.275087,1.01212 -0.817155,0.53542 -0.893408,0.53908 -0.699421,0.0335 0.160312,-0.41776 -0.166088,-0.32508 -1.237804,0.35146 -1.988887,1.25553 -2.177588,1.15435 -0.745306,-0.39963 z m 6.004952,-0.15336 c 0.662703,-0.90648 1.416757,-1.73975 1.675675,-1.85173 0.258917,-0.11197 -0.01278,0.40693 -0.603773,1.15312 -1.617074,2.04172 -2.451322,2.58544 -1.071902,0.69861 z M 59.88487,130.18811 c 3.259567,-3.51952 3.435699,-3.97279 0.780879,-2.00956 -0.63032,0.46612 -1.146037,0.69009 -1.146037,0.49773 0,-0.19237 0.177588,-0.45952 0.394639,-0.59367 0.543948,-0.33617 5.442649,-7.89887 5.750597,-8.87786 0.305377,-0.97081 -0.249604,-1.02317 -2.763168,-0.26065 -2.195728,0.6661 -4.214245,0.71372 -2.437652,0.0575 0.616401,-0.22767 1.251129,-0.55841 1.410507,-0.73496 0.159522,-0.17671 0.131271,-0.23232 -0.06285,-0.12371 -0.310926,0.17397 -10.293205,2.28839 -13.576133,2.87567 -0.912153,0.16318 -0.176058,-0.37785 2.821014,-2.07343 2.230365,-1.26182 4.244196,-2.29484 4.475181,-2.29559 0.230985,-7.5e-4 0.508898,-0.14527 0.617584,-0.32112 0.108686,-0.17586 -0.159643,-0.25194 -0.596286,-0.16908 -0.739544,0.14035 -0.745613,0.12773 -0.08864,-0.18441 0.387889,-0.1843 1.282173,-0.34624 1.987296,-0.35987 0.705124,-0.0136 1.736557,-0.27308 2.292075,-0.57655 1.984698,-1.08423 -3.58306,-0.45196 -5.84403,0.66363 -1.054508,0.52031 -2.482647,0.9499 -3.173642,0.95464 -0.690995,0.005 -1.970425,0.16471 -2.843176,0.35548 -0.872751,0.19077 -1.983526,0.42363 -2.468388,0.51746 -0.484862,0.0938 0.489468,-0.53512 2.165177,-1.39769 1.675709,-0.86257 3.641708,-1.97206 4.368886,-2.46554 0.727179,-0.49347 1.677275,-0.89723 2.111325,-0.89723 0.43405,0 1.006964,-0.26426 1.273143,-0.58724 0.666026,-0.80817 -2.290368,-0.42566 -4.189473,0.54205 -1.310739,0.6679 -1.352002,0.66688 -5.200118,-0.12838 -2.133392,-0.44089 -4.037577,-0.7176 -4.231522,-0.61492 -0.235084,0.12447 -0.235084,0.0673 0,-0.17153 0.193945,-0.19703 1.860107,-0.71894 3.702582,-1.15981 1.842475,-0.44087 3.420222,-0.86248 3.506105,-0.93692 0.08588,-0.0744 -0.724261,-1.0436 -1.800317,-2.15371 -1.956747,-2.01867 -3.116295,-3.52055 -3.116295,-4.03629 0,-0.56807 1.170761,-0.24188 2.180069,0.6074 0.576226,0.48486 1.172186,0.88156 1.324355,0.88156 0.15217,0 0.200837,-0.3967 0.10815,-0.88156 -0.168522,-0.88157 -0.168522,-0.88157 19.267061,-0.88157 19.435584,0 19.435584,0 19.435584,4.22435 0,4.22436 0,4.22436 -1.44468,4.96138 -0.794571,0.40536 -1.513729,0.66797 -1.598126,0.58357 -0.0844,-0.0844 0.327685,-0.35274 0.91574,-0.59632 0.588051,-0.24358 1.069186,-0.5843 1.069186,-0.75715 0,-0.17285 -1.071104,0.22254 -2.380232,0.87865 -1.309127,0.65612 -3.332323,1.47982 -4.495992,1.83046 -2.477453,0.7465 -2.536702,0.76271 -2.997328,0.82029 -0.193944,0.0243 -0.352626,0.22325 -0.352626,0.44224 0,0.48016 5.514399,0.0876 6.347282,-0.45187 0.357282,-0.23141 -0.272132,-0.28553 -1.939447,-0.16677 -2.468388,0.17581 -2.468388,0.17581 -0.0807,-0.47012 1.313231,-0.35527 2.582688,-0.79241 2.821014,-0.97143 0.261558,-0.19647 1.167153,-0.20047 2.284613,-0.0101 1.851291,0.31541 1.851291,0.31541 1.851291,2.89135 0,2.92953 -0.681797,3.36492 -5.269239,3.36492 -1.895962,0 -2.658866,0.34044 -1.863908,0.83175 0.149609,0.0925 0.815612,0.93491 1.480007,1.8721 1.207986,1.70398 1.207986,1.70398 -0.451038,0.19556 -1.377876,-1.25279 -2.925992,-2.19416 -3.608385,-2.19416 -0.08015,0 -0.124082,0.6744 -0.09762,1.49867 0.03783,1.17868 -0.271459,2.0445 -1.448619,4.05521 -1.970595,3.36595 -2.144462,3.24909 -0.381814,-0.25665 0.777945,-1.54725 1.406812,-2.93572 1.397482,-3.08548 -0.0093,-0.14977 -0.487919,0.64012 -1.063533,1.7553 -1.20896,2.34221 -1.270353,2.38908 -1.270353,0.96973 0,-0.58184 0.171906,-1.06031 0.382015,-1.06328 0.267337,-0.004 0.264964,-0.0832 -0.0079,-0.26447 -0.214453,-0.14249 -0.496347,-0.83819 -0.626427,-1.54599 -0.130081,-0.7078 -0.460901,-1.47315 -0.735157,-1.70076 -0.274257,-0.22761 -0.405662,-0.65616 -0.292012,-0.95232 0.113649,-0.29617 -0.371829,0.0571 -1.078841,0.78512 -0.707023,0.72799 -1.285488,1.46746 -1.285488,1.64326 0,0.49841 -3.575942,4.15632 -4.063182,4.15632 -0.239037,0 -0.624396,0.22867 -0.856355,0.50817 -0.231959,0.27949 -1.87788,1.49297 -3.657602,2.69662 -3.23586,2.18846 -3.23586,2.18846 -1.636508,0.46156 z m 7.568946,-11.77677 c -0.119865,-0.19394 -0.406923,-0.35019 -0.637908,-0.34722 -0.252346,0.003 -0.208852,0.14183 0.108968,0.34722 0.677439,0.4378 0.799512,0.4378 0.52894,0 z m -2.618149,-7.35555 c -0.532483,-0.99495 -4.58135,-6.39689 -4.794604,-6.39689 -0.386124,0 0.900249,2.05783 2.820472,4.51196 1.954888,2.49843 2.665685,3.17711 1.974132,1.88493 z m -27.178818,-0.40271 c 0,-1.59737 1.095698,-2.35848 3.858974,-2.68059 1.248056,-0.14549 1.249555,-0.14401 0.310302,0.30478 -0.519097,0.24803 -1.444889,1.08251 -2.057315,1.85441 -1.700647,2.14347 -2.111961,2.24502 -2.111961,0.5214 z m 0,-5.11262 c 0,-0.67289 0.726061,-0.67796 1.60758,-0.0112 0.647467,0.48972 0.622501,0.51833 -0.461543,0.52894 -0.788599,0.008 -1.146037,-0.15376 -1.146037,-0.51773 z"
         id="path29" />
      <path
         style="fill:#2d130d;stroke-width:0.352627"
         d="m 49.807975,151.88743 c -0.360813,-0.58381 -0.117087,-0.60289 1.777634,-0.13919 1.763134,0.43149 1.763134,0.43149 0.108967,0.47339 -0.909791,0.023 -1.758762,-0.12735 -1.886601,-0.3342 z m 12.605937,-2.89678 c -0.06199,-2.92173 -0.167551,-3.48412 -0.690282,-3.6777 -0.869977,-0.32216 -6.518996,-5.13964 -7.65493,-6.52812 -0.519857,-0.63543 -1.17185,-1.43441 -1.448873,-1.77552 -1.204845,-1.48356 -1.62342,-7.45808 -0.505278,-7.21208 0.290917,0.064 0.490806,0.30069 0.444197,0.52597 -1.025871,4.95848 -1.026456,4.95743 6.608339,11.95523 4.34266,3.98033 6.580335,3.75338 7.411813,-0.75173 0.510155,-2.76412 1.448225,-4.6159 2.474231,-4.8842 0.537015,-0.14044 0.692764,-0.48588 0.692771,-1.53653 9e-6,-1.12632 0.208577,-1.52178 1.234194,-2.34012 1.485262,-1.18509 1.521846,-1.04219 0.277,1.08198 -0.526451,0.89832 -0.962827,1.95737 -0.969724,2.35343 -0.0069,0.39607 -0.210892,0.72077 -0.453323,0.72156 -0.242431,7.8e-4 -0.42723,0.14237 -0.410666,0.31463 0.01657,0.17226 -0.119976,0.41029 -0.303424,0.52894 -0.859084,0.55567 -1.509336,2.44689 -0.775305,2.25493 0.465704,-0.12178 0.695985,-0.006 0.695985,0.34984 0,0.29251 0.392124,0.63026 0.871388,0.75055 0.479264,0.12029 1.044275,0.54174 1.25558,0.93657 0.348177,0.65057 0.208648,0.62558 -1.488486,-0.26661 -1.029972,-0.54147 -1.970431,-1.0312 -2.089908,-1.0883 -0.119477,-0.0571 -0.328032,0.73143 -0.463454,1.7523 -0.135422,1.02086 -0.382715,2.02058 -0.549538,2.22158 -0.590507,0.71152 -0.506203,4.87359 0.128663,6.35207 0.508075,1.18321 0.517745,1.32321 0.06001,0.86877 -0.625816,-0.6213 -1.955775,-4.20349 -1.955775,-5.2678 0,-0.5563 -0.230789,-0.71406 -1.044648,-0.71406 -1.044648,0 -1.044648,0 -1.161009,3.2618 -0.116361,3.2618 -0.116361,3.2618 -0.189546,-0.18738 z m 11.916127,2.55752 c 0,-0.45809 -0.436376,-1.31155 -0.969724,-1.89659 -0.533348,-0.58504 -0.718882,-0.87427 -0.412298,-0.64274 0.492538,0.37197 0.549089,0.20621 0.485824,-1.42398 -0.03938,-1.01472 -0.01157,-1.36889 0.06183,-0.78706 0.220981,1.75199 0.918872,3.69197 1.253709,3.48503 0.175996,-0.10877 0.208596,0.24533 0.07413,0.8051 -0.316951,1.31937 -0.493469,1.484 -0.493469,0.46024 z m 1.410507,0.34191 c 0,-0.20539 0.158682,-0.27537 0.352627,-0.15551 0.193945,0.11987 0.352627,0.28792 0.352627,0.37344 0,0.0855 -0.158682,0.1555 -0.352627,0.1555 -0.193945,0 -0.352627,-0.16804 -0.352627,-0.37343 z m 1.763134,0.0208 c 0,-0.19394 0.168048,-0.35263 0.373439,-0.35263 0.205391,0 0.275366,0.15869 0.155502,0.35263 -0.119865,0.19395 -0.287913,0.35263 -0.373439,0.35263 -0.08553,0 -0.155502,-0.15868 -0.155502,-0.35262 z m -1.523185,-1.97813 c 0.102618,-0.26741 0.315079,-0.40679 0.472135,-0.30972 0.15706,0.0971 0.338783,0.0219 0.403836,-0.16704 0.06505,-0.18894 0.312124,-0.22301 0.54905,-0.0757 0.287814,0.17892 0.09187,0.39572 -0.59041,0.65325 -0.832728,0.31432 -0.986756,0.29573 -0.834611,-0.10076 z m -27.717002,-1.04858 c 0.01692,-0.41079 0.100477,-0.49435 0.213045,-0.21305 0.101864,0.25455 0.08934,0.55869 -0.02784,0.67587 -0.117175,0.11718 -0.200518,-0.0911 -0.185205,-0.46282 z m 34.003146,-1.5534 c -0.127968,-0.20706 0.03025,-0.25431 0.389663,-0.11639 0.407782,0.15648 0.52277,0.099 0.352627,-0.17631 -0.170146,-0.2753 -0.05516,-0.3328 0.352627,-0.17631 0.380784,0.14612 0.519701,0.094 0.374736,-0.14054 -0.126702,-0.20501 -0.03371,-0.36566 0.206622,-0.357 1.587216,0.0572 2.187253,-0.11527 1.671183,-0.48024 -0.350299,-0.24774 -0.371139,-0.33225 -0.06171,-0.25025 0.904286,0.23963 0.442409,0.76212 -1.237805,1.40025 -2.000315,0.75969 -1.78146,0.72798 -2.047944,0.29679 z M 47.5304,146.46598 c 0,-0.27947 0.158682,-0.6062 0.352627,-0.72606 0.193945,-0.11987 0.352627,0.10879 0.352627,0.50813 0,0.39933 -0.158682,0.72606 -0.352627,0.72606 -0.193945,0 -0.352627,-0.22865 -0.352627,-0.50813 z m -5.642029,-1.66628 c -2.881278,-2.2357 -4.231522,-3.49859 -4.231522,-3.95778 0,-0.19702 0.595058,0.20068 1.322351,0.88378 1.670951,1.5694 4.88508,4.19053 5.138604,4.19053 0.105661,0 0.258216,-0.43637 0.339011,-0.96972 0.118165,-0.78003 0.157236,-0.71105 0.199736,0.35263 0.06645,1.66309 0.0044,1.65189 -2.76818,-0.49944 z m 5.289402,-0.8021 c 0,-0.27947 0.158682,-0.6062 0.352627,-0.72607 0.193945,-0.11986 0.352627,0.10879 0.352627,0.50813 0,0.39934 -0.158682,0.72607 -0.352627,0.72607 -0.193945,0 -0.352627,-0.22866 -0.352627,-0.50813 z m 25.550946,0.13204 c -0.127839,-0.20685 -0.156808,-0.45172 -0.06437,-0.54415 0.09243,-0.0924 0.262024,0.0768 0.376871,0.37609 0.238439,0.62136 0.03523,0.73066 -0.312497,0.16806 z m 12.819261,0.1352 c 0.254551,-0.10186 0.558691,-0.0893 0.675869,0.0278 0.117174,0.11718 -0.0911,0.20052 -0.462823,0.18521 -0.410792,-0.0169 -0.494347,-0.10048 -0.213046,-0.21304 z m -41.516009,-1.72795 c 0.01692,-0.41079 0.100478,-0.49434 0.213045,-0.21304 0.101864,0.25455 0.08934,0.55869 -0.02784,0.67587 -0.117175,0.11717 -0.200518,-0.0911 -0.185205,-0.46283 z m 27.653367,-0.88419 c -0.193945,-0.19215 -0.669991,-0.58861 -1.057881,-0.881 -0.586983,-0.44248 -0.513064,-0.43855 0.440784,0.0234 0.63032,0.30528 1.146037,0.70967 1.146037,0.89863 0,0.41619 -0.07317,0.41051 -0.52894,-0.0411 z m -30.920965,-0.5615 c 0.254552,-0.10186 0.558693,-0.0893 0.675868,0.0278 0.117175,0.11718 -0.0911,0.20052 -0.462823,0.18521 -0.41079,-0.0169 -0.494347,-0.10048 -0.213045,-0.21304 z m 2.049761,-0.39512 c 0.165124,-0.13506 0.399001,-0.37788 0.519726,-0.5396 0.120724,-0.16172 0.303489,-0.0752 0.406143,0.19235 0.117372,0.30587 -0.07552,0.50613 -0.519726,0.53959 -0.388503,0.0293 -0.571267,-0.0573 -0.406143,-0.19234 z m 3.482072,-0.42188 c 0.119865,-0.19394 0.287912,-0.35262 0.373438,-0.35262 0.08553,0 0.155502,0.15868 0.155502,0.35262 0,0.19395 -0.168047,0.35263 -0.373437,0.35263 -0.205391,0 -0.275367,-0.15868 -0.155503,-0.35263 z m -3.878895,-1.05788 c -0.119864,-0.19394 -0.04989,-0.35262 0.155503,-0.35262 0.20539,0 0.373437,0.15868 0.373437,0.35262 0,0.19395 -0.06998,0.35263 -0.155502,0.35263 -0.08553,0 -0.253573,-0.15868 -0.373438,-0.35263 z m 42.479907,-0.91307 c 0.284524,-0.37056 0.546328,-0.72397 0.581788,-0.78536 0.03546,-0.0614 0.149436,0.0259 0.253285,0.19389 0.103848,0.16803 -0.157956,0.52144 -0.581785,0.78536 -0.728492,0.45364 -0.742332,0.44304 -0.253288,-0.19389 z m -39.658892,-0.49743 c 0.119864,-0.19395 0.287911,-0.35263 0.373438,-0.35263 0.08553,0 0.155502,0.15868 0.155502,0.35263 0,0.19394 -0.168047,0.35262 -0.373438,0.35262 -0.20539,0 -0.275367,-0.15868 -0.155502,-0.35262 z m 38.998284,0.11436 c 0.124333,-0.71571 -0.0629,-1.1954 -0.388136,-0.99439 -0.195317,0.12071 -0.449966,-0.0277 -0.565892,-0.32979 -0.115923,-0.3021 -0.341861,-0.46825 -0.502085,-0.36923 -0.160219,0.099 -0.38237,0.0327 -0.493666,-0.14738 -0.1113,-0.18008 0.06748,-0.28782 0.397301,-0.23941 0.329811,0.0484 0.661485,0.27349 0.73705,0.50018 0.07556,0.22669 0.274558,0.3274 0.442208,0.22378 0.167649,-0.10361 0.471889,0.12379 0.676088,0.50535 0.253242,0.47318 0.256091,0.76491 0.009,0.91765 -0.199276,0.12316 -0.339593,0.0931 -0.311824,-0.0668 z m -43.803726,-1.08409 c -0.438622,-0.55928 -0.426149,-0.57176 0.133136,-0.13313 0.339404,0.26617 0.617097,0.54387 0.617097,0.61709 0,0.29023 -0.289572,0.10343 -0.750233,-0.48396 z m 5.755753,-0.61709 c 0.0072,-0.58184 0.08622,-0.77717 0.175623,-0.43408 0.08941,0.3431 0.08353,0.81914 -0.01307,1.05788 -0.09659,0.23874 -0.169744,-0.042 -0.162558,-0.6238 z m -7.295098,-0.52491 c -0.123539,-0.19989 0.01801,-0.259 0.331816,-0.13858 0.610897,0.23442 0.722669,0.48717 0.215439,0.48717 -0.182499,0 -0.428763,-0.15686 -0.547255,-0.34859 z m -0.804302,-0.56073 c 0.334785,-0.34954 0.684603,-0.55962 0.777373,-0.46685 0.09277,0.0928 -0.181146,0.37875 -0.608701,0.63552 -0.742741,0.44604 -0.750255,0.43853 -0.168672,-0.16867 z m 32.809402,0.31233 c 0.343094,-0.0894 0.81914,-0.0835 1.05788,0.0131 0.23874,0.0966 -0.04197,0.16975 -0.623808,0.16256 -0.581834,-0.007 -0.777167,-0.0862 -0.434072,-0.17562 z m 8.194616,-0.1038 c -0.122259,-0.19782 -0.591958,-0.2669 -1.043775,-0.1535 -0.451818,0.1134 -0.92322,0.0416 -1.047563,-0.15962 -0.124343,-0.20118 -0.429707,-0.28765 -0.678588,-0.19215 -0.24888,0.0955 -0.838857,0.006 -1.311056,-0.19872 -0.696036,-0.30188 -0.524811,-0.33433 0.904587,-0.17142 0.969723,0.11053 2.189079,0.19129 2.709676,0.17949 0.984876,-0.0223 1.602981,0.49072 1.023023,0.84916 -0.183708,0.11354 -0.434045,0.0446 -0.556304,-0.15324 z m 2.113007,-0.004 c -0.119865,-0.19395 0.03882,-0.35263 0.352627,-0.35263 0.31381,0 0.472492,0.15868 0.352627,0.35263 -0.119865,0.19394 -0.278547,0.35263 -0.352627,0.35263 -0.07408,0 -0.232762,-0.15869 -0.352627,-0.35263 z m -11.322041,-3.19374 c 1.087587,-1.17473 1.97743,-2.36115 1.97743,-2.63651 0,-0.86997 1.567127,-4.38057 2.035764,-4.5604 0.348575,-0.13377 0.361894,-0.01 0.05959,0.55524 -0.214147,0.40013 -0.30773,0.80914 -0.207965,0.90891 0.09977,0.0998 0.660375,-0.74691 1.245802,-1.8815 0.585428,-1.13458 1.072046,-1.93859 1.081373,-1.78669 0.0093,0.15191 -0.379744,1.05906 -0.864606,2.01588 -0.985049,1.94391 -1.066679,2.27179 -0.474456,1.90578 0.254258,-0.15714 0.311306,-0.0966 0.151947,0.16125 -0.140338,0.22708 -0.429845,0.30491 -0.64335,0.17295 -0.252153,-0.15583 -0.306814,-0.0279 -0.155984,0.36519 0.156481,0.40779 0.09898,0.52278 -0.176314,0.35263 -0.272855,-0.16863 -0.333708,-0.0575 -0.183246,0.33456 0.230364,0.60032 -2.528626,4.39136 -3.049154,4.18975 -0.141109,-0.0547 -0.661375,0.38172 -1.156147,0.96972 -0.494772,0.58801 -1.061253,1.0691 -1.258848,1.0691 -0.197595,0 0.53058,-0.96114 1.618167,-2.13586 z m 2.334278,-1.74837 c 0.612486,-0.77332 0.901769,-1.31858 0.642852,-1.21168 -0.258918,0.1069 -0.916349,0.83623 -1.460958,1.62072 -1.223672,1.76267 -0.690972,1.49633 0.818106,-0.40904 z m -15.519801,2.64609 c 0,-0.10808 1.035697,-1.16535 2.30155,-2.34949 2.047597,-1.91543 2.952998,-3.2971 1.321396,-2.01649 -0.546598,0.42901 -0.573368,0.42422 -0.211946,-0.0379 0.22752,-0.29092 0.941589,-0.8182 1.586821,-1.17173 1.173148,-0.64279 1.173148,-0.64279 0.340672,0.0881 -0.457861,0.40203 -0.703351,0.73095 -0.545532,0.73095 0.157819,0 -0.332852,0.63473 -1.09038,1.41051 -1.915777,1.96193 -1.194072,1.74304 2.071596,-0.62831 1.527267,-1.10901 3.090987,-2.19797 3.474933,-2.41989 0.383946,-0.22193 1.435254,-1.09377 2.336239,-1.93743 0.900986,-0.84366 0.610667,-0.46309 -0.645154,0.84572 -1.25582,1.30881 -2.570192,2.4707 -2.920825,2.58199 -0.350634,0.11128 -1.765105,0.97912 -3.14327,1.92852 -1.378164,0.94941 -2.642377,1.64175 -2.80936,1.53855 -0.166983,-0.1032 -0.303606,-0.0378 -0.303606,0.14524 0,0.18309 -0.396705,0.59282 -0.881567,0.91051 -0.484862,0.3177 -0.881567,0.4892 -0.881567,0.38111 z m 25.67564,-0.0606 c 0.254551,-0.10186 0.558692,-0.0893 0.67587,0.0278 0.117174,0.11718 -0.0911,0.20052 -0.462823,0.18521 -0.410793,-0.0169 -0.494348,-0.10048 -0.213047,-0.21305 z m -39.214412,-1.116 c -0.667892,-0.93519 -0.667892,-0.93519 0.156723,-0.15157 0.453539,0.43099 0.75409,0.85182 0.667892,0.93519 -0.0862,0.0834 -0.457274,-0.26927 -0.824615,-0.78362 z m 21.472875,-0.40625 c 0.757528,-0.77578 1.455589,-1.4105 1.551246,-1.4105 0.09566,0 -0.336042,0.52615 -0.959332,1.16922 -0.623291,0.64307 -1.024677,1.2778 -0.89197,1.41051 0.132707,0.1327 -0.05539,0.24128 -0.417991,0.24128 -0.524276,0 -0.377241,-0.28883 0.718047,-1.41051 z m 15.978403,1.16963 c 0.254551,-0.10187 0.558692,-0.0893 0.67587,0.0278 0.117174,0.11717 -0.0911,0.20051 -0.462823,0.1852 -0.410793,-0.0169 -0.494348,-0.10047 -0.213047,-0.21304 z m -14.626667,-0.64069 c 0,-0.29091 0.07688,-0.45206 0.170833,-0.3581 0.09396,0.094 0.379828,-0.1044 0.635268,-0.44079 0.310479,-0.40887 0.468153,-0.4586 0.47565,-0.15002 0.0063,0.25801 0.190769,0.35063 0.418325,0.20999 0.254258,-0.15714 0.311308,-0.0966 0.151947,0.16125 -0.140339,0.22708 -0.386252,0.33185 -0.546474,0.23282 -0.160221,-0.099 -0.382299,0.0571 -0.493507,0.34688 -0.261971,0.68269 -0.812042,0.68131 -0.812042,-0.002 z m 1.645592,-1.7254 c 0,-0.0762 0.246265,-0.23309 0.547255,-0.34859 0.313812,-0.12042 0.455355,-0.0613 0.331816,0.13859 -0.207083,0.33506 -0.879071,0.49559 -0.879071,0.21 z m -9.168297,-0.48032 c 0,-0.19394 0.238023,-0.55016 0.52894,-0.7916 0.295057,-0.24488 0.52894,-0.28306 0.52894,-0.0864 0,0.19395 -0.238023,0.55017 -0.52894,0.79161 -0.295057,0.24488 -0.52894,0.28306 -0.52894,0.0863 z m -8.482234,-1.05607 c -0.194899,-0.53335 -0.427874,-1.17814 -0.517722,-1.43286 -0.09,-0.25517 -0.362411,-0.3507 -0.606635,-0.21274 -0.336411,0.19003 -0.34606,0.14496 -0.04002,-0.18695 0.2834,-0.30737 0.302044,-0.80389 0.06273,-1.67061 -0.359228,-1.30102 -0.195629,-2.22703 0.393452,-2.22703 0.193945,0 0.267077,0.22294 0.162516,0.49542 -0.223848,0.58334 0.844825,5.12402 1.356517,5.76371 0.241075,0.30137 0.224647,0.44078 -0.05194,0.44078 -0.222493,0 -0.563994,-0.43638 -0.758893,-0.96972 z m -1.391317,-0.0674 c 0,-0.1825 0.156864,-0.42876 0.348587,-0.54725 0.19989,-0.12354 0.259007,0.018 0.138587,0.33181 -0.234423,0.6109 -0.487174,0.72267 -0.487174,0.21544 z m 11.790873,-1.54728 c 0.543069,-0.712 1.058711,-1.29454 1.14587,-1.29454 0.244956,0 -1.281641,2.06275 -1.733081,2.34176 -0.220103,0.13603 0.04414,-0.33522 0.587211,-1.04722 z m 21.901414,-1.39355 c -0.358463,-0.62435 -1.540239,-1.99557 -2.626164,-3.04715 -1.895316,-1.83538 -1.602784,-1.88389 0.405821,-0.0673 0.996206,0.90097 1.313655,0.71952 0.52894,-0.30233 -0.242431,-0.31569 -0.08148,-0.19769 0.357666,0.26223 0.439147,0.45991 0.707475,0.98341 0.596285,1.16332 -0.11119,0.1799 -0.02475,0.3271 0.192086,0.3271 0.216838,0 0.296179,0.15868 0.176314,0.35263 -0.119865,0.19394 -0.07536,0.35262 0.0989,0.35262 0.326645,0 1.255616,1.76036 1.041801,1.97417 -0.06594,0.0659 -0.413184,-0.39094 -0.771649,-1.01529 z m -6.716335,-0.60625 c 0.300879,-0.58183 0.626392,-1.05788 0.723364,-1.05788 0.09697,0 -0.06986,0.47605 -0.370737,1.05788 -0.300879,0.58184 -0.626393,1.05788 -0.723365,1.05788 -0.09697,0 0.06986,-0.47604 0.370738,-1.05788 z m -22.200431,0.37699 c -0.111582,-0.18054 -0.06805,-0.41158 0.09673,-0.51342 0.164784,-0.10185 0.299608,0.0459 0.299608,0.32826 0,0.59458 -0.111196,0.64653 -0.396338,0.18516 z m 9.094467,-1.59567 c 0,-0.28239 0.134824,-0.4301 0.299608,-0.32826 0.164784,0.10184 0.208313,0.33288 0.09673,0.51343 -0.285143,0.46137 -0.396339,0.40942 -0.396338,-0.18517 z m 8.698128,-1.24971 c -0.317819,-0.20539 -0.361313,-0.34398 -0.108967,-0.34722 0.230985,-0.003 0.518043,0.15328 0.637908,0.34722 0.270572,0.4378 0.148499,0.4378 -0.528941,0 z m -33.499548,-0.34147 c 0,-0.16926 0.515717,-0.41735 1.146037,-0.55132 0.630321,-0.13397 1.423731,-0.48853 1.763134,-0.78792 0.558407,-0.49258 0.617097,-0.48885 0.617097,0.0392 0,0.32098 -0.03967,0.58531 -0.08816,0.58741 -0.04849,0.002 -0.841897,0.23253 -1.763135,0.51207 -0.921237,0.27955 -1.674977,0.36978 -1.674977,0.20052 z m 32.441668,-0.0674 c 0,-0.10351 0.571529,-0.77668 1.270065,-1.49594 0.698536,-0.71926 1.195288,-1.10063 1.103894,-0.8475 -0.09139,0.25313 0.08553,0.7776 0.393157,1.16549 0.540841,0.68195 0.53693,0.68497 -0.118298,0.0914 -0.648374,-0.58732 -0.72017,-0.57306 -1.663221,0.33044 -0.542078,0.51935 -0.985597,0.85958 -0.985597,0.75607 z m 6.347283,-0.82532 c 0,-0.48486 0.136678,-0.88157 0.303728,-0.88157 0.16705,0 0.227892,0.39671 0.135204,0.88157 -0.09269,0.48486 -0.229362,0.88157 -0.303728,0.88157 -0.07436,0 -0.135204,-0.39671 -0.135204,-0.88157 z m -31.383788,0.44357 c 0.380808,-0.39867 5.345315,-2.75877 5.154848,-2.45058 -0.111617,0.1806 -0.717191,0.54137 -1.34572,0.80172 -1.14278,0.47335 -1.14278,0.47335 -0.272037,0.74639 0.717355,0.22494 0.673227,0.24525 -0.250499,0.11528 -0.616683,-0.0868 -1.172071,-0.017 -1.234194,0.15501 -0.06212,0.17203 -0.588996,0.42617 -1.170831,0.56477 -0.581834,0.1386 -0.978539,0.16893 -0.881567,0.0674 z m 19.40569,-0.81696 c 0.0062,-0.18252 0.244192,-0.63989 0.528941,-1.01636 0.284749,-0.37647 0.512678,-0.53515 0.506511,-0.35262 -0.0062,0.18252 -0.244192,0.63989 -0.528941,1.01636 -0.284749,0.37647 -0.512678,0.53515 -0.506511,0.35262 z M 79.33734,120.8092 c -0.773113,-0.77311 -0.440964,-0.98796 1.428138,-0.92379 1.851291,0.0636 1.851291,0.0636 0.150061,0.19671 -1.434511,0.11227 -1.63506,0.21287 -1.279172,0.64169 0.510361,0.61495 0.292688,0.67711 -0.299027,0.0854 z m -29.052043,-0.17035 c 0.254553,-0.10187 0.558693,-0.0893 0.675868,0.0278 0.117175,0.11717 -0.0911,0.20051 -0.462822,0.1852 -0.41079,-0.0169 -0.494348,-0.10048 -0.213046,-0.21304 z m 1.763134,-0.35263 c 0.254553,-0.10186 0.558693,-0.0893 0.675869,0.0278 0.117174,0.11717 -0.0911,0.20052 -0.462823,0.18521 -0.41079,-0.0169 -0.494348,-0.10048 -0.213046,-0.21305 z m 4.29764,-0.11174 c 0.690574,-0.44629 1.157385,-0.44629 0.881567,0 -0.119865,0.19394 -0.486264,0.35019 -0.814221,0.34722 -0.513875,-0.005 -0.523182,-0.0526 -0.06735,-0.34722 z m -2.534506,-0.24089 c 0.254553,-0.10186 0.558694,-0.0893 0.675869,0.0278 0.117174,0.11718 -0.0911,0.20052 -0.462823,0.18521 -0.41079,-0.0169 -0.494348,-0.10048 -0.213046,-0.21305 z m 3.634139,-0.33626 c -0.422049,-0.47674 -0.402382,-0.53388 0.147092,-0.42737 0.348854,0.0676 0.700324,0.3213 0.781044,0.56373 0.202673,0.6087 -0.338999,0.52912 -0.928136,-0.13636 z m -1.871004,-0.0164 c 0.254552,-0.10187 0.558693,-0.0893 0.675868,0.0278 0.117175,0.11717 -0.0911,0.20051 -0.462823,0.1852 -0.41079,-0.0169 -0.494347,-0.10048 -0.213045,-0.21304 z m 3.11224,-0.28806 c -0.111636,-0.29092 -0.03794,-0.52894 0.163773,-0.52894 0.201711,0 0.604771,0.23802 0.895688,0.52894 0.470169,0.47017 0.451972,0.52894 -0.163774,0.52894 -0.380993,0 -0.784052,-0.23802 -0.895687,-0.52894 z m 25.450533,0.28806 c 0.25455,-0.10187 0.558691,-0.0893 0.675869,0.0278 0.117174,0.11717 -0.0911,0.20051 -0.462823,0.1852 -0.410793,-0.0169 -0.494347,-0.10048 -0.213046,-0.21304 z M 50.704042,118.9651 c 0,-0.097 0.317364,-0.34617 0.705253,-0.55376 0.38789,-0.20759 0.705254,-0.2981 0.705254,-0.20112 0,0.097 -0.317364,0.34616 -0.705254,0.55375 -0.387889,0.20759 -0.705253,0.2981 -0.705253,0.20113 z m 9.29524,-0.12125 c 0.118394,-0.19156 0.626344,-0.42688 1.128777,-0.52293 1.077395,-0.20596 0.702343,0.25132 -0.506469,0.61751 -0.521446,0.15796 -0.756323,0.12226 -0.622308,-0.0946 z m 4.809833,-0.0799 c -0.881567,-0.28233 -0.881567,-0.28233 0.08816,-0.31748 0.533348,-0.0193 0.969724,0.12353 0.969724,0.31748 0,0.19394 -0.03967,0.33681 -0.08816,0.31748 -0.04849,-0.0193 -0.484862,-0.1622 -0.969724,-0.31748 z m 2.115761,-0.35263 c -0.31782,-0.20539 -0.361314,-0.34398 -0.108968,-0.34722 0.230985,-0.003 0.518043,0.15328 0.637908,0.34722 0.270572,0.4378 0.148499,0.4378 -0.52894,0 z m -22.857899,-0.89368 c 0.698152,-0.3791 1.1579,-0.41928 1.763135,-0.15409 0.771225,0.33793 0.762465,0.34765 -0.151003,0.1676 -0.54853,-0.10812 -0.969723,-0.0351 -0.969723,0.1682 0,0.19764 -0.357035,0.35299 -0.793411,0.34523 -0.756963,-0.0135 -0.750027,-0.0377 0.151002,-0.52694 z m 3.397306,-0.40508 c 0.254552,-0.10187 0.558693,-0.0893 0.675868,0.0278 0.117175,0.11717 -0.0911,0.20052 -0.462823,0.1852 -0.41079,-0.0169 -0.494347,-0.10047 -0.213045,-0.21304 z m 1.924119,-0.35611 c 0.343094,-0.0894 0.819141,-0.0835 1.057881,0.0131 0.238739,0.0966 -0.04197,0.16975 -0.623809,0.16256 -0.581834,-0.007 -0.777166,-0.0862 -0.434072,-0.17562 z m 5.018221,-0.0255 c -0.575814,-0.42305 -0.572518,-1.13523 0.0042,-0.91391 0.288589,0.11074 0.524708,0.42239 0.524708,0.69256 0,0.56046 -0.04292,0.57842 -0.52894,0.22135 z m -1.680854,-0.47915 c 0.239198,-0.24099 0.523735,-0.34933 0.632305,-0.24076 0.108569,0.10857 -0.08714,0.30574 -0.434907,0.43816 -0.502563,0.19137 -0.543067,0.15086 -0.197398,-0.1974 z m 2.873483,0.0769 c 0.379429,-0.24031 0.310533,-0.3648 -0.311062,-0.56209 -0.785073,-0.24917 -0.40749,-0.87077 0.528941,-0.87077 0.193944,0 0.140969,0.13417 -0.117724,0.29816 -0.375958,0.23832 -0.353781,0.34288 0.110507,0.52105 0.624339,0.23958 0.41541,0.93664 -0.278065,0.92773 -0.275214,-0.004 -0.251981,-0.1118 0.0674,-0.31408 z m 19.436041,-0.70067 c 0,-0.45692 0.91879,-0.73891 1.279379,-0.39266 0.169095,0.16236 0.704146,0.36638 1.189008,0.45336 0.501161,0.0899 0.158792,0.17887 -0.79341,0.20617 -0.921238,0.0264 -1.674977,-0.0937 -1.674977,-0.26687 z m -18.241727,-0.2821 c 0.343094,-0.0894 0.81914,-0.0835 1.05788,0.0131 0.23874,0.0966 -0.04197,0.16974 -0.623808,0.16255 -0.581834,-0.007 -0.777167,-0.0862 -0.434072,-0.17562 z m 2.434935,-0.3208 c 0.316015,-0.31601 0.743652,-0.51648 0.950305,-0.44549 0.206653,0.071 -0.05191,0.32956 -0.574572,0.57458 -0.878259,0.41171 -0.906745,0.40192 -0.375733,-0.12909 z m 20.214627,0.21254 c -0.536719,-0.23063 -0.326049,-0.30769 0.881567,-0.32244 1.148181,-0.014 1.440607,0.0751 1.05788,0.32244 -0.627753,0.40569 -0.995366,0.40569 -1.939447,0 z m -2.644701,-0.30513 c 0.858762,-0.51112 2.343561,-0.88264 1.939447,-0.48528 -0.193945,0.1907 -0.828673,0.44874 -1.410507,0.57342 -0.690493,0.14796 -0.874187,0.11735 -0.52894,-0.0881 z m -26.799639,-0.17085 c 0,-0.0815 0.416243,-0.42089 0.924984,-0.75423 0.508741,-0.33334 0.817267,-0.43179 0.685614,-0.21877 -0.251583,0.40707 -1.610598,1.22809 -1.610598,0.973 z m 6.633792,-0.11753 c 0.254553,-0.10186 0.558693,-0.0893 0.675868,0.0278 0.117175,0.11717 -0.09109,0.20052 -0.462822,0.18521 -0.410791,-0.0169 -0.494348,-0.10048 -0.213046,-0.21305 z m 22.810548,-0.46437 c 0.119865,-0.19394 0.376616,-0.35263 0.570561,-0.35263 0.193944,0 0.254557,0.15869 0.134693,0.35263 -0.119865,0.19395 -0.376616,0.35263 -0.570561,0.35263 -0.193945,0 -0.254558,-0.15868 -0.134693,-0.35263 z m 1.234194,-0.37344 c 0,-0.20539 0.158682,-0.27536 0.352627,-0.1555 0.193944,0.11987 0.352626,0.0405 0.352626,-0.17631 0,-0.21684 0.158683,-0.29618 0.352627,-0.17632 0.193945,0.11987 0.352627,0.0815 0.352627,-0.0852 0,-0.61826 3.096067,-1.85974 3.30168,-1.32392 0.130017,0.33882 0.01185,0.42381 -0.380156,0.27339 -0.376285,-0.14439 -0.483367,-0.08 -0.316356,0.19023 0.170146,0.2753 0.05516,0.3328 -0.352627,0.17632 -0.407781,-0.15649 -0.522769,-0.099 -0.352626,0.17631 0.170146,0.2753 0.05516,0.33279 -0.352627,0.17631 -0.445865,-0.17109 -0.52826,-0.10786 -0.313094,0.24028 0.205017,0.33173 0.139065,0.41379 -0.221397,0.27547 -0.282369,-0.10836 -0.814776,0.0234 -1.183123,0.2927 -0.799831,0.58485 -1.240181,0.62613 -1.240181,0.11627 z m 4.495992,-0.21272 c 0.242431,-0.0978 0.639136,-0.0978 0.881567,0 0.242431,0.0978 0.04408,0.17786 -0.440784,0.17786 -0.484862,0 -0.683214,-0.08 -0.440783,-0.17786 z m -34.116646,-0.82435 c 0.678807,-0.37163 1.392876,-0.67569 1.586821,-0.67569 0.193945,0 -0.20276,0.30406 -0.881567,0.67569 -0.678807,0.37163 -1.392876,0.6757 -1.586821,0.6757 -0.193944,0 0.202761,-0.30407 0.881567,-0.6757 z m 1.316474,0.30887 c 0.239199,-0.24099 0.523736,-0.34933 0.632305,-0.24076 0.108569,0.10856 -0.08714,0.30574 -0.434907,0.43816 -0.502563,0.19137 -0.543067,0.15086 -0.197398,-0.1974 z M 46.73699,112.8884 c 0.242431,-0.0978 0.639136,-0.0978 0.881567,0 0.242431,0.0978 0.04408,0.17786 -0.440784,0.17786 -0.484862,0 -0.683214,-0.08 -0.440783,-0.17786 z m -1.741095,-0.35997 c 0.254552,-0.10186 0.558693,-0.0893 0.675868,0.0278 0.117175,0.11717 -0.09109,0.20052 -0.462823,0.18521 -0.41079,-0.0169 -0.494347,-0.10048 -0.213045,-0.21305 z m 9.556049,-0.0851 c 0.385681,-0.24414 0.306179,-0.35271 -0.352627,-0.48157 -0.621293,-0.12152 -0.546483,-0.15782 0.277525,-0.13469 0.879874,0.0247 1.044954,0.13186 0.750233,0.48697 -0.207826,0.25042 -0.556789,0.45287 -0.775472,0.4499 -0.222789,-0.003 -0.178672,-0.14399 0.100341,-0.32061 z m -12.310946,-0.37924 c -0.31782,-0.20539 -0.361313,-0.34398 -0.108968,-0.34723 0.230985,-0.003 0.518043,0.15329 0.637908,0.34723 0.270572,0.43779 0.148499,0.43779 -0.52894,0 z m 20.620537,-2.8932 c -2.448582,-3.12939 -3.75576,-5.52613 -1.792199,-3.28603 0.676028,0.77124 1.160316,1.47107 1.076196,1.55519 -0.08412,0.0841 0.166064,0.37639 0.555964,0.64949 0.389901,0.27309 0.627826,0.62773 0.528722,0.78809 -0.0991,0.16035 0.01725,0.36982 0.258571,0.46549 0.441821,0.17516 1.864884,2.36834 1.536716,2.36834 -0.09686,0 -1.070646,-1.14325 -2.16397,-2.54057 z m -23.779848,1.96665 c 0.0079,-0.1692 0.504199,-0.86303 1.102925,-1.54184 1.088594,-1.23419 1.088594,-1.23419 0.426453,-0.061 -0.69294,1.22771 -1.553936,2.13009 -1.529378,1.60288 z m 4.856327,-0.37221 c 0.254553,-0.10187 0.558693,-0.0893 0.675869,0.0278 0.117174,0.11717 -0.0911,0.20051 -0.462823,0.1852 -0.41079,-0.0169 -0.494348,-0.10048 -0.213046,-0.21304 z m 1.410508,-0.35263 c 0.254552,-0.10187 0.558693,-0.0893 0.675868,0.0278 0.117175,0.11717 -0.0911,0.20052 -0.462823,0.1852 -0.41079,-0.0169 -0.494347,-0.10047 -0.213045,-0.21304 z m 1.410507,-0.35263 c 0.254552,-0.10186 0.558693,-0.0893 0.675868,0.0278 0.117175,0.11718 -0.0911,0.20052 -0.462823,0.18521 -0.41079,-0.0169 -0.494347,-0.10048 -0.213045,-0.21305 z m 1.423896,-0.35709 c 0.326989,-0.13023 -0.114997,-0.81211 -1.410508,-2.17608 -1.886718,-1.98641 -1.886718,-1.98641 0.140886,-0.059 2.145555,2.03952 2.409022,2.49764 1.410507,2.45259 -0.423781,-0.0191 -0.467916,-0.0873 -0.140885,-0.21751 z m -9.115569,-1.5386 c 0,-0.20539 0.158682,-0.27536 0.352627,-0.1555 0.193945,0.11987 0.352627,0.28791 0.352627,0.37344 0,0.0855 -0.158682,0.1555 -0.352627,0.1555 -0.193945,0 -0.352627,-0.16805 -0.352627,-0.37344 z m 1.057881,-0.33181 c 0,-0.19395 0.158682,-0.35263 0.352627,-0.35263 0.193944,0 0.352626,0.15868 0.352626,0.35263 0,0.19394 -0.158682,0.35263 -0.352626,0.35263 -0.193945,0 -0.352627,-0.15869 -0.352627,-0.35263 z m 1.410507,-0.33088 c 0,-0.20591 0.661175,-0.37438 1.469279,-0.37438 1.736459,0 1.658676,0.25165 -0.167491,0.54187 -0.813107,0.12923 -1.301788,0.0663 -1.301788,-0.16749 z m -2.726879,-1.33278 c 0.588491,-0.0889 0.881737,-0.29951 0.738926,-0.53059 -0.142583,-0.2307 -0.07253,-0.2816 0.176087,-0.12794 0.656259,0.40559 0.09586,0.91662 -0.941803,0.85885 -0.948913,-0.0528 -0.948913,-0.0528 0.02679,-0.20032 z m 7.57788,-1.95077 c -0.456696,-0.43637 -0.572062,-0.59505 -0.256368,-0.35262 0.315694,0.24243 0.66887,0.44078 0.784836,0.44078 0.115967,0 0.27905,-0.19835 0.362407,-0.44078 0.08336,-0.24243 0.111839,-0.1707 0.06329,0.1594 -0.04855,0.33011 0.09324,0.67461 0.31508,0.76557 0.290422,0.11908 0.285447,0.17318 -0.01777,0.19323 -0.231617,0.0153 -0.794781,-0.3292 -1.251477,-0.76558 z m -2.573426,-0.28793 c -0.127839,-0.20685 -0.156807,-0.45171 -0.06437,-0.54415 0.09243,-0.0924 0.262025,0.0768 0.37687,0.37609 0.238441,0.62137 0.03521,0.73067 -0.312496,0.16806 z"
         id="path27" />
      <path
         style="fill:#150705;stroke-width:0.352627"
         d="m 48.846888,151.99904 c -0.0746,-0.14545 -0.168153,-0.81069 -0.207891,-1.47829 -0.311675,-5.23628 -2.333283,-12.94685 -3.496116,-13.33446 -0.210426,-0.0701 0.10028,1.02174 0.690455,2.4264 1.652169,3.93228 2.846744,12.33475 1.608907,11.31683 -0.746771,-0.6141 -4.18239,-1.43475 -7.052536,-1.6846 -1.503072,-0.13085 -2.732858,-0.39148 -2.732858,-0.57919 0,-0.31874 3.547848,-0.17318 6.69991,0.27487 0.749992,0.10661 1.057982,0.0564 0.785044,-0.1281 -0.280239,-0.18938 -0.496375,-1.35465 -0.574726,-3.09856 -0.175561,-3.90758 -0.763673,-5.99464 -1.485752,-5.27256 -0.902773,0.90277 -3.082008,0.68018 -4.277907,-0.43696 -1.043776,-0.97503 -1.043776,-0.97503 -1.085707,-5.85269 -0.04738,-5.51118 -0.08984,-5.47266 2.822504,-2.56032 0.702697,0.7027 1.571192,1.2801 1.92999,1.28311 0.431069,0.004 0.950432,0.61253 1.531071,1.79505 1.237055,2.51935 1.495507,2.47301 0.654192,-0.11731 -0.645319,-1.98687 -2.298815,-4.15161 -3.17113,-4.15161 -0.139898,0 -1.064288,-0.50348 -2.0542,-1.11884 -2.633288,-1.63694 -2.636526,-6.44085 -0.0049,-7.20659 1.592117,-0.46326 1.592117,-0.46326 1.641367,-2.6056 0.04605,-2.00336 0.0027,-2.12759 -0.667604,-1.91483 -0.708187,0.22477 -0.708846,0.21654 -0.05455,-0.68108 0.364269,-0.49972 0.837703,-0.91358 1.052077,-0.91967 0.214373,-0.006 0.612488,-0.84417 0.884698,-1.86238 0.272211,-1.01821 0.615089,-1.82582 0.761952,-1.7947 5.33315,1.13019 7.048955,1.26345 8.313948,0.64573 1.772593,-0.86559 4.385739,-1.37798 3.417727,-0.67015 -0.373661,0.27322 -0.977499,0.49677 -1.341862,0.49677 -0.364364,0 -1.379627,0.49341 -2.256142,1.09647 -0.876515,0.60306 -3.047313,1.79887 -4.823997,2.65736 -2.665488,1.28795 -2.983697,1.52059 -1.819826,1.33046 6.04054,-0.98679 8.700979,-1.5687 10.204134,-2.23193 2.146005,-0.94687 5.191612,-1.42837 4.521007,-0.71475 -0.240796,0.25624 -1.113548,0.49029 -1.939447,0.52011 -1.789593,0.0646 -3.783149,0.79183 -3.184677,1.16171 0.238625,0.14748 -1.601379,1.32475 -4.419784,2.82787 -2.655733,1.41636 -4.431901,2.4825 -3.947039,2.3692 1.977344,-0.46204 11.48556,-2.3127 11.812999,-2.29925 0.193944,0.008 -0.12342,0.24707 -0.705254,0.53135 -0.935526,0.4571 -0.955918,0.49681 -0.176313,0.34334 0.484861,-0.0954 2.595841,-0.51188 4.691065,-0.92542 4.168792,-0.8228 4.502503,-0.77219 3.635302,0.55133 -0.446832,0.68195 -0.89495,0.89737 -1.899057,0.91289 -0.722822,0.0112 -1.94895,0.14551 -2.724729,0.29851 -1.784523,0.35195 -0.86415,0.87872 1.192598,0.68258 1.31249,-0.12517 1.358171,-0.095 1.056796,0.69767 -0.173245,0.45567 -0.234039,0.95947 -0.135098,1.11956 0.09894,0.16009 -0.772675,1.57581 -1.936925,3.14603 -2.434321,3.28317 -2.545158,3.55627 -0.970781,2.39203 2.188392,-1.61831 2.19201,-1.38396 0.01293,0.83733 -2.615494,2.66616 -2.969172,2.57376 -1.52894,-0.39942 1.312517,-2.70954 1.311692,-2.65956 0.05467,-3.30959 -1.020558,-0.52776 -1.020558,-0.52776 -1.259834,0.74769 -0.162808,0.86785 -0.09746,1.3631 0.204474,1.5497 0.353467,0.21846 0.347375,0.39038 -0.02994,0.84502 -0.324611,0.39113 -0.587855,0.45659 -0.836447,0.208 -0.248591,-0.24859 -0.570806,-0.17448 -1.023827,0.2355 -0.929254,0.84097 -1.945953,-1.1952 -2.562294,-5.13157 -0.202714,-1.29466 -0.202714,-1.29466 0.347255,-0.0953 0.67634,1.47499 0.939195,1.30553 0.658449,-0.42451 -0.211583,-1.30383 -0.211583,-1.30383 -2.468586,-1.30383 -2.532445,0 -2.814226,0.26072 -2.324481,2.1507 0.249818,0.96408 0.145445,1.46514 -0.572937,2.75046 -0.734606,1.31435 -0.777981,1.5331 -0.264965,1.33624 0.431218,-0.16548 0.269527,0.24348 -0.544328,1.37676 -1.516925,2.11228 -1.701799,2.1876 -1.701799,0.69338 0,-1.35518 -0.194663,-1.48642 -1.139985,-0.76856 -0.578071,0.43898 -0.575254,0.53828 0.05221,1.84008 0.364788,0.75683 0.853644,2.08543 1.086346,2.95244 0.232703,0.86701 0.898829,2.77119 1.480281,4.23152 0.705268,1.77129 1.277999,4.21732 1.720527,7.34803 0.364838,2.58109 0.755688,4.84231 0.868555,5.02493 0.112867,0.18263 -0.03281,0.33204 -0.323727,0.33204 -0.290918,0 -0.589979,-0.11901 -0.664582,-0.26447 z m -6.565556,-14.28622 c -0.496352,-1.02532 -1.21673,-1.80507 -2.154642,-2.3322 -2.113127,-1.18765 -2.384401,-0.52748 -0.389699,0.94836 0.960018,0.7103 2.010957,1.74085 2.335418,2.29012 0.897833,1.51991 1.054478,0.84041 0.208923,-0.90628 z m 18.922537,-13.13051 c 1.118292,-2.26778 1.121898,-2.29179 0.340155,-2.26558 -1.067039,0.0358 -6.541113,0.936 -6.015126,0.9892 0.229361,0.0232 0.521832,0.37242 0.649934,0.77603 0.198188,0.62444 3.060599,2.79243 3.68686,2.79243 0.114347,0 0.716527,-1.03144 1.338177,-2.29208 z m 13.478797,27.14094 c 0,-1.68477 1.007701,-2.94378 2.776657,-3.4691 4.095239,-1.21616 8.225518,-3.3958 6.434816,-3.3958 -0.977979,0 -1.590181,-0.85824 -0.975877,-1.36807 0.371379,-0.30822 0.586781,-0.28293 0.910281,0.10686 0.233079,0.28085 0.88886,0.61277 1.457294,0.73762 1.87978,0.41287 1.074521,1.02994 -4.174573,3.19894 -5.194404,2.1464 -5.194404,2.1464 -5.303849,3.43811 -0.10723,1.26562 -1.124749,1.94542 -1.124749,0.75144 z m 3.367586,0.21786 c 0.268811,-0.25871 7.67195,-2.85124 8.141892,-2.85124 0.06996,0 0.127207,0.71407 0.127207,1.58682 0,1.58682 0,1.58682 -4.302047,1.58682 -2.60836,0 -4.170162,-0.12692 -3.967052,-0.3224 z m 7.604782,-0.86246 c -0.227448,-0.27406 -0.77714,-0.40715 -1.282582,-0.31052 -1.488014,0.28445 -1.356093,0.79013 0.206132,0.79013 1.203279,0 1.401279,-0.0882 1.07645,-0.47961 z m -12.504535,-1.92839 c -0.344922,-0.38113 -0.583594,-1.241 -0.583594,-2.10253 0,-2.35363 -1.303,-5.3837 -2.511235,-5.83976 -0.558269,-0.21072 -1.015033,-0.5911 -1.015033,-0.84529 0,-0.98776 2.797885,1.0836 3.214661,2.37991 0.218242,0.67881 0.536316,1.38494 0.706831,1.56919 0.170516,0.18425 0.310029,1.18644 0.310029,2.2271 0,1.04066 0.164265,2.19904 0.365033,2.57418 0.458848,0.85736 0.268694,0.8719 -0.486692,0.0372 z m 10.162433,-8.16076 c 0.336138,-0.37143 1.070752,-0.77627 1.632476,-0.89964 1.363392,-0.29945 1.288974,-0.59324 -0.389191,-1.53642 -0.775779,-0.43601 -1.410507,-0.87383 -1.410507,-0.97292 0,-0.0991 0.672635,0.19087 1.494742,0.64438 1.393952,0.76894 2.228087,2.0493 1.335095,2.0493 -0.217536,0 -1.043127,0.31289 -1.834647,0.69531 -1.394315,0.67367 -1.420095,0.67429 -0.827968,0.02 z m -1.02803,-5.13435 c -0.376472,-0.28475 -0.514913,-0.51772 -0.307646,-0.51772 0.207263,0 0.574387,0.23802 0.815827,0.52894 0.54911,0.66164 0.376372,0.65783 -0.508181,-0.0112 z m -5.133848,-0.18309 c -0.872752,-0.1553 -2.752345,-0.29412 -4.176872,-0.30849 -2.590053,-0.0261 -2.590053,-0.0261 -1.674978,-1.5876 1.21582,-2.07464 1.157632,-2.21609 -0.387639,-0.94235 -1.994102,1.64371 -1.819706,1.0072 0.298477,-1.08937 2.415424,-2.39079 5.268845,-7.21583 5.504692,-9.30826 0.09647,-0.85594 0.322908,-1.55626 0.503178,-1.55626 0.669641,0 3.57352,2.70267 4.730929,4.40313 0.658277,0.96713 1.196869,1.63701 1.196869,1.48861 0,-0.50863 -2.109125,-4.30449 -3.001366,-5.40167 -0.891892,-1.09675 -0.891892,-1.09675 1.780631,-1.33892 1.469887,-0.1332 3.059937,-0.38948 3.533448,-0.5695 0.860928,-0.32733 0.860928,-0.32733 0.860928,7.2886 0,6.41119 -0.07647,7.55245 -0.483444,7.2147 -0.715128,-0.5935 -6.475544,-1.78872 -8.50854,-1.76542 -0.969724,0.0111 -1.552034,0.10449 -1.294024,0.20751 0.322029,0.12857 0.103739,0.49232 -0.696223,1.16016 -1.165333,0.97287 -1.165333,0.97287 0.694283,1.37168 1.022791,0.21935 2.1295,0.40125 2.459357,0.40422 0.329858,0.003 0.837764,0.15922 1.128681,0.34723 0.645597,0.41721 -0.05102,0.41213 -2.468387,-0.018 z m 3.107523,-0.57552 c 0.254551,-0.10186 0.558692,-0.0893 0.67587,0.0278 0.117174,0.11718 -0.0911,0.20052 -0.462823,0.18521 -0.410793,-0.0169 -0.494348,-0.10048 -0.213047,-0.21304 z m -12.377543,-1.62407 c 0.274828,-0.79769 0.80685,-1.6655 1.182271,-1.92845 1.00531,-0.70415 0.840643,-1.0374 -0.639765,-1.29476 -0.727293,-0.12644 -1.773383,-0.40744 -2.324643,-0.62446 -0.619759,-0.24398 -1.090799,-0.26725 -1.234194,-0.061 -0.366063,0.52657 -5.024904,2.84438 -6.549188,3.25827 -0.75928,0.20617 -1.235327,0.24598 -1.05788,0.0885 0.638686,-0.56695 6.689524,-4.44092 7.55148,-4.83474 0.842608,-0.38497 3.972245,-3.60359 6.128872,-6.30314 2.095207,-2.62266 3.470659,1.14484 1.835927,5.0288 -0.501745,1.19209 -0.912263,2.4012 -0.912263,2.6869 0,0.28571 -0.868912,1.458 -1.930917,2.60509 -1.062004,1.14709 -1.84857,2.16796 -1.747925,2.26861 0.100644,0.10064 -0.03851,0.26799 -0.309235,0.37187 -0.419288,0.1609 -0.418183,-0.026 0.0075,-1.26146 z m 3.202496,-4.66272 c 0.903342,-1.85935 1.448583,-5.46163 0.826671,-5.46163 -0.220647,0 -0.361506,-0.17852 -0.31302,-0.39671 0.04849,-0.21819 -0.09065,-0.46292 -0.309181,-0.54384 -0.530746,-0.19654 -0.966733,0.99497 -0.475223,1.29874 0.229304,0.14172 -0.713933,1.26503 -2.327772,2.77218 -1.49231,1.39365 -2.652183,2.58324 -2.577494,2.64352 0.1266,0.10219 3.779991,1.18738 4.208896,1.2502 0.106812,0.0156 0.542018,-0.68746 0.967123,-1.56246 z m -8.131583,4.36816 c 0.239198,-0.24099 0.523735,-0.34934 0.632305,-0.24077 0.108569,0.10857 -0.08714,0.30575 -0.434907,0.43817 -0.502563,0.19137 -0.543067,0.15086 -0.197398,-0.1974 z M 77.23921,115.33776 c 0.533348,-0.0808 1.4061,-0.0808 1.939448,0 0.533348,0.0808 0.09697,0.1469 -0.969724,0.1469 -1.066696,0 -1.503072,-0.0661 -0.969724,-0.1469 z m 7.317007,-2.56845 c 1.571834,-0.86054 1.763134,-0.86054 1.763134,0 0,0.59695 -0.230156,0.70299 -1.498664,0.69048 -1.498664,-0.0148 -1.498664,-0.0148 -0.26447,-0.69048 z m -46.899368,-0.0915 c 0,-0.24426 0.325047,-0.64711 0.722327,-0.89521 0.70536,-0.44051 0.708549,-0.43008 0.135758,0.44411 -0.654721,0.99923 -0.858085,1.10614 -0.858085,0.4511 z m 5.868435,-2.20396 c 0.09749,-0.25405 -0.07225,-0.9444 -0.377205,-1.5341 -0.756425,-1.46277 -0.700166,-1.63643 0.314706,-0.97146 1.180677,0.77361 1.288143,0.72467 0.863185,-0.39306 -0.464779,-1.22246 -0.906167,-1.49397 -2.437599,-1.49946 -1.582215,-0.006 -4.231522,-1.38913 -4.231522,-2.20969 0,-1.32824 5.696967,-0.86619 6.514241,0.52834 0.369404,0.63032 1.528969,2.04841 2.57681,3.15132 1.905166,2.00529 1.905166,2.00529 0.37411,2.40281 -0.842082,0.21863 -2.035714,0.53019 -2.652516,0.69236 -0.866236,0.22774 -1.08112,0.18972 -0.94421,-0.16706 z m 2.898144,-6.50848 c -0.820756,-0.68376 -0.821884,-0.69369 -0.08019,-0.70526 0.46184,-0.007 0.823487,0.26056 0.936711,0.69352 0.228027,0.87198 0.176925,0.87268 -0.856519,0.0117 z"
         id="path25" />
    </g>
  </g>
</svg>
